{
.appVersion = "848";
classes = (
{
automatic = 1;
code = "A Aacute Acircumflex Adieresis Agrave Aring Atilde AE B C Ccedilla D Eth E Eacute Ecircumflex Edieresis Egrave F G H I Iacute Icircumflex Idieresis Igrave J K L Lslash M N Ntilde O Oacute Ocircumflex Odieresis Ograve Oslash Otilde OE P Thorn Q R S Scaron T U Uacute Ucircumflex Udieresis Ugrave V W X Y Yacute Ydieresis Z Zcaron Delta Omega";
name = Uppercase;
}
);
copyright = "Copyright (c) 2011-2016 by Omnibus-Type (www.omnibus-type.com omnibus.type@gmail.com)";
customParameters = (
{
name = openTypeNameLicenseURL;
value = "http://scripts.sil.org/OFL";
},
{
name = openTypeNameDescription;
value = "Chivo (Goat) is a new Omnibus-Type grotesque. The strength of Chivo Black Italic make it ideal for highlights and headlines. Chivo Black Italic elegance makes it ideal for combining the strength of Chivo family and to use in texts for continuous reading. Its design detail becomes an indispensable ally for any designer.";
},
{
name = trademark;
value = "Chivo is a trademark of Omnibus-Type.";
},
{
name = openTypeNameLicense;
value = "This Font Software is licensed under the SIL Open Font License, Version 1.1. This license is available with a FAQ at: http://scripts.sil.org/OFL";
},
{
name = openTypeOS2VendorID;
value = OMNI;
},
{
name = fsType;
value = (
);
},
{
name = "Family Alignment Zones";
value = (
"{686, 12}",
"{511, 12}",
"{0, -12}"
);
},
{
name = glyphOrder;
value = (
".notdef",
space,
exclam,
quotedbl,
numbersign,
dollar,
percent,
ampersand,
quotesingle,
parenleft,
parenright,
asterisk,
plus,
comma,
hyphen,
period,
slash,
zero,
one,
two,
three,
four,
five,
six,
seven,
eight,
nine,
colon,
semicolon,
less,
equal,
greater,
question,
at,
A,
B,
C,
D,
E,
F,
G,
H,
I,
J,
K,
L,
M,
N,
O,
P,
Q,
R,
S,
T,
U,
V,
W,
X,
Y,
Z,
bracketleft,
backslash,
bracketright,
asciicircum,
underscore,
grave,
a,
b,
c,
d,
e,
f,
g,
h,
i,
j,
k,
l,
m,
n,
o,
p,
q,
r,
s,
t,
u,
v,
w,
x,
y,
z,
braceleft,
bar,
braceright,
asciitilde,
nbspace,

glyphs = (
{
glyphname = .notdef;
lastChange = "2014-09-05 18:36:05 +0000";
layers = (
{
background = {
paths = (
{
closed = 1;
nodes = (
"0 0 LINE",
"500 0 LINE",
"500 700 LINE",
"0 700 LINE"
);
},
{
closed = 1;
nodes = (
"250 395 LINE",
"80 650 LINE",
"420 650 LINE"
);
},
{
closed = 1;
nodes = (
"280 350 LINE",
"450 605 LINE",
"450 95 LINE"
);
},
{
closed = 1;
nodes = (
"80 50 LINE",
"250 305 LINE",
"420 50 LINE"
);
},
{
closed = 1;
nodes = (
"50 605 LINE",
"220 350 LINE",
"50 95 LINE"
);
}
);
};
layerId = "ED6E45DB-321E-4DDD-9C43-F5B1EDD266A1";
paths = (
{
closed = 1;
nodes = (
"0 0 LINE",
"500 0 LINE",
"500 700 LINE",
"0 700 LINE"
);
},
{
closed = 1;
nodes = (
"250 395 LINE",
"80 650 LINE",
"420 650 LINE"
);
},
{
closed = 1;
nodes = (
"280 350 LINE",
"450 605 LINE",
"450 95 LINE"
);
},
{
closed = 1;
nodes = (
"80 50 LINE",
"250 305 LINE",
"420 50 LINE"
);
},
{
closed = 1;
nodes = (
"50 605 LINE",
"220 350 LINE",
"50 95 LINE"
);
}
);
width = 500;
}
);
},
{
glyphname = exclam;
lastChange = "2014-09-05 18:36:05 +0000";
layers = (
{
background = {
paths = (
{
closed = 1;
nodes = (
"23 0 LINE",
"169 0 LINE",
"190 147 LINE",
"44 147 LINE"
);
},
{
closed = 1;
nodes = (
"75 202 LINE",
"172 202 LINE",
"281 686 LINE",
"104 686 LINE"
);
}
);
};
layerId = "ED6E45DB-321E-4DDD-9C43-F5B1EDD266A1";
paths = (
{
closed = 1;
nodes = (
"23 0 LINE",
"169 0 LINE",
"190 147 LINE",
"44 147 LINE"
);
},
{
closed = 1;
nodes = (
"75 202 LINE",
"172 202 LINE",
"281 686 LINE",
"104 686 LINE"
);
}
);
width = 290;
}
);
unicode = 0021;
},
{
glyphname = quotedbl;
lastChange = "2014-09-05 18:36:05 +0000";
layers = (
{
background = {
paths = (
{
closed = 1;
nodes = (
"95 401 LINE",
"145 401 LINE",
"164 447 OFFCURVE",
"181 492 OFFCURVE",
"199 539 CURVE",
"220 686 LINE",
"102 686 LINE",
"81 539 LINE"
);
},
{
closed = 1;
nodes = (
"323 401 LINE",
"341 447 OFFCURVE",
"359 492 OFFCURVE",
"378 539 CURVE",
"399 686 LINE",
"280 686 LINE",
"259 539 LINE",
"264 492 OFFCURVE",
"269 447 OFFCURVE",
"273 401 CURVE"
);
}
);
};
layerId = "ED6E45DB-321E-4DDD-9C43-F5B1EDD266A1";
paths = (
{
closed = 1;
nodes = (
"95 401 LINE",
"145 401 LINE",
"164 447 OFFCURVE",
"181 492 OFFCURVE",
"199 539 CURVE",
"220 686 LINE",
"102 686 LINE",
"81 539 LINE"
);
},
{
closed = 1;
nodes = (
"323 401 LINE",
"341 447 OFFCURVE",
"359 492 OFFCURVE",
"378 539 CURVE",
"399 686 LINE",
"280 686 LINE",
"259 539 LINE",
"264 492 OFFCURVE",
"269 447 OFFCURVE",
"273 401 CURVE"
);
}
);
width = 461;
}
);
unicode = 0022;
},
{
glyphname = numbersign;
lastChange = "2014-09-05 18:36:05 +0000";
layers = (
{
background = {
paths = (
{
closed = 1;
nodes = (
"52 402 LINE",
"166 402 LINE",
"116 264 LINE",
"-8 264 LINE",
"-21 172 LINE",
"82 172 LINE",
"20 0 LINE",
"117 0 LINE",
"178 172 LINE",
"309 172 LINE",
"289 115 OFFCURVE",
"268 57 OFFCURVE",
"247 0 CURVE",
"343 0 LINE",
"364 57 OFFCURVE",
"385 115 OFFCURVE",
"405 172 CURVE",
"537 172 LINE",
"550 264 LINE",
"440 264 LINE",
"489 402 LINE",
"605 402 LINE",
"618 494 LINE",
"520 494 LINE",
"545 561 OFFCURVE",
"570 628 OFFCURVE",
"594 696 CURVE",
"498 696 LINE",
"474 628 OFFCURVE",
"449 561 OFFCURVE",
"425 494 CURVE",
"295 494 LINE",
"319 561 OFFCURVE",
"344 628 OFFCURVE",
"368 696 CURVE",
"271 696 LINE",
"247 628 OFFCURVE",
"222 561 OFFCURVE",
"198 494 CURVE",
"65 494 LINE"
);
},
{
closed = 1;
nodes = (
"261 401 LINE",
"393 401 LINE",
"343 263 LINE",
"212 263 LINE"
);
}
);
};
layerId = "ED6E45DB-321E-4DDD-9C43-F5B1EDD266A1";
paths = (
{
closed = 1;
nodes = (
"52 402 LINE",
"166 402 LINE",
"116 264 LINE",
"-8 264 LINE",
"-21 172 LINE",
"82 172 LINE",
"20 0 LINE",
"117 0 LINE",
"178 172 LINE",
"309 172 LINE",
"289 115 OFFCURVE",
"268 57 OFFCURVE",
"247 0 CURVE",
"343 0 LINE",
"364 57 OFFCURVE",
"385 115 OFFCURVE",
"405 172 CURVE",
"537 172 LINE",
"550 264 LINE",
"440 264 LINE",
"489 402 LINE",
"605 402 LINE",
"618 494 LINE",
"520 494 LINE",
"545 561 OFFCURVE",
"570 628 OFFCURVE",
"594 696 CURVE",
"498 696 LINE",
"474 628 OFFCURVE",
"449 561 OFFCURVE",
"425 494 CURVE",
"295 494 LINE",
"319 561 OFFCURVE",
"344 628 OFFCURVE",
"368 696 CURVE",
"271 696 LINE",
"247 628 OFFCURVE",
"222 561 OFFCURVE",
"198 494 CURVE",
"65 494 LINE"
);
},
{
closed = 1;
nodes = (
"261 401 LINE",
"393 401 LINE",
"343 263 LINE",
"212 263 LINE"
);
}
);
width = 600;
}
);
unicode = 0023;
},
{
glyphname = dollar;
lastChange = "2014-09-05 18:36:05 +0000";
layers = (
{
background = {
paths = (
{
closed = 1;
nodes = (
"551 476 LINE",
"554 497 OFFCURVE",
"554 507 OFFCURVE",
"554 517 CURVE SMOOTH",
"554 616 OFFCURVE",
"475 665 OFFCURVE",
"369 672 CURVE",
"377 701 OFFCURVE",
"385 729 OFFCURVE",
"394 758 CURVE",
"293 758 LINE",
"294 729 OFFCURVE",
"294 700 OFFCURVE",
"294 671 CURVE",
"170 657 OFFCURVE",
"67 585 OFFCURVE",
"67 454 CURVE SMOOTH",
"67 254 OFFCURVE",
"382 319 OFFCURVE",
"382 213 CURVE SMOOTH",
"382 175 OFFCURVE",
"351 137 OFFCURVE",
"253 137 CURVE SMOOTH",
"185 137 OFFCURVE",
"151 164 OFFCURVE",
"151 208 CURVE SMOOTH",
"151 217 OFFCURVE",
"155 230 OFFCURVE",
"155 236 CURVE",
"20 236 LINE",
"17 229 OFFCURVE",
"14 201 OFFCURVE",
"14 185 CURVE SMOOTH",
"14 79 OFFCURVE",
"96 30 OFFCURVE",
"203 21 CURVE",
"178 -66 LINE",
"279 -66 LINE",
"278 -37 OFFCURVE",
"278 -8 OFFCURVE",
"278 20 CURVE",
"412 28 OFFCURVE",
"532 98 OFFCURVE",
"532 256 CURVE SMOOTH",
"532 449 OFFCURVE",
"213 388 OFFCURVE",
"213 492 CURVE SMOOTH",
"213 530 OFFCURVE",
"256 560 OFFCURVE",
"328 560 CURVE SMOOTH",
"386 560 OFFCURVE",
"419 533 OFFCURVE",
"419 495 CURVE SMOOTH",
"419 489 OFFCURVE",
"417 476 OFFCURVE",
"417 476 CURVE"
);
}
);
};
layerId = "ED6E45DB-321E-4DDD-9C43-F5B1EDD266A1";
paths = (
{
closed = 1;
nodes = (
"551 476 LINE",
"554 497 OFFCURVE",
"554 507 OFFCURVE",
"554 517 CURVE SMOOTH",
"554 616 OFFCURVE",
"475 665 OFFCURVE",
"369 672 CURVE",
"377 701 OFFCURVE",
"385 729 OFFCURVE",
"394 758 CURVE",
"293 758 LINE",
"294 729 OFFCURVE",
"294 700 OFFCURVE",
"294 671 CURVE",
"170 657 OFFCURVE",
"67 585 OFFCURVE",
"67 454 CURVE SMOOTH",
"67 254 OFFCURVE",
"382 319 OFFCURVE",
"382 213 CURVE SMOOTH",
"382 175 OFFCURVE",
"351 137 OFFCURVE",
"253 137 CURVE SMOOTH",
"185 137 OFFCURVE",
"151 164 OFFCURVE",
"151 208 CURVE SMOOTH",
"151 217 OFFCURVE",
"155 230 OFFCURVE",
"155 236 CURVE",
"20 236 LINE",
"17 229 OFFCURVE",
"14 201 OFFCURVE",
"14 185 CURVE SMOOTH",
"14 79 OFFCURVE",
"96 30 OFFCURVE",
"203 21 CURVE",
"178 -66 LINE",
"279 -66 LINE",
"278 -37 OFFCURVE",
"278 -8 OFFCURVE",
"278 20 CURVE",
"412 28 OFFCURVE",
"532 98 OFFCURVE",
"532 256 CURVE SMOOTH",
"532 449 OFFCURVE",
"213 388 OFFCURVE",
"213 492 CURVE SMOOTH",
"213 530 OFFCURVE",
"256 560 OFFCURVE",
"328 560 CURVE SMOOTH",
"386 560 OFFCURVE",
"419 533 OFFCURVE",
"419 495 CURVE SMOOTH",
"419 489 OFFCURVE",
"417 476 OFFCURVE",
"417 476 CURVE"
);
}
);
width = 586;
}
);
unicode = 0024;
},
{
glyphname = percent;
lastChange = "2014-09-05 18:36:05 +0000";
layers = (
{
background = {
paths = (
{
closed = 1;
nodes = (
"666 686 LINE",
"586 686 LINE",
"70 0 LINE",
"153 0 LINE"
);
},
{
closed = 1;
nodes = (
"334 569 OFFCURVE",
"334 576 OFFCURVE",
"334 582 CURVE SMOOTH",
"334 640 OFFCURVE",
"292 685 OFFCURVE",
"229 685 CURVE SMOOTH",
"214 685 LINE SMOOTH",
"138 685 OFFCURVE",
"83 630 OFFCURVE",
"74 563 CURVE SMOOTH",
"68 522 OFFCURVE",
"58 453 OFFCURVE",
"58 439 CURVE SMOOTH",
"58 381 OFFCURVE",
"101 336 OFFCURVE",
"165 336 CURVE SMOOTH",
"180 336 LINE SMOOTH",
"250 336 OFFCURVE",
"309 391 OFFCURVE",
"319 458 CURVE SMOOTH"
);
},
{
closed = 1;
nodes = (
"233 421 OFFCURVE",
"211 400 OFFCURVE",
"182 400 CURVE SMOOTH",
"148 400 OFFCURVE",
"139 421 OFFCURVE",
"139 449 CURVE SMOOTH",
"139 458 OFFCURVE",
"157 573 OFFCURVE",
"157 573 CURVE",
"161 600 OFFCURVE",
"184 622 OFFCURVE",
"213 622 CURVE SMOOTH",
"247 622 OFFCURVE",
"254 600 OFFCURVE",
"254 573 CURVE SMOOTH",
"254 562 OFFCURVE",
"236 449 OFFCURVE",
"236 449 CURVE"
);
},
{
closed = 1;
nodes = (
"677 232 OFFCURVE",
"677 239 OFFCURVE",
"677 245 CURVE SMOOTH",
"677 303 OFFCURVE",
"635 348 OFFCURVE",
"572 348 CURVE SMOOTH",
"557 348 LINE SMOOTH",
"481 348 OFFCURVE",
"426 293 OFFCURVE",
"417 226 CURVE SMOOTH",
"411 185 OFFCURVE",
"401 116 OFFCURVE",
"401 102 CURVE SMOOTH",
"401 44 OFFCURVE",
"444 -1 OFFCURVE",
"508 -1 CURVE SMOOTH",
"523 -1 LINE SMOOTH",
"593 -1 OFFCURVE",
"652 54 OFFCURVE",
"662 121 CURVE SMOOTH"
);
},
{
closed = 1;
nodes = (
"576 84 OFFCURVE",
"554 63 OFFCURVE",
"525 63 CURVE SMOOTH",
"491 63 OFFCURVE",
"482 84 OFFCURVE",
"482 112 CURVE SMOOTH",
"482 121 OFFCURVE",
"500 236 OFFCURVE",
"500 236 CURVE",
"504 263 OFFCURVE",
"527 285 OFFCURVE",
"556 285 CURVE SMOOTH",
"590 285 OFFCURVE",
"597 263 OFFCURVE",
"597 236 CURVE SMOOTH",
"597 225 OFFCURVE",
"579 112 OFFCURVE",
"579 112 CURVE"
);
}
);
};
layerId = "ED6E45DB-321E-4DDD-9C43-F5B1EDD266A1";
paths = (
{
closed = 1;
nodes = (
"666 686 LINE",
"586 686 LINE",
"70 0 LINE",
"153 0 LINE"
);
},
{
closed = 1;
nodes = (
"334 569 OFFCURVE",
"334 576 OFFCURVE",
"334 582 CURVE SMOOTH",
"334 640 OFFCURVE",
"292 685 OFFCURVE",
"229 685 CURVE SMOOTH",
"214 685 LINE SMOOTH",
"138 685 OFFCURVE",
"83 630 OFFCURVE",
"74 563 CURVE SMOOTH",
"68 522 OFFCURVE",
"58 453 OFFCURVE",
"58 439 CURVE SMOOTH",
"58 381 OFFCURVE",
"101 336 OFFCURVE",
"165 336 CURVE SMOOTH",
"180 336 LINE SMOOTH",
"250 336 OFFCURVE",
"309 391 OFFCURVE",
"319 458 CURVE SMOOTH"
);
},
{
closed = 1;
nodes = (
"233 421 OFFCURVE",
"211 400 OFFCURVE",
"182 400 CURVE SMOOTH",
"148 400 OFFCURVE",
"139 421 OFFCURVE",
"139 449 CURVE SMOOTH",
"139 458 OFFCURVE",
"157 573 OFFCURVE",
"157 573 CURVE",
"161 600 OFFCURVE",
"184 622 OFFCURVE",
"213 622 CURVE SMOOTH",
"247 622 OFFCURVE",
"254 600 OFFCURVE",
"254 573 CURVE SMOOTH",
"254 562 OFFCURVE",
"236 449 OFFCURVE",
"236 449 CURVE"
);
},
{
closed = 1;
nodes = (
"677 232 OFFCURVE",
"677 239 OFFCURVE",
"677 245 CURVE SMOOTH",
"677 303 OFFCURVE",
"635 348 OFFCURVE",
"572 348 CURVE SMOOTH",
"557 348 LINE SMOOTH",
"481 348 OFFCURVE",
"426 293 OFFCURVE",
"417 226 CURVE SMOOTH",
"411 185 OFFCURVE",
"401 116 OFFCURVE",
"401 102 CURVE SMOOTH",
"401 44 OFFCURVE",
"444 -1 OFFCURVE",
"508 -1 CURVE SMOOTH",
"523 -1 LINE SMOOTH",
"593 -1 OFFCURVE",
"652 54 OFFCURVE",
"662 121 CURVE SMOOTH"
);
},
{
closed = 1;
nodes = (
"576 84 OFFCURVE",
"554 63 OFFCURVE",
"525 63 CURVE SMOOTH",
"491 63 OFFCURVE",
"482 84 OFFCURVE",
"482 112 CURVE SMOOTH",
"482 121 OFFCURVE",
"500 236 OFFCURVE",
"500 236 CURVE",
"504 263 OFFCURVE",
"527 285 OFFCURVE",
"556 285 CURVE SMOOTH",
"590 285 OFFCURVE",
"597 263 OFFCURVE",
"597 236 CURVE SMOOTH",
"597 225 OFFCURVE",
"579 112 OFFCURVE",
"579 112 CURVE"
);
}
);
width = 739;
}
);
unicode = 0025;
},
{
glyphname = ampersand;
lastChange = "2014-09-05 18:36:05 +0000";
layers = (
{
background = {
paths = (
{
closed = 1;
nodes = (
"394 691 LINE",
"377 694 OFFCURVE",
"358 696 OFFCURVE",
"338 696 CURVE SMOOTH",
"192 696 OFFCURVE",
"75 624 OFFCURVE",
"75 486 CURVE SMOOTH",
"75 423 OFFCURVE",
"109 379 OFFCURVE",
"163 357 CURVE",
"77 331 OFFCURVE",
"12 271 OFFCURVE",
"12 164 CURVE SMOOTH",
"12 44 OFFCURVE",
"120 0 OFFCURVE",
"244 0 CURVE SMOOTH",
"516 0 LINE",
"530 97 OFFCURVE",
"544 195 OFFCURVE",
"557 292 CURVE",
"651 292 LINE",
"657 331 OFFCURVE",
"662 369 OFFCURVE",
"667 408 CURVE",
"573 408 LINE",
"591 539 LINE",
"489 539 LINE",
"469 495 OFFCURVE",
"449 452 OFFCURVE",
"430 408 CURVE",
"308 408 LINE SMOOTH",
"248 408 OFFCURVE",
"219 451 OFFCURVE",
"219 487 CURVE SMOOTH",
"219 547 OFFCURVE",
"265 577 OFFCURVE",
"336 577 CURVE SMOOTH",
"346 577 OFFCURVE",
"370 573 OFFCURVE",
"377 570 CURVE"
);
},
{
closed = 1;
nodes = (
"409 292 LINE",
"401 233 OFFCURVE",
"392 173 OFFCURVE",
"384 113 CURVE",
"273 113 LINE SMOOTH",
"212 113 OFFCURVE",
"163 136 OFFCURVE",
"163 190 CURVE SMOOTH",
"163 249 OFFCURVE",
"200 292 OFFCURVE",
"314 292 CURVE SMOOTH"
);
}
);
};
layerId = "ED6E45DB-321E-4DDD-9C43-F5B1EDD266A1";
paths = (
{
closed = 1;
nodes = (
"394 691 LINE",
"377 694 OFFCURVE",
"358 696 OFFCURVE",
"338 696 CURVE SMOOTH",
"192 696 OFFCURVE",
"75 624 OFFCURVE",
"75 486 CURVE SMOOTH",
"75 423 OFFCURVE",
"109 379 OFFCURVE",
"163 357 CURVE",
"77 331 OFFCURVE",
"12 271 OFFCURVE",
"12 164 CURVE SMOOTH",
"12 44 OFFCURVE",
"120 0 OFFCURVE",
"244 0 CURVE SMOOTH",
"516 0 LINE",
"530 97 OFFCURVE",
"544 195 OFFCURVE",
"557 292 CURVE",
"651 292 LINE",
"657 331 OFFCURVE",
"662 369 OFFCURVE",
"667 408 CURVE",
"573 408 LINE",
"591 539 LINE",
"489 539 LINE",
"469 495 OFFCURVE",
"449 452 OFFCURVE",
"430 408 CURVE",
"308 408 LINE SMOOTH",
"248 408 OFFCURVE",
"219 451 OFFCURVE",
"219 487 CURVE SMOOTH",
"219 547 OFFCURVE",
"265 577 OFFCURVE",
"336 577 CURVE SMOOTH",
"346 577 OFFCURVE",
"370 573 OFFCURVE",
"377 570 CURVE"
);
},
{
closed = 1;
nodes = (
"409 292 LINE",
"401 233 OFFCURVE",
"392 173 OFFCURVE",
"384 113 CURVE",
"273 113 LINE SMOOTH",
"212 113 OFFCURVE",
"163 136 OFFCURVE",
"163 190 CURVE SMOOTH",
"163 249 OFFCURVE",
"200 292 OFFCURVE",
"314 292 CURVE SMOOTH"
);
}
);
width = 670;
}
);
unicode = 0026;
},
{
glyphname = quotesingle;
lastChange = "2014-09-05 18:36:05 +0000";
layers = (
{
background = {
paths = (
{
closed = 1;
nodes = (
"139 401 LINE",
"158 447 OFFCURVE",
"175 492 OFFCURVE",
"194 539 CURVE",
"215 686 LINE",
"96 686 LINE",
"75 539 LINE",
"80 492 OFFCURVE",
"85 447 OFFCURVE",
"89 401 CURVE"
);
}
);
};
layerId = "ED6E45DB-321E-4DDD-9C43-F5B1EDD266A1";
paths = (
{
closed = 1;
nodes = (
"139 401 LINE",
"158 447 OFFCURVE",
"175 492 OFFCURVE",
"194 539 CURVE",
"215 686 LINE",
"96 686 LINE",
"75 539 LINE",
"80 492 OFFCURVE",
"85 447 OFFCURVE",
"89 401 CURVE"
);
}
);
width = 272;
}
);
unicode = 0027;
},
{
glyphname = parenleft;
lastChange = "2014-09-05 18:36:05 +0000";
layers = (
{
background = {
paths = (
{
closed = 1;
nodes = (
"28 52 OFFCURVE",
"65 -64 OFFCURVE",
"134 -157 CURVE",
"214 -157 LINE",
"173 -68 OFFCURVE",
"147 49 OFFCURVE",
"147 164 CURVE SMOOTH",
"147 350 OFFCURVE",
"223 536 OFFCURVE",
"333 686 CURVE",
"253 686 LINE",
"114 546 OFFCURVE",
"28 368 OFFCURVE",
"28 176 CURVE SMOOTH"
);
}
);
};
layerId = "ED6E45DB-321E-4DDD-9C43-F5B1EDD266A1";
paths = (
{
closed = 1;
nodes = (
"28 52 OFFCURVE",
"65 -64 OFFCURVE",
"134 -157 CURVE",
"214 -157 LINE",
"173 -68 OFFCURVE",
"147 49 OFFCURVE",
"147 164 CURVE SMOOTH",
"147 350 OFFCURVE",
"223 536 OFFCURVE",
"333 686 CURVE",
"253 686 LINE",
"114 546 OFFCURVE",
"28 368 OFFCURVE",
"28 176 CURVE SMOOTH"
);
}
);
width = 326;
}
);
unicode = 0028;
},
{
glyphname = parenright;
lastChange = "2014-09-05 18:36:05 +0000";
layers = (
{
background = {
paths = (
{
closed = 1;
nodes = (
"290 474 OFFCURVE",
"254 592 OFFCURVE",
"184 686 CURVE",
"105 686 LINE",
"146 596 OFFCURVE",
"171 476 OFFCURVE",
"171 361 CURVE SMOOTH",
"171 175 OFFCURVE",
"94 -10 OFFCURVE",
"-14 -157 CURVE",
"65 -157 LINE",
"204 -18 OFFCURVE",
"290 164 OFFCURVE",
"290 351 CURVE SMOOTH"
);
}
);
};
layerId = "ED6E45DB-321E-4DDD-9C43-F5B1EDD266A1";
paths = (
{
closed = 1;
nodes = (
"290 474 OFFCURVE",
"254 592 OFFCURVE",
"184 686 CURVE",
"105 686 LINE",
"146 596 OFFCURVE",
"171 476 OFFCURVE",
"171 361 CURVE SMOOTH",
"171 175 OFFCURVE",
"94 -10 OFFCURVE",
"-14 -157 CURVE",
"65 -157 LINE",
"204 -18 OFFCURVE",
"290 164 OFFCURVE",
"290 351 CURVE SMOOTH"
);
}
);
width = 326;
}
);
unicode = 0029;
},
{
glyphname = asterisk;
lastChange = "2014-09-05 18:36:05 +0000";
layers = (
{
background = {
paths = (
{
closed = 1;
nodes = (
"509 494 LINE",
"493 588 LINE",
"332 526 LINE",
"369 686 LINE",
"270 686 LINE",
"261 526 LINE",
"121 589 LINE",
"76 496 LINE",
"226 458 LINE",
"104 339 LINE",
"178 280 LINE",
"279 417 LINE",
"344 279 LINE",
"434 339 LINE",
"346 458 LINE"
);
}
);
};
layerId = "ED6E45DB-321E-4DDD-9C43-F5B1EDD266A1";
paths = (
{
closed = 1;
nodes = (
"509 494 LINE",
"493 588 LINE",
"332 526 LINE",
"369 686 LINE",
"270 686 LINE",
"261 526 LINE",
"121 589 LINE",
"76 496 LINE",
"226 458 LINE",
"104 339 LINE",
"178 280 LINE",
"279 417 LINE",
"344 279 LINE",
"434 339 LINE",
"346 458 LINE"
);
}
);
width = 583;
}
);
unicode = 002A;
},
{
glyphname = plus;
lastChange = "2014-09-05 18:36:05 +0000";
layers = (
{
background = {
paths = (
{
closed = 1;
nodes = (
"387 511 LINE",
"282 511 LINE",
"254 308 LINE",
"51 308 LINE",
"36 202 LINE",
"239 202 LINE",
"211 0 LINE",
"316 0 LINE",
"344 202 LINE",
"548 202 LINE",
"563 308 LINE",
"359 308 LINE"
);
}
);
};
layerId = "ED6E45DB-321E-4DDD-9C43-F5B1EDD266A1";
paths = (
{
closed = 1;
nodes = (
"387 511 LINE",
"282 511 LINE",
"254 308 LINE",
"51 308 LINE",
"36 202 LINE",
"239 202 LINE",
"211 0 LINE",
"316 0 LINE",
"344 202 LINE",
"548 202 LINE",
"563 308 LINE",
"359 308 LINE"
);
}
);
width = 600;
}
);
unicode = 002B;
},
{
glyphname = comma;
lastChange = "2014-09-05 18:36:05 +0000";
layers = (
{
background = {
paths = (
{
closed = 1;
nodes = (
"148 -144 LINE",
"214 24 LINE",
"231 147 LINE",
"85 147 LINE",
"64 0 LINE",
"127 0 LINE",
"75 -144 LINE"
);
}
);
};
layerId = "ED6E45DB-321E-4DDD-9C43-F5B1EDD266A1";
paths = (
{
closed = 1;
nodes = (
"148 -144 LINE",
"214 24 LINE",
"231 147 LINE",
"85 147 LINE",
"64 0 LINE",
"127 0 LINE",
"75 -144 LINE"
);
}
);
width = 277;
}
);
unicode = 002C;
},
{
glyphname = hyphen;
lastChange = "2014-09-05 18:36:05 +0000";
layers = (
{
background = {
paths = (
{
closed = 1;
nodes = (
"-8 208 LINE",
"244 208 LINE",
"261 336 LINE",
"8 336 LINE"
);
}
);
};
layerId = "ED6E45DB-321E-4DDD-9C43-F5B1EDD266A1";
paths = (
{
closed = 1;
nodes = (
"-8 208 LINE",
"244 208 LINE",
"261 336 LINE",
"8 336 LINE"
);
}
);
width = 260;
}
);
unicode = 002D;
},
{
glyphname = period;
lastChange = "2014-09-05 18:36:05 +0000";
layers = (
{
background = {
paths = (
{
closed = 1;
nodes = (
"54 0 LINE",
"200 0 LINE",
"221 147 LINE",
"75 147 LINE"
);
}
);
};
layerId = "ED6E45DB-321E-4DDD-9C43-F5B1EDD266A1";
paths = (
{
closed = 1;
nodes = (
"54 0 LINE",
"200 0 LINE",
"221 147 LINE",
"75 147 LINE"
);
}
);
width = 277;
}
);
unicode = 002E;
},
{
glyphname = slash;
lastChange = "2014-09-05 18:36:05 +0000";
layers = (
{
background = {
paths = (
{
closed = 1;
nodes = (
"570 686 LINE",
"465 686 LINE",
"-25 -171 LINE",
"81 -171 LINE"
);
}
);
};
layerId = "ED6E45DB-321E-4DDD-9C43-F5B1EDD266A1";
paths = (
{
closed = 1;
nodes = (
"570 686 LINE",
"465 686 LINE",
"-25 -171 LINE",
"81 -171 LINE"
);
}
);
width = 564;
}
);
unicode = 002F;
},
{
glyphname = zero;
lastChange = "2014-09-05 18:36:05 +0000";
layers = (
{
background = {
paths = (
{
closed = 1;
nodes = (
"561 360 OFFCURVE",
"577 444 OFFCURVE",
"577 489 CURVE SMOOTH",
"577 608 OFFCURVE",
"491 696 OFFCURVE",
"369 696 CURVE SMOOTH",
"340 696 LINE SMOOTH",
"199 696 OFFCURVE",
"86 598 OFFCURVE",
"66 455 CURVE SMOOTH",
"47 324 OFFCURVE",
"32 226 OFFCURVE",
"32 194 CURVE SMOOTH",
"32 76 OFFCURVE",
"119 -10 OFFCURVE",
"241 -10 CURVE SMOOTH",
"270 -10 LINE SMOOTH",
"422 -10 OFFCURVE",
"524 94 OFFCURVE",
"543 230 CURVE SMOOTH"
);
},
{
closed = 1;
nodes = (
"385 154 OFFCURVE",
"343 107 OFFCURVE",
"271 107 CURVE SMOOTH",
"216 107 OFFCURVE",
"180 145 OFFCURVE",
"180 198 CURVE SMOOTH",
"180 221 OFFCURVE",
"193 310 OFFCURVE",
"214 450 CURVE SMOOTH",
"227 535 OFFCURVE",
"263 579 OFFCURVE",
"339 579 CURVE SMOOTH",
"404 579 OFFCURVE",
"431 530 OFFCURVE",
"431 490 CURVE SMOOTH",
"431 473 OFFCURVE",
"414 360 OFFCURVE",
"393 214 CURVE SMOOTH"
);
}
);
};
layerId = "ED6E45DB-321E-4DDD-9C43-F5B1EDD266A1";
paths = (
{
closed = 1;
nodes = (
"561 360 OFFCURVE",
"577 444 OFFCURVE",
"577 489 CURVE SMOOTH",
"577 608 OFFCURVE",
"491 696 OFFCURVE",
"369 696 CURVE SMOOTH",
"340 696 LINE SMOOTH",
"199 696 OFFCURVE",
"86 598 OFFCURVE",
"66 455 CURVE SMOOTH",
"47 324 OFFCURVE",
"32 226 OFFCURVE",
"32 194 CURVE SMOOTH",
"32 76 OFFCURVE",
"119 -10 OFFCURVE",
"241 -10 CURVE SMOOTH",
"270 -10 LINE SMOOTH",
"422 -10 OFFCURVE",
"524 94 OFFCURVE",
"543 230 CURVE SMOOTH"
);
},
{
closed = 1;
nodes = (
"385 154 OFFCURVE",
"343 107 OFFCURVE",
"271 107 CURVE SMOOTH",
"216 107 OFFCURVE",
"180 145 OFFCURVE",
"180 198 CURVE SMOOTH",
"180 221 OFFCURVE",
"193 310 OFFCURVE",
"214 450 CURVE SMOOTH",
"227 535 OFFCURVE",
"263 579 OFFCURVE",
"339 579 CURVE SMOOTH",
"404 579 OFFCURVE",
"431 530 OFFCURVE",
"431 490 CURVE SMOOTH",
"431 473 OFFCURVE",
"414 360 OFFCURVE",
"393 214 CURVE SMOOTH"
);
}
);
width = 612;
}
);
unicode = 0030;
},
{
glyphname = one;
lastChange = "2014-09-05 18:36:05 +0000";
layers = (
{
background = {
paths = (
{
closed = 1;
nodes = (
"507 0 LINE",
"524 121 LINE",
"361 121 LINE",
"441 691 LINE",
"388 691 LINE",
"301 646 OFFCURVE",
"193 609 OFFCURVE",
"115 603 CURVE",
"102 514 LINE",
"269 514 LINE",
"214 121 LINE",
"48 121 LINE",
"31 0 LINE"
);
}
);
};
layerId = "ED6E45DB-321E-4DDD-9C43-F5B1EDD266A1";
paths = (
{
closed = 1;
nodes = (
"507 0 LINE",
"524 121 LINE",
"361 121 LINE",
"441 691 LINE",
"388 691 LINE",
"301 646 OFFCURVE",
"193 609 OFFCURVE",
"115 603 CURVE",
"102 514 LINE",
"269 514 LINE",
"214 121 LINE",
"48 121 LINE",
"31 0 LINE"
);
}
);
width = 612;
}
);
unicode = 0031;
},
{
glyphname = two;
lastChange = "2014-09-05 18:36:05 +0000";
layers = (
{
background = {
paths = (
{
closed = 1;
nodes = (
"577 603 OFFCURVE",
"512 696 OFFCURVE",
"359 696 CURVE SMOOTH",
"79 696 OFFCURVE",
"75 459 OFFCURVE",
"74 445 CURVE",
"212 445 LINE",
"212 520 OFFCURVE",
"261 574 OFFCURVE",
"335 574 CURVE SMOOTH",
"395 574 OFFCURVE",
"426 538 OFFCURVE",
"426 492 CURVE SMOOTH",
"426 314 OFFCURVE",
"10 274 OFFCURVE",
"10 0 CURVE",
"513 0 LINE",
"530 129 LINE",
"226 129 LINE",
"272 198 OFFCURVE",
"577 287 OFFCURVE",
"577 502 CURVE SMOOTH"
);
}
);
};
layerId = "ED6E45DB-321E-4DDD-9C43-F5B1EDD266A1";
paths = (
{
closed = 1;
nodes = (
"577 603 OFFCURVE",
"512 696 OFFCURVE",
"359 696 CURVE SMOOTH",
"79 696 OFFCURVE",
"75 459 OFFCURVE",
"74 445 CURVE",
"212 445 LINE",
"212 520 OFFCURVE",
"261 574 OFFCURVE",
"335 574 CURVE SMOOTH",
"395 574 OFFCURVE",
"426 538 OFFCURVE",
"426 492 CURVE SMOOTH",
"426 314 OFFCURVE",
"10 274 OFFCURVE",
"10 0 CURVE",
"513 0 LINE",
"530 129 LINE",
"226 129 LINE",
"272 198 OFFCURVE",
"577 287 OFFCURVE",
"577 502 CURVE SMOOTH"
);
}
);
width = 612;
}
);
unicode = 0032;
},
{
glyphname = three;
lastChange = "2014-09-05 18:36:05 +0000";
layers = (
{
background = {
paths = (
{
closed = 1;
nodes = (
"18 205 LINE",
"16 195 OFFCURVE",
"13 176 OFFCURVE",
"13 160 CURVE SMOOTH",
"13 61 OFFCURVE",
"89 -10 OFFCURVE",
"236 -10 CURVE SMOOTH",
"263 -10 LINE SMOOTH",
"416 -10 OFFCURVE",
"542 76 OFFCURVE",
"542 218 CURVE SMOOTH",
"542 288 OFFCURVE",
"505 333 OFFCURVE",
"444 354 CURVE",
"445 359 LINE",
"513 388 OFFCURVE",
"569 446 OFFCURVE",
"569 534 CURVE SMOOTH",
"569 628 OFFCURVE",
"486 696 OFFCURVE",
"362 696 CURVE SMOOTH",
"342 696 LINE SMOOTH",
"201 696 OFFCURVE",
"83 616 OFFCURVE",
"75 488 CURVE",
"208 488 LINE",
"217 546 OFFCURVE",
"267 577 OFFCURVE",
"324 577 CURVE SMOOTH",
"379 577 OFFCURVE",
"418 554 OFFCURVE",
"418 505 CURVE SMOOTH",
"418 437 OFFCURVE",
"362 403 OFFCURVE",
"303 403 CURVE SMOOTH",
"220 403 LINE",
"205 296 LINE",
"277 296 LINE SMOOTH",
"335 296 OFFCURVE",
"395 288 OFFCURVE",
"395 221 CURVE SMOOTH",
"395 144 OFFCURVE",
"338 109 OFFCURVE",
"258 109 CURVE SMOOTH",
"188 109 OFFCURVE",
"152 135 OFFCURVE",
"152 184 CURVE SMOOTH",
"152 189 OFFCURVE",
"152 194 OFFCURVE",
"154 205 CURVE"
);
}
);
};
layerId = "ED6E45DB-321E-4DDD-9C43-F5B1EDD266A1";
paths = (
{
closed = 1;
nodes = (
"18 205 LINE",
"16 195 OFFCURVE",
"13 176 OFFCURVE",
"13 160 CURVE SMOOTH",
"13 61 OFFCURVE",
"89 -10 OFFCURVE",
"236 -10 CURVE SMOOTH",
"263 -10 LINE SMOOTH",
"416 -10 OFFCURVE",
"542 76 OFFCURVE",
"542 218 CURVE SMOOTH",
"542 288 OFFCURVE",
"505 333 OFFCURVE",
"444 354 CURVE",
"445 359 LINE",
"513 388 OFFCURVE",
"569 446 OFFCURVE",
"569 534 CURVE SMOOTH",
"569 628 OFFCURVE",
"486 696 OFFCURVE",
"362 696 CURVE SMOOTH",
"342 696 LINE SMOOTH",
"201 696 OFFCURVE",
"83 616 OFFCURVE",
"75 488 CURVE",
"208 488 LINE",
"217 546 OFFCURVE",
"267 577 OFFCURVE",
"324 577 CURVE SMOOTH",
"379 577 OFFCURVE",
"418 554 OFFCURVE",
"418 505 CURVE SMOOTH",
"418 437 OFFCURVE",
"362 403 OFFCURVE",
"303 403 CURVE SMOOTH",
"220 403 LINE",
"205 296 LINE",
"277 296 LINE SMOOTH",
"335 296 OFFCURVE",
"395 288 OFFCURVE",
"395 221 CURVE SMOOTH",
"395 144 OFFCURVE",
"338 109 OFFCURVE",
"258 109 CURVE SMOOTH",
"188 109 OFFCURVE",
"152 135 OFFCURVE",
"152 184 CURVE SMOOTH",
"152 189 OFFCURVE",
"152 194 OFFCURVE",
"154 205 CURVE"
);
}
);
width = 612;
}
);
unicode = 0033;
},
{
glyphname = four;
lastChange = "2014-09-05 18:36:05 +0000";
layers = (
{
background = {
paths = (
{
closed = 1;
nodes = (
"325 278 LINE",
"135 278 LINE",
"203 347 OFFCURVE",
"354 551 OFFCURVE",
"407 696 CURVE",
"266 696 LINE",
"213 570 OFFCURVE",
"107 388 OFFCURVE",
"23 279 CURVE",
"6 160 LINE",
"308 160 LINE",
"286 0 LINE",
"429 0 LINE",
"451 160 LINE",
"543 160 LINE",
"560 278 LINE",
"468 278 LINE",
"515 612 LINE",
"451 612 LINE",
"429 559 OFFCURVE",
"388 480 OFFCURVE",
"346 428 CURVE"
);
}
);
};
layerId = "ED6E45DB-321E-4DDD-9C43-F5B1EDD266A1";
paths = (
{
closed = 1;
nodes = (
"325 278 LINE",
"135 278 LINE",
"203 347 OFFCURVE",
"354 551 OFFCURVE",
"407 696 CURVE",
"266 696 LINE",
"213 570 OFFCURVE",
"107 388 OFFCURVE",
"23 279 CURVE",
"6 160 LINE",
"308 160 LINE",
"286 0 LINE",
"429 0 LINE",
"451 160 LINE",
"543 160 LINE",
"560 278 LINE",
"468 278 LINE",
"515 612 LINE",
"451 612 LINE",
"429 559 OFFCURVE",
"388 480 OFFCURVE",
"346 428 CURVE"
);
}
);
width = 612;
}
);
unicode = 0034;
},
{
glyphname = five;
lastChange = "2014-09-05 18:36:05 +0000";
layers = (
{
background = {
paths = (
{
closed = 1;
nodes = (
"190 287 LINE",
"212 311 OFFCURVE",
"247 339 OFFCURVE",
"301 339 CURVE SMOOTH",
"305 339 LINE SMOOTH",
"360 339 OFFCURVE",
"398 295 OFFCURVE",
"398 246 CURVE SMOOTH",
"398 151 OFFCURVE",
"330 111 OFFCURVE",
"266 111 CURVE SMOOTH",
"214 111 OFFCURVE",
"167 147 OFFCURVE",
"167 205 CURVE SMOOTH",
"167 210 OFFCURVE",
"167 214 OFFCURVE",
"168 219 CURVE",
"31 219 LINE",
"29 208 OFFCURVE",
"29 197 OFFCURVE",
"29 186 CURVE SMOOTH",
"29 75 OFFCURVE",
"109 -10 OFFCURVE",
"248 -10 CURVE SMOOTH",
"263 -10 LINE SMOOTH",
"429 -10 OFFCURVE",
"547 100 OFFCURVE",
"547 267 CURVE SMOOTH",
"547 375 OFFCURVE",
"483 453 OFFCURVE",
"357 453 CURVE SMOOTH",
"290 453 OFFCURVE",
"238 420 OFFCURVE",
"217 405 CURVE",
"250 556 LINE",
"547 556 LINE",
"565 686 LINE",
"152 686 LINE",
"71 305 LINE"
);
}
);
};
layerId = "ED6E45DB-321E-4DDD-9C43-F5B1EDD266A1";
paths = (
{
closed = 1;
nodes = (
"190 287 LINE",
"212 311 OFFCURVE",
"247 339 OFFCURVE",
"301 339 CURVE SMOOTH",
"305 339 LINE SMOOTH",
"360 339 OFFCURVE",
"398 295 OFFCURVE",
"398 246 CURVE SMOOTH",
"398 151 OFFCURVE",
"330 111 OFFCURVE",
"266 111 CURVE SMOOTH",
"214 111 OFFCURVE",
"167 147 OFFCURVE",
"167 205 CURVE SMOOTH",
"167 210 OFFCURVE",
"167 214 OFFCURVE",
"168 219 CURVE",
"31 219 LINE",
"29 208 OFFCURVE",
"29 197 OFFCURVE",
"29 186 CURVE SMOOTH",
"29 75 OFFCURVE",
"109 -10 OFFCURVE",
"248 -10 CURVE SMOOTH",
"263 -10 LINE SMOOTH",
"429 -10 OFFCURVE",
"547 100 OFFCURVE",
"547 267 CURVE SMOOTH",
"547 375 OFFCURVE",
"483 453 OFFCURVE",
"357 453 CURVE SMOOTH",
"290 453 OFFCURVE",
"238 420 OFFCURVE",
"217 405 CURVE",
"250 556 LINE",
"547 556 LINE",
"565 686 LINE",
"152 686 LINE",
"71 305 LINE"
);
}
);
width = 612;
}
);
unicode = 0035;
},
{
glyphname = six;
lastChange = "2014-09-05 18:36:05 +0000";
layers = (
{
background = {
paths = (
{
closed = 1;
nodes = (
"395 576 OFFCURVE",
"427 535 OFFCURVE",
"427 486 CURVE SMOOTH",
"427 480 OFFCURVE",
"427 475 OFFCURVE",
"426 469 CURVE",
"564 469 LINE",
"566 483 OFFCURVE",
"567 496 OFFCURVE",
"567 508 CURVE SMOOTH",
"567 629 OFFCURVE",
"479 696 OFFCURVE",
"360 696 CURVE SMOOTH",
"346 696 LINE SMOOTH",
"210 696 OFFCURVE",
"86 591 OFFCURVE",
"67 455 CURVE SMOOTH",
"34 218 OFFCURVE",
"33 210 OFFCURVE",
"33 194 CURVE SMOOTH",
"33 70 OFFCURVE",
"125 -10 OFFCURVE",
"250 -10 CURVE SMOOTH",
"264 -10 LINE SMOOTH",
"421 -10 OFFCURVE",
"546 94 OFFCURVE",
"546 258 CURVE SMOOTH",
"546 368 OFFCURVE",
"463 434 OFFCURVE",
"351 434 CURVE SMOOTH",
"301 434 OFFCURVE",
"245 414 OFFCURVE",
"203 375 CURVE",
"217 472 LINE SMOOTH",
"225 531 OFFCURVE",
"280 576 OFFCURVE",
"339 576 CURVE SMOOTH"
);
},
{
closed = 1;
nodes = (
"391 147 OFFCURVE",
"332 104 OFFCURVE",
"275 104 CURVE SMOOTH",
"219 104 OFFCURVE",
"179 139 OFFCURVE",
"179 192 CURVE SMOOTH",
"179 197 OFFCURVE",
"179 202 OFFCURVE",
"182 228 CURVE SMOOTH",
"188 289 OFFCURVE",
"247 332 OFFCURVE",
"304 332 CURVE SMOOTH",
"360 332 OFFCURVE",
"400 296 OFFCURVE",
"400 244 CURVE SMOOTH",
"400 239 OFFCURVE",
"400 233 OFFCURVE",
"397 208 CURVE SMOOTH"
);
}
);
};
layerId = "ED6E45DB-321E-4DDD-9C43-F5B1EDD266A1";
paths = (
{
closed = 1;
nodes = (
"395 576 OFFCURVE",
"427 535 OFFCURVE",
"427 486 CURVE SMOOTH",
"427 480 OFFCURVE",
"427 475 OFFCURVE",
"426 469 CURVE",
"564 469 LINE",
"566 483 OFFCURVE",
"567 496 OFFCURVE",
"567 508 CURVE SMOOTH",
"567 629 OFFCURVE",
"479 696 OFFCURVE",
"360 696 CURVE SMOOTH",
"346 696 LINE SMOOTH",
"210 696 OFFCURVE",
"86 591 OFFCURVE",
"67 455 CURVE SMOOTH",
"34 218 OFFCURVE",
"33 210 OFFCURVE",
"33 194 CURVE SMOOTH",
"33 70 OFFCURVE",
"125 -10 OFFCURVE",
"250 -10 CURVE SMOOTH",
"264 -10 LINE SMOOTH",
"421 -10 OFFCURVE",
"546 94 OFFCURVE",
"546 258 CURVE SMOOTH",
"546 368 OFFCURVE",
"463 434 OFFCURVE",
"351 434 CURVE SMOOTH",
"301 434 OFFCURVE",
"245 414 OFFCURVE",
"203 375 CURVE",
"217 472 LINE SMOOTH",
"225 531 OFFCURVE",
"280 576 OFFCURVE",
"339 576 CURVE SMOOTH"
);
},
{
closed = 1;
nodes = (
"391 147 OFFCURVE",
"332 104 OFFCURVE",
"275 104 CURVE SMOOTH",
"219 104 OFFCURVE",
"179 139 OFFCURVE",
"179 192 CURVE SMOOTH",
"179 197 OFFCURVE",
"179 202 OFFCURVE",
"182 228 CURVE SMOOTH",
"188 289 OFFCURVE",
"247 332 OFFCURVE",
"304 332 CURVE SMOOTH",
"360 332 OFFCURVE",
"400 296 OFFCURVE",
"400 244 CURVE SMOOTH",
"400 239 OFFCURVE",
"400 233 OFFCURVE",
"397 208 CURVE SMOOTH"
);
}
);
width = 612;
}
);
unicode = 0036;
},
{
glyphname = seven;
lastChange = "2014-09-05 18:36:05 +0000";
layers = (
{
background = {
paths = (
{
closed = 1;
nodes = (
"610 686 LINE",
"114 686 LINE",
"95 555 LINE",
"420 555 LINE",
"287 411 OFFCURVE",
"135 213 OFFCURVE",
"105 0 CURVE",
"273 0 LINE",
"274 12 OFFCURVE",
"279 45 OFFCURVE",
"280 55 CURVE",
"310 267 OFFCURVE",
"462 464 OFFCURVE",
"600 614 CURVE"
);
}
);
};
layerId = "ED6E45DB-321E-4DDD-9C43-F5B1EDD266A1";
paths = (
{
closed = 1;
nodes = (
"610 686 LINE",
"114 686 LINE",
"95 555 LINE",
"420 555 LINE",
"287 411 OFFCURVE",
"135 213 OFFCURVE",
"105 0 CURVE",
"273 0 LINE",
"274 12 OFFCURVE",
"279 45 OFFCURVE",
"280 55 CURVE",
"310 267 OFFCURVE",
"462 464 OFFCURVE",
"600 614 CURVE"
);
}
);
width = 612;
}
);
unicode = 0037;
},
{
glyphname = eight;
lastChange = "2014-09-05 18:36:05 +0000";
layers = (
{
background = {
paths = (
{
closed = 1;
nodes = (
"453 352 LINE",
"509 387 OFFCURVE",
"562 430 OFFCURVE",
"562 529 CURVE SMOOTH",
"562 636 OFFCURVE",
"476 696 OFFCURVE",
"355 696 CURVE SMOOTH",
"213 696 OFFCURVE",
"93 613 OFFCURVE",
"93 468 CURVE SMOOTH",
"93 410 OFFCURVE",
"122 380 OFFCURVE",
"161 352 CURVE",
"160 348 LINE",
"86 312 OFFCURVE",
"27 262 OFFCURVE",
"27 157 CURVE SMOOTH",
"27 50 OFFCURVE",
"118 -10 OFFCURVE",
"256 -10 CURVE SMOOTH",
"422 -10 OFFCURVE",
"541 72 OFFCURVE",
"541 216 CURVE SMOOTH",
"541 283 OFFCURVE",
"505 318 OFFCURVE",
"452 348 CURVE"
);
},
{
closed = 1;
nodes = (
"391 586 OFFCURVE",
"423 553 OFFCURVE",
"423 511 CURVE SMOOTH",
"423 447 OFFCURVE",
"379 399 OFFCURVE",
"313 399 CURVE SMOOTH",
"262 399 OFFCURVE",
"230 431 OFFCURVE",
"230 474 CURVE SMOOTH",
"230 539 OFFCURVE",
"275 586 OFFCURVE",
"340 586 CURVE SMOOTH"
);
},
{
closed = 1;
nodes = (
"353 300 OFFCURVE",
"394 271 OFFCURVE",
"394 221 CURVE SMOOTH",
"394 149 OFFCURVE",
"345 100 OFFCURVE",
"271 100 CURVE SMOOTH",
"217 100 OFFCURVE",
"177 129 OFFCURVE",
"177 178 CURVE SMOOTH",
"177 251 OFFCURVE",
"226 300 OFFCURVE",
"299 300 CURVE SMOOTH"
);
}
);
};
layerId = "ED6E45DB-321E-4DDD-9C43-F5B1EDD266A1";
paths = (
{
closed = 1;
nodes = (
"453 352 LINE",
"509 387 OFFCURVE",
"562 430 OFFCURVE",
"562 529 CURVE SMOOTH",
"562 636 OFFCURVE",
"476 696 OFFCURVE",
"355 696 CURVE SMOOTH",
"213 696 OFFCURVE",
"93 613 OFFCURVE",
"93 468 CURVE SMOOTH",
"93 410 OFFCURVE",
"122 380 OFFCURVE",
"161 352 CURVE",
"160 348 LINE",
"86 312 OFFCURVE",
"27 262 OFFCURVE",
"27 157 CURVE SMOOTH",
"27 50 OFFCURVE",
"118 -10 OFFCURVE",
"256 -10 CURVE SMOOTH",
"422 -10 OFFCURVE",
"541 72 OFFCURVE",
"541 216 CURVE SMOOTH",
"541 283 OFFCURVE",
"505 318 OFFCURVE",
"452 348 CURVE"
);
},
{
closed = 1;
nodes = (
"391 586 OFFCURVE",
"423 553 OFFCURVE",
"423 511 CURVE SMOOTH",
"423 447 OFFCURVE",
"379 399 OFFCURVE",
"313 399 CURVE SMOOTH",
"262 399 OFFCURVE",
"230 431 OFFCURVE",
"230 474 CURVE SMOOTH",
"230 539 OFFCURVE",
"275 586 OFFCURVE",
"340 586 CURVE SMOOTH"
);
},
{
closed = 1;
nodes = (
"353 300 OFFCURVE",
"394 271 OFFCURVE",
"394 221 CURVE SMOOTH",
"394 149 OFFCURVE",
"345 100 OFFCURVE",
"271 100 CURVE SMOOTH",
"217 100 OFFCURVE",
"177 129 OFFCURVE",
"177 178 CURVE SMOOTH",
"177 251 OFFCURVE",
"226 300 OFFCURVE",
"299 300 CURVE SMOOTH"
);
}
);
width = 612;
}
);
unicode = 0038;
},
{
glyphname = nine;
lastChange = "2014-09-05 18:36:05 +0000";
layers = (
{
background = {
paths = (
{
closed = 1;
nodes = (
"216 110 OFFCURVE",
"184 151 OFFCURVE",
"184 200 CURVE SMOOTH",
"184 206 OFFCURVE",
"184 211 OFFCURVE",
"185 217 CURVE",
"47 217 LINE",
"45 203 OFFCURVE",
"44 190 OFFCURVE",
"44 178 CURVE SMOOTH",
"44 57 OFFCURVE",
"132 -10 OFFCURVE",
"251 -10 CURVE SMOOTH",
"265 -10 LINE SMOOTH",
"401 -10 OFFCURVE",
"525 95 OFFCURVE",
"544 231 CURVE SMOOTH",
"577 468 OFFCURVE",
"578 476 OFFCURVE",
"578 492 CURVE SMOOTH",
"578 616 OFFCURVE",
"486 696 OFFCURVE",
"361 696 CURVE SMOOTH",
"347 696 LINE SMOOTH",
"190 696 OFFCURVE",
"65 592 OFFCURVE",
"65 428 CURVE SMOOTH",
"65 318 OFFCURVE",
"148 252 OFFCURVE",
"260 252 CURVE SMOOTH",
"310 252 OFFCURVE",
"366 272 OFFCURVE",
"408 311 CURVE",
"394 214 LINE SMOOTH",
"386 155 OFFCURVE",
"331 110 OFFCURVE",
"272 110 CURVE SMOOTH"
);
},
{
closed = 1;
nodes = (
"220 539 OFFCURVE",
"279 582 OFFCURVE",
"336 582 CURVE SMOOTH",
"392 582 OFFCURVE",
"432 547 OFFCURVE",
"432 494 CURVE SMOOTH",
"432 489 OFFCURVE",
"432 484 OFFCURVE",
"429 458 CURVE SMOOTH",
"423 397 OFFCURVE",
"364 354 OFFCURVE",
"307 354 CURVE SMOOTH",
"251 354 OFFCURVE",
"211 390 OFFCURVE",
"211 442 CURVE SMOOTH",
"211 447 OFFCURVE",
"211 453 OFFCURVE",
"214 478 CURVE SMOOTH"
);
}
);
};
layerId = "ED6E45DB-321E-4DDD-9C43-F5B1EDD266A1";
paths = (
{
closed = 1;
nodes = (
"216 110 OFFCURVE",
"184 151 OFFCURVE",
"184 200 CURVE SMOOTH",
"184 206 OFFCURVE",
"184 211 OFFCURVE",
"185 217 CURVE",
"47 217 LINE",
"45 203 OFFCURVE",
"44 190 OFFCURVE",
"44 178 CURVE SMOOTH",
"44 57 OFFCURVE",
"132 -10 OFFCURVE",
"251 -10 CURVE SMOOTH",
"265 -10 LINE SMOOTH",
"401 -10 OFFCURVE",
"525 95 OFFCURVE",
"544 231 CURVE SMOOTH",
"577 468 OFFCURVE",
"578 476 OFFCURVE",
"578 492 CURVE SMOOTH",
"578 616 OFFCURVE",
"486 696 OFFCURVE",
"361 696 CURVE SMOOTH",
"347 696 LINE SMOOTH",
"190 696 OFFCURVE",
"65 592 OFFCURVE",
"65 428 CURVE SMOOTH",
"65 318 OFFCURVE",
"148 252 OFFCURVE",
"260 252 CURVE SMOOTH",
"310 252 OFFCURVE",
"366 272 OFFCURVE",
"408 311 CURVE",
"394 214 LINE SMOOTH",
"386 155 OFFCURVE",
"331 110 OFFCURVE",
"272 110 CURVE SMOOTH"
);
},
{
closed = 1;
nodes = (
"220 539 OFFCURVE",
"279 582 OFFCURVE",
"336 582 CURVE SMOOTH",
"392 582 OFFCURVE",
"432 547 OFFCURVE",
"432 494 CURVE SMOOTH",
"432 489 OFFCURVE",
"432 484 OFFCURVE",
"429 458 CURVE SMOOTH",
"423 397 OFFCURVE",
"364 354 OFFCURVE",
"307 354 CURVE SMOOTH",
"251 354 OFFCURVE",
"211 390 OFFCURVE",
"211 442 CURVE SMOOTH",
"211 447 OFFCURVE",
"211 453 OFFCURVE",
"214 478 CURVE SMOOTH"
);
}
);
width = 612;
}
);
unicode = 0039;
},
{
glyphname = colon;
lastChange = "2014-09-05 18:36:05 +0000";
layers = (
{
background = {
paths = (
{
closed = 1;
nodes = (
"29 0 LINE",
"175 0 LINE",
"195 147 LINE",
"49 147 LINE"
);
},
{
closed = 1;
nodes = (
"80 363 LINE",
"226 363 LINE",
"246 511 LINE",
"100 511 LINE"
);
}
);
};
layerId = "ED6E45DB-321E-4DDD-9C43-F5B1EDD266A1";
paths = (
{
closed = 1;
nodes = (
"29 0 LINE",
"175 0 LINE",
"195 147 LINE",
"49 147 LINE"
);
},
{
closed = 1;
nodes = (
"80 363 LINE",
"226 363 LINE",
"246 511 LINE",
"100 511 LINE"
);
}
);
width = 277;
}
);
unicode = 003A;
},
{
glyphname = semicolon;
lastChange = "2014-09-05 18:36:05 +0000";
layers = (
{
background = {
paths = (
{
closed = 1;
nodes = (
"90 363 LINE",
"236 363 LINE",
"257 511 LINE",
"111 511 LINE"
);
},
{
closed = 1;
nodes = (
"122 -144 LINE",
"188 24 LINE",
"205 147 LINE",
"59 147 LINE",
"39 0 LINE",
"102 0 LINE",
"84 -48 OFFCURVE",
"66 -96 OFFCURVE",
"49 -144 CURVE"
);
}
);
};
layerId = "ED6E45DB-321E-4DDD-9C43-F5B1EDD266A1";
paths = (
{
closed = 1;
nodes = (
"90 363 LINE",
"236 363 LINE",
"257 511 LINE",
"111 511 LINE"
);
},
{
closed = 1;
nodes = (
"122 -144 LINE",
"188 24 LINE",
"205 147 LINE",
"59 147 LINE",
"39 0 LINE",
"102 0 LINE",
"84 -48 OFFCURVE",
"66 -96 OFFCURVE",
"49 -144 CURVE"
);
}
);
width = 277;
}
);
unicode = 003B;
},
{
glyphname = less;
lastChange = "2014-09-05 18:36:05 +0000";
layers = (
{
background = {
paths = (
{
closed = 1;
nodes = (
"36 192 LINE",
"197 127 OFFCURVE",
"356 61 OFFCURVE",
"517 -3 CURVE",
"533 110 LINE",
"164 254 LINE",
"574 398 LINE",
"590 512 LINE",
"53 315 LINE"
);
}
);
};
layerId = "ED6E45DB-321E-4DDD-9C43-F5B1EDD266A1";
paths = (
{
closed = 1;
nodes = (
"36 192 LINE",
"197 127 OFFCURVE",
"356 61 OFFCURVE",
"517 -3 CURVE",
"533 110 LINE",
"164 254 LINE",
"574 398 LINE",
"590 512 LINE",
"53 315 LINE"
);
}
);
width = 599;
}
);
unicode = 003C;
},
{
glyphname = equal;
lastChange = "2014-09-05 18:36:05 +0000";
layers = (
{
background = {
paths = (
{
closed = 1;
nodes = (
"561 309 LINE",
"576 415 LINE",
"68 415 LINE",
"53 309 LINE"
);
},
{
closed = 1;
nodes = (
"531 93 LINE",
"546 199 LINE",
"38 199 LINE",
"23 93 LINE"
);
}
);
};
layerId = "ED6E45DB-321E-4DDD-9C43-F5B1EDD266A1";
paths = (
{
closed = 1;
nodes = (
"561 309 LINE",
"576 415 LINE",
"68 415 LINE",
"53 309 LINE"
);
},
{
closed = 1;
nodes = (
"531 93 LINE",
"546 199 LINE",
"38 199 LINE",
"23 93 LINE"
);
}
);
width = 600;
}
);
unicode = 003D;
},
{
glyphname = greater;
lastChange = "2014-09-05 18:36:05 +0000";
layers = (
{
background = {
paths = (
{
closed = 1;
nodes = (
"562 315 LINE",
"81 512 LINE",
"65 398 LINE",
"187 349 OFFCURVE",
"309 302 OFFCURVE",
"432 254 CURVE",
"24 110 LINE",
"8 -3 LINE",
"187 61 OFFCURVE",
"366 127 OFFCURVE",
"545 192 CURVE"
);
}
);
};
layerId = "ED6E45DB-321E-4DDD-9C43-F5B1EDD266A1";
paths = (
{
closed = 1;
nodes = (
"562 315 LINE",
"81 512 LINE",
"65 398 LINE",
"187 349 OFFCURVE",
"309 302 OFFCURVE",
"432 254 CURVE",
"24 110 LINE",
"8 -3 LINE",
"187 61 OFFCURVE",
"366 127 OFFCURVE",
"545 192 CURVE"
);
}
);
width = 600;
}
);
unicode = 003E;
},
{
glyphname = question;
lastChange = "2014-09-05 18:36:05 +0000";
layers = (
{
background = {
paths = (
{
closed = 1;
nodes = (
"314 0 LINE",
"320 49 OFFCURVE",
"327 98 OFFCURVE",
"334 147 CURVE",
"186 147 LINE",
"180 98 OFFCURVE",
"173 49 OFFCURVE",
"166 0 CURVE"
);
},
{
closed = 1;
nodes = (
"338 237 LINE SMOOTH",
"348 310 OFFCURVE",
"538 337 OFFCURVE",
"538 516 CURVE SMOOTH",
"538 605 OFFCURVE",
"473 696 OFFCURVE",
"340 696 CURVE SMOOTH",
"318 696 LINE SMOOTH",
"165 696 OFFCURVE",
"52 599 OFFCURVE",
"52 452 CURVE",
"193 452 LINE",
"195 515 OFFCURVE",
"217 582 OFFCURVE",
"302 582 CURVE SMOOTH",
"356 582 OFFCURVE",
"383 542 OFFCURVE",
"383 504 CURVE SMOOTH",
"382 393 OFFCURVE",
"221 362 OFFCURVE",
"207 263 CURVE SMOOTH",
"198 201 LINE",
"333 201 LINE"
);
}
);
};
layerId = "ED6E45DB-321E-4DDD-9C43-F5B1EDD266A1";
paths = (
{
closed = 1;
nodes = (
"314 0 LINE",
"320 49 OFFCURVE",
"327 98 OFFCURVE",
"334 147 CURVE",
"186 147 LINE",
"180 98 OFFCURVE",
"173 49 OFFCURVE",
"166 0 CURVE"
);
},
{
closed = 1;
nodes = (
"338 237 LINE SMOOTH",
"348 310 OFFCURVE",
"538 337 OFFCURVE",
"538 516 CURVE SMOOTH",
"538 605 OFFCURVE",
"473 696 OFFCURVE",
"340 696 CURVE SMOOTH",
"318 696 LINE SMOOTH",
"165 696 OFFCURVE",
"52 599 OFFCURVE",
"52 452 CURVE",
"193 452 LINE",
"195 515 OFFCURVE",
"217 582 OFFCURVE",
"302 582 CURVE SMOOTH",
"356 582 OFFCURVE",
"383 542 OFFCURVE",
"383 504 CURVE SMOOTH",
"382 393 OFFCURVE",
"221 362 OFFCURVE",
"207 263 CURVE SMOOTH",
"198 201 LINE",
"333 201 LINE"
);
}
);
width = 572;
}
);
unicode = 003F;
},
{
glyphname = at;
lastChange = "2014-09-05 18:36:05 +0000";
layers = (
{
background = {
paths = (
{
closed = 1;
nodes = (
"535 152 OFFCURVE",
"481 114 OFFCURVE",
"431 114 CURVE SMOOTH",
"387 114 OFFCURVE",
"360 126 OFFCURVE",
"360 166 CURVE SMOOTH",
"360 224 OFFCURVE",
"430 247 OFFCURVE",
"549 247 CURVE",
"549 247 OFFCURVE",
"547 227 OFFCURVE",
"545 217 CURVE"
);
},
{
closed = 1;
nodes = (
"702 471 OFFCURVE",
"642 521 OFFCURVE",
"515 521 CURVE SMOOTH",
"495 521 LINE SMOOTH",
"360 521 OFFCURVE",
"264 453 OFFCURVE",
"264 364 CURVE",
"396 364 LINE",
"396 379 OFFCURVE",
"415 431 OFFCURVE",
"489 431 CURVE SMOOTH",
"546 431 OFFCURVE",
"566 406 OFFCURVE",
"566 375 CURVE SMOOTH",
"566 366 OFFCURVE",
"563 349 OFFCURVE",
"560 324 CURVE",
"364 324 OFFCURVE",
"217 298 OFFCURVE",
"217 147 CURVE SMOOTH",
"217 48 OFFCURVE",
"287 22 OFFCURVE",
"363 22 CURVE SMOOTH",
"440 22 OFFCURVE",
"488 56 OFFCURVE",
"536 104 CURVE",
"542 47 OFFCURVE",
"577 22 OFFCURVE",
"639 22 CURVE SMOOTH",
"780 22 OFFCURVE",
"890 176 OFFCURVE",
"890 396 CURVE SMOOTH",
"890 608 OFFCURVE",
"742 697 OFFCURVE",
"534 697 CURVE SMOOTH",
"242 697 OFFCURVE",
"38 503 OFFCURVE",
"38 165 CURVE SMOOTH",
"38 -55 OFFCURVE",
"167 -153 OFFCURVE",
"380 -153 CURVE SMOOTH",
"423 -153 OFFCURVE",
"504 -142 OFFCURVE",
"549 -126 CURVE",
"558 -63 LINE",
"519 -81 OFFCURVE",
"434 -95 OFFCURVE",
"388 -95 CURVE SMOOTH",
"195 -95 OFFCURVE",
"104 -6 OFFCURVE",
"104 170 CURVE SMOOTH",
"104 481 OFFCURVE",
"285 639 OFFCURVE",
"526 639 CURVE SMOOTH",
"704 639 OFFCURVE",
"823 564 OFFCURVE",
"823 387 CURVE SMOOTH",
"823 268 OFFCURVE",
"780 113 OFFCURVE",
"699 113 CURVE SMOOTH",
"681 113 OFFCURVE",
"669 123 OFFCURVE",
"669 146 CURVE",
"673 194 OFFCURVE",
"702 328 OFFCURVE",
"702 394 CURVE SMOOTH"
);
}
);
};
layerId = "ED6E45DB-321E-4DDD-9C43-F5B1EDD266A1";
paths = (
{
closed = 1;
nodes = (
"535 152 OFFCURVE",
"481 114 OFFCURVE",
"431 114 CURVE SMOOTH",
"387 114 OFFCURVE",
"360 126 OFFCURVE",
"360 166 CURVE SMOOTH",
"360 224 OFFCURVE",
"430 247 OFFCURVE",
"549 247 CURVE",
"549 247 OFFCURVE",
"547 227 OFFCURVE",
"545 217 CURVE"
);
},
{
closed = 1;
nodes = (
"702 471 OFFCURVE",
"642 521 OFFCURVE",
"515 521 CURVE SMOOTH",
"495 521 LINE SMOOTH",
"360 521 OFFCURVE",
"264 453 OFFCURVE",
"264 364 CURVE",
"396 364 LINE",
"396 379 OFFCURVE",
"415 431 OFFCURVE",
"489 431 CURVE SMOOTH",
"546 431 OFFCURVE",
"566 406 OFFCURVE",
"566 375 CURVE SMOOTH",
"566 366 OFFCURVE",
"563 349 OFFCURVE",
"560 324 CURVE",
"364 324 OFFCURVE",
"217 298 OFFCURVE",
"217 147 CURVE SMOOTH",
"217 48 OFFCURVE",
"287 22 OFFCURVE",
"363 22 CURVE SMOOTH",
"440 22 OFFCURVE",
"488 56 OFFCURVE",
"536 104 CURVE",
"542 47 OFFCURVE",
"577 22 OFFCURVE",
"639 22 CURVE SMOOTH",
"780 22 OFFCURVE",
"890 176 OFFCURVE",
"890 396 CURVE SMOOTH",
"890 608 OFFCURVE",
"742 697 OFFCURVE",
"534 697 CURVE SMOOTH",
"242 697 OFFCURVE",
"38 503 OFFCURVE",
"38 165 CURVE SMOOTH",
"38 -55 OFFCURVE",
"167 -153 OFFCURVE",
"380 -153 CURVE SMOOTH",
"423 -153 OFFCURVE",
"504 -142 OFFCURVE",
"549 -126 CURVE",
"558 -63 LINE",
"519 -81 OFFCURVE",
"434 -95 OFFCURVE",
"388 -95 CURVE SMOOTH",
"195 -95 OFFCURVE",
"104 -6 OFFCURVE",
"104 170 CURVE SMOOTH",
"104 481 OFFCURVE",
"285 639 OFFCURVE",
"526 639 CURVE SMOOTH",
"704 639 OFFCURVE",
"823 564 OFFCURVE",
"823 387 CURVE SMOOTH",
"823 268 OFFCURVE",
"780 113 OFFCURVE",
"699 113 CURVE SMOOTH",
"681 113 OFFCURVE",
"669 123 OFFCURVE",
"669 146 CURVE",
"673 194 OFFCURVE",
"702 328 OFFCURVE",
"702 394 CURVE SMOOTH"
);
}
);
width = 927;
}
);
unicode = 0040;
},
{
glyphname = A;
lastChange = "2014-09-05 18:52:20 +0000";
layers = (
{
anchors = (
{
name = ogonek;
position = "{611, 10}";
},
{
name = top;
position = "{404, 686}";
}
);
background = {
anchors = (
{
name = ogonek;
position = "{581, 10}";
},
{
name = top;
position = "{404, 686}";
}
);
paths = (
{
closed = 1;
nodes = (
"473 0 LINE",
"635 0 LINE",
"483 686 LINE",
"299 686 LINE",
"-46 0 LINE",
"102 0 LINE",
"169 135 LINE",
"442 135 LINE"
);
},
{
closed = 1;
nodes = (
"364 521 LINE",
"382 432 OFFCURVE",
"400 342 OFFCURVE",
"418 252 CURVE",
"228 252 LINE",
"271 342 OFFCURVE",
"315 432 OFFCURVE",
"359 521 CURVE"
);
}
);
};
layerId = "ED6E45DB-321E-4DDD-9C43-F5B1EDD266A1";
paths = (
{
closed = 1;
nodes = (
"473 0 LINE",
"635 0 LINE",
"483 686 LINE",
"299 686 LINE",
"-46 0 LINE",
"102 0 LINE",
"169 135 LINE",
"442 135 LINE"
);
},
{
closed = 1;
nodes = (
"364 521 LINE",
"382 432 OFFCURVE",
"400 342 OFFCURVE",
"418 252 CURVE",
"228 252 LINE",
"271 342 OFFCURVE",
"315 432 OFFCURVE",
"359 521 CURVE"
);
}
);
width = 686;
}
);
unicode = 0041;
},
{
glyphname = B;
lastChange = "2014-09-05 18:36:05 +0000";
layers = (
{
background = {
paths = (
{
closed = 1;
nodes = (
"23 0 LINE",
"369 0 LINE SMOOTH",
"495 0 OFFCURVE",
"587 95 OFFCURVE",
"587 216 CURVE SMOOTH",
"587 307 OFFCURVE",
"527 341 OFFCURVE",
"475 352 CURVE",
"476 359 LINE",
"537 375 OFFCURVE",
"617 424 OFFCURVE",
"617 540 CURVE SMOOTH",
"617 626 OFFCURVE",
"547 686 OFFCURVE",
"454 686 CURVE SMOOTH",
"120 686 LINE"
);
},
{
closed = 1;
nodes = (
"226 408 LINE",
"233 462 OFFCURVE",
"241 515 OFFCURVE",
"248 568 CURVE",
"399 568 LINE SMOOTH",
"437 568 OFFCURVE",
"465 547 OFFCURVE",
"465 503 CURVE SMOOTH",
"465 454 OFFCURVE",
"426 408 OFFCURVE",
"377 408 CURVE SMOOTH"
);
},
{
closed = 1;
nodes = (
"186 124 LINE",
"194 179 OFFCURVE",
"202 235 OFFCURVE",
"209 291 CURVE",
"371 291 LINE SMOOTH",
"411 291 OFFCURVE",
"439 258 OFFCURVE",
"439 221 CURVE SMOOTH",
"439 158 OFFCURVE",
"398 124 OFFCURVE",
"348 124 CURVE SMOOTH"
);
}
);
};
layerId = "ED6E45DB-321E-4DDD-9C43-F5B1EDD266A1";
paths = (
{
closed = 1;
nodes = (
"23 0 LINE",
"369 0 LINE SMOOTH",
"495 0 OFFCURVE",
"587 95 OFFCURVE",
"587 216 CURVE SMOOTH",
"587 307 OFFCURVE",
"527 341 OFFCURVE",
"475 352 CURVE",
"476 359 LINE",
"537 375 OFFCURVE",
"617 424 OFFCURVE",
"617 540 CURVE SMOOTH",
"617 626 OFFCURVE",
"547 686 OFFCURVE",
"454 686 CURVE SMOOTH",
"120 686 LINE"
);
},
{
closed = 1;
nodes = (
"226 408 LINE",
"233 462 OFFCURVE",
"241 515 OFFCURVE",
"248 568 CURVE",
"399 568 LINE SMOOTH",
"437 568 OFFCURVE",
"465 547 OFFCURVE",
"465 503 CURVE SMOOTH",
"465 454 OFFCURVE",
"426 408 OFFCURVE",
"377 408 CURVE SMOOTH"
);
},
{
closed = 1;
nodes = (
"186 124 LINE",
"194 179 OFFCURVE",
"202 235 OFFCURVE",
"209 291 CURVE",
"371 291 LINE SMOOTH",
"411 291 OFFCURVE",
"439 258 OFFCURVE",
"439 221 CURVE SMOOTH",
"439 158 OFFCURVE",
"398 124 OFFCURVE",
"348 124 CURVE SMOOTH"
);
}
);
width = 645;
}
);
unicode = 0042;
},
{
glyphname = C;
lastChange = "2014-09-05 18:36:05 +0000";
layers = (
{
anchors = (
{
name = bottom;
position = "{306, 0}";
},
{
name = top;
position = "{403, 686}";
}
);
background = {
anchors = (
{
name = bottom;
position = "{306, 0}";
},
{
name = top;
position = "{403, 686}";
}
);
paths = (
{
closed = 1;
nodes = (
"483 270 LINE",
"468 165 OFFCURVE",
"416 113 OFFCURVE",
"325 113 CURVE SMOOTH",
"247 113 OFFCURVE",
"196 151 OFFCURVE",
"196 240 CURVE SMOOTH",
"196 270 OFFCURVE",
"202 303 OFFCURVE",
"214 382 CURVE SMOOTH",
"231 498 OFFCURVE",
"269 573 OFFCURVE",
"384 573 CURVE SMOOTH",
"454 573 OFFCURVE",
"501 531 OFFCURVE",
"501 457 CURVE SMOOTH",
"501 453 LINE",
"500 440 OFFCURVE",
"499 427 OFFCURVE",
"497 414 CURVE",
"644 414 LINE",
"647 433 OFFCURVE",
"648 451 OFFCURVE",
"648 468 CURVE SMOOTH",
"648 620 OFFCURVE",
"546 696 OFFCURVE",
"406 696 CURVE SMOOTH",
"392 696 LINE SMOOTH",
"214 696 OFFCURVE",
"81 586 OFFCURVE",
"54 392 CURVE SMOOTH",
"38 277 OFFCURVE",
"35 255 OFFCURVE",
"35 237 CURVE SMOOTH",
"35 75 OFFCURVE",
"144 -10 OFFCURVE",
"297 -10 CURVE SMOOTH",
"311 -10 LINE SMOOTH",
"480 -10 OFFCURVE",
"598 88 OFFCURVE",
"624 270 CURVE"
);
}
);
};
layerId = "ED6E45DB-321E-4DDD-9C43-F5B1EDD266A1";
paths = (
{
closed = 1;
nodes = (
"483 270 LINE",
"468 165 OFFCURVE",
"416 113 OFFCURVE",
"325 113 CURVE SMOOTH",
"247 113 OFFCURVE",
"196 151 OFFCURVE",
"196 240 CURVE SMOOTH",
"196 270 OFFCURVE",
"202 303 OFFCURVE",
"214 382 CURVE SMOOTH",
"231 498 OFFCURVE",
"269 573 OFFCURVE",
"384 573 CURVE SMOOTH",
"454 573 OFFCURVE",
"501 531 OFFCURVE",
"501 457 CURVE SMOOTH",
"501 453 LINE",
"500 440 OFFCURVE",
"499 427 OFFCURVE",
"497 414 CURVE",
"644 414 LINE",
"647 433 OFFCURVE",
"648 451 OFFCURVE",
"648 468 CURVE SMOOTH",
"648 620 OFFCURVE",
"546 696 OFFCURVE",
"406 696 CURVE SMOOTH",
"392 696 LINE SMOOTH",
"214 696 OFFCURVE",
"81 586 OFFCURVE",
"54 392 CURVE SMOOTH",
"38 277 OFFCURVE",
"35 255 OFFCURVE",
"35 237 CURVE SMOOTH",
"35 75 OFFCURVE",
"144 -10 OFFCURVE",
"297 -10 CURVE SMOOTH",
"311 -10 LINE SMOOTH",
"480 -10 OFFCURVE",
"598 88 OFFCURVE",
"624 270 CURVE"
);
}
);
width = 683;
}
);
unicode = 0043;
},
{
glyphname = D;
lastChange = "2014-09-05 18:36:05 +0000";
layers = (
{
anchors = (
{
name = center;
position = "{367, 343}";
},
{
name = top;
position = "{404, 686}";
}
);
background = {
anchors = (
{
name = center;
position = "{367, 343}";
},
{
name = top;
position = "{404, 686}";
}
);
paths = (
{
closed = 1;
nodes = (
"23 0 LINE",
"268 0 LINE SMOOTH",
"478 0 OFFCURVE",
"602 98 OFFCURVE",
"630 294 CURVE SMOOTH",
"647 409 OFFCURVE",
"648 416 OFFCURVE",
"648 443 CURVE SMOOTH",
"648 593 OFFCURVE",
"541 686 OFFCURVE",
"395 686 CURVE SMOOTH",
"120 686 LINE"
);
},
{
closed = 1;
nodes = (
"257 563 LINE",
"363 563 LINE SMOOTH",
"437 563 OFFCURVE",
"488 520 OFFCURVE",
"488 449 CURVE SMOOTH",
"488 406 OFFCURVE",
"480 364 OFFCURVE",
"466 272 CURVE SMOOTH",
"451 174 OFFCURVE",
"388 123 OFFCURVE",
"301 123 CURVE SMOOTH",
"196 123 LINE"
);
}
);
};
layerId = "ED6E45DB-321E-4DDD-9C43-F5B1EDD266A1";
paths = (
{
closed = 1;
nodes = (
"23 0 LINE",
"268 0 LINE SMOOTH",
"478 0 OFFCURVE",
"602 98 OFFCURVE",
"630 294 CURVE SMOOTH",
"647 409 OFFCURVE",
"648 416 OFFCURVE",
"648 443 CURVE SMOOTH",
"648 593 OFFCURVE",
"541 686 OFFCURVE",
"395 686 CURVE SMOOTH",
"120 686 LINE"
);
},
{
closed = 1;
nodes = (
"257 563 LINE",
"363 563 LINE SMOOTH",
"437 563 OFFCURVE",
"488 520 OFFCURVE",
"488 449 CURVE SMOOTH",
"488 406 OFFCURVE",
"480 364 OFFCURVE",
"466 272 CURVE SMOOTH",
"451 174 OFFCURVE",
"388 123 OFFCURVE",
"301 123 CURVE SMOOTH",
"196 123 LINE"
);
}
);
width = 686;
}
);
unicode = 0044;
},
{
glyphname = E;
lastChange = "2014-09-05 18:36:05 +0000";
layers = (
{
anchors = (
{
name = bottom;
position = "{263, 0}";
},
{
name = ogonek;
position = "{502, 10}";
},
{
name = top;
position = "{360, 686}";
}
);
background = {
anchors = (
{
name = bottom;
position = "{263, 0}";
},
{
name = ogonek;
position = "{502, 10}";
},
{
name = top;
position = "{360, 686}";
}
);
paths = (
{
closed = 1;
nodes = (
"509 0 LINE",
"509 123 LINE",
"193 123 LINE",
"216 290 LINE",
"509 290 LINE",
"526 413 LINE",
"233 413 LINE",
"254 563 LINE",
"568 563 LINE",
"603 686 LINE",
"120 686 LINE",
"23 0 LINE"
);
}
);
};
layerId = "ED6E45DB-321E-4DDD-9C43-F5B1EDD266A1";
paths = (
{
closed = 1;
nodes = (
"509 0 LINE",
"509 123 LINE",
"193 123 LINE",
"216 290 LINE",
"509 290 LINE",
"526 413 LINE",
"233 413 LINE",
"254 563 LINE",
"568 563 LINE",
"603 686 LINE",
"120 686 LINE",
"23 0 LINE"
);
}
);
width = 598;
}
);
unicode = 0045;
},
{
glyphname = F;
lastChange = "2014-09-05 18:36:05 +0000";
layers = (
{
background = {
paths = (
{
closed = 1;
nodes = (
"584 686 LINE",
"120 686 LINE",
"23 0 LINE",
"175 0 LINE",
"214 276 LINE",
"480 276 LINE",
"497 399 LINE",
"231 399 LINE",
"254 563 LINE",
"550 563 LINE"
);
}
);
};
layerId = "ED6E45DB-321E-4DDD-9C43-F5B1EDD266A1";
paths = (
{
closed = 1;
nodes = (
"584 686 LINE",
"120 686 LINE",
"23 0 LINE",
"175 0 LINE",
"214 276 LINE",
"480 276 LINE",
"497 399 LINE",
"231 399 LINE",
"254 563 LINE",
"550 563 LINE"
);
}
);
width = 563;
}
);
unicode = 0046;
},
{
glyphname = G;
lastChange = "2014-09-05 18:36:05 +0000";
layers = (
{
anchors = (
{
name = bottom;
position = "{314, 0}";
},
{
name = top;
position = "{411, 686}";
}
);
background = {
anchors = (
{
name = bottom;
position = "{314, 0}";
},
{
name = top;
position = "{411, 686}";
}
);
paths = (
{
closed = 1;
nodes = (
"590 0 LINE",
"590 47 OFFCURVE",
"597 92 OFFCURVE",
"603 136 CURVE SMOOTH",
"636 373 LINE",
"336 373 LINE",
"320 261 LINE",
"475 261 LINE",
"459 157 OFFCURVE",
"396 113 OFFCURVE",
"318 113 CURVE SMOOTH",
"243 113 OFFCURVE",
"196 160 OFFCURVE",
"196 240 CURVE SMOOTH",
"196 269 OFFCURVE",
"212 412 OFFCURVE",
"246 486 CURVE SMOOTH",
"270 539 OFFCURVE",
"318 573 OFFCURVE",
"383 573 CURVE SMOOTH",
"448 573 OFFCURVE",
"501 544 OFFCURVE",
"501 468 CURVE SMOOTH",
"501 460 OFFCURVE",
"501 451 OFFCURVE",
"500 442 CURVE",
"646 442 LINE",
"647 453 OFFCURVE",
"649 470 OFFCURVE",
"649 484 CURVE SMOOTH",
"649 617 OFFCURVE",
"545 696 OFFCURVE",
"411 696 CURVE SMOOTH",
"397 696 LINE SMOOTH",
"205 696 OFFCURVE",
"80 579 OFFCURVE",
"54 392 CURVE SMOOTH",
"44 321 OFFCURVE",
"36 261 OFFCURVE",
"36 238 CURVE SMOOTH",
"36 84 OFFCURVE",
"134 -10 OFFCURVE",
"281 -10 CURVE SMOOTH",
"286 -10 LINE SMOOTH",
"377 -10 OFFCURVE",
"441 23 OFFCURVE",
"492 77 CURVE",
"496 42 OFFCURVE",
"501 16 OFFCURVE",
"505 0 CURVE"
);
}
);
};
layerId = "ED6E45DB-321E-4DDD-9C43-F5B1EDD266A1";
paths = (
{
closed = 1;
nodes = (
"590 0 LINE",
"590 47 OFFCURVE",
"597 92 OFFCURVE",
"603 136 CURVE SMOOTH",
"636 373 LINE",
"336 373 LINE",
"320 261 LINE",
"475 261 LINE",
"459 157 OFFCURVE",
"396 113 OFFCURVE",
"318 113 CURVE SMOOTH",
"243 113 OFFCURVE",
"196 160 OFFCURVE",
"196 240 CURVE SMOOTH",
"196 269 OFFCURVE",
"212 412 OFFCURVE",
"246 486 CURVE SMOOTH",
"270 539 OFFCURVE",
"318 573 OFFCURVE",
"383 573 CURVE SMOOTH",
"448 573 OFFCURVE",
"501 544 OFFCURVE",
"501 468 CURVE SMOOTH",
"501 460 OFFCURVE",
"501 451 OFFCURVE",
"500 442 CURVE",
"646 442 LINE",
"647 453 OFFCURVE",
"649 470 OFFCURVE",
"649 484 CURVE SMOOTH",
"649 617 OFFCURVE",
"545 696 OFFCURVE",
"411 696 CURVE SMOOTH",
"397 696 LINE SMOOTH",
"205 696 OFFCURVE",
"80 579 OFFCURVE",
"54 392 CURVE SMOOTH",
"44 321 OFFCURVE",
"36 261 OFFCURVE",
"36 238 CURVE SMOOTH",
"36 84 OFFCURVE",
"134 -10 OFFCURVE",
"281 -10 CURVE SMOOTH",
"286 -10 LINE SMOOTH",
"377 -10 OFFCURVE",
"441 23 OFFCURVE",
"492 77 CURVE",
"496 42 OFFCURVE",
"501 16 OFFCURVE",
"505 0 CURVE"
);
}
);
width = 699;
}
);
unicode = 0047;
},
{
glyphname = H;
lastChange = "2014-09-05 18:36:05 +0000";
layers = (
{
anchors = (
{
name = center;
position = "{370, 343}";
},
{
name = top;
position = "{407, 686}";
}
);
background = {
anchors = (
{
name = center;
position = "{370, 343}";
},
{
name = top;
position = "{407, 686}";
}
);
paths = (
{
closed = 1;
nodes = (
"569 0 LINE",
"666 686 LINE",
"512 686 LINE",
"473 414 LINE",
"235 414 LINE",
"274 686 LINE",
"120 686 LINE",
"23 0 LINE",
"178 0 LINE",
"218 286 LINE",
"455 286 LINE",
"415 0 LINE"
);
}
);
};
layerId = "ED6E45DB-321E-4DDD-9C43-F5B1EDD266A1";
paths = (
{
closed = 1;
nodes = (
"569 0 LINE",
"666 686 LINE",
"512 686 LINE",
"473 414 LINE",
"235 414 LINE",
"274 686 LINE",
"120 686 LINE",
"23 0 LINE",
"178 0 LINE",
"218 286 LINE",
"455 286 LINE",
"415 0 LINE"
);
}
);
width = 691;
}
);
unicode = 0048;
},
{
glyphname = I;
lastChange = "2014-09-05 19:19:23 +0000";
layers = (
{
anchors = (
{
name = ogonek;
position = "{319, 10}";
},
{
name = top;
position = "{282, 686}";
}
);
background = {
anchors = (
{
name = ogonek;
position = "{379, 10}";
},
{
name = top;
position = "{292, 686}";
}
);
paths = (
{
closed = 1;
nodes = (
"102 563 LINE",
"183 563 LINE",
"122 123 LINE",
"41 123 LINE",
"23 0 LINE",
"339 0 LINE",
"357 123 LINE",
"277 123 LINE",
"338 563 LINE",
"418 563 LINE",
"436 686 LINE",
"120 686 LINE"
);
}
);
};
layerId = "ED6E45DB-321E-4DDD-9C43-F5B1EDD266A1";
paths = (
{
closed = 1;
nodes = (
"102 563 LINE",
"183 563 LINE",
"122 123 LINE",
"41 123 LINE",
"23 0 LINE",
"339 0 LINE",
"357 123 LINE",
"277 123 LINE",
"338 563 LINE",
"418 563 LINE",
"436 686 LINE",
"120 686 LINE"
);
}
);
width = 461;
}
);
unicode = 0049;
},
{
glyphname = J;
lastChange = "2014-09-05 18:36:05 +0000";
layers = (
{
anchors = (
{
name = top;
position = "{325, 686}";
}
);
background = {
anchors = (
{
name = top;
position = "{325, 686}";
}
);
paths = (
{
closed = 1;
nodes = (
"-5 228 LINE",
"-14 179 OFFCURVE",
"-14 158 OFFCURVE",
"-14 147 CURVE SMOOTH",
"-14 44 OFFCURVE",
"77 -10 OFFCURVE",
"178 -10 CURVE SMOOTH",
"198 -10 LINE SMOOTH",
"318 -10 OFFCURVE",
"416 56 OFFCURVE",
"433 183 CURVE SMOOTH",
"503 686 LINE",
"352 686 LINE",
"282 187 LINE SMOOTH",
"276 142 OFFCURVE",
"242 113 OFFCURVE",
"200 113 CURVE SMOOTH",
"156 113 OFFCURVE",
"132 142 OFFCURVE",
"132 178 CURVE SMOOTH",
"132 198 OFFCURVE",
"139 228 OFFCURVE",
"139 228 CURVE SMOOTH"
);
}
);
};
layerId = "ED6E45DB-321E-4DDD-9C43-F5B1EDD266A1";
paths = (
{
closed = 1;
nodes = (
"-5 228 LINE",
"-14 179 OFFCURVE",
"-14 158 OFFCURVE",
"-14 147 CURVE SMOOTH",
"-14 44 OFFCURVE",
"77 -10 OFFCURVE",
"178 -10 CURVE SMOOTH",
"198 -10 LINE SMOOTH",
"318 -10 OFFCURVE",
"416 56 OFFCURVE",
"433 183 CURVE SMOOTH",
"503 686 LINE",
"352 686 LINE",
"282 187 LINE SMOOTH",
"276 142 OFFCURVE",
"242 113 OFFCURVE",
"200 113 CURVE SMOOTH",
"156 113 OFFCURVE",
"132 142 OFFCURVE",
"132 178 CURVE SMOOTH",
"132 198 OFFCURVE",
"139 228 OFFCURVE",
"139 228 CURVE SMOOTH"
);
}
);
width = 527;
}
);
unicode = 004A;
},
{
glyphname = K;
lastChange = "2014-09-05 18:36:05 +0000";
layers = (
{
anchors = (
{
name = bottom;
position = "{294, 0}";
},
{
name = top;
position = "{391, 686}";
}
);
background = {
anchors = (
{
name = bottom;
position = "{294, 0}";
},
{
name = top;
position = "{391, 686}";
}
);
paths = (
{
closed = 1;
nodes = (
"23 0 LINE",
"174 0 LINE",
"199 179 LINE",
"302 278 LINE",
"426 0 LINE",
"601 0 LINE",
"540 132 OFFCURVE",
"480 264 OFFCURVE",
"419 397 CURVE",
"505 487 OFFCURVE",
"589 578 OFFCURVE",
"691 686 CURVE",
"518 686 LINE",
"227 372 LINE",
"271 686 LINE",
"120 686 LINE"
);
}
);
};
layerId = "ED6E45DB-321E-4DDD-9C43-F5B1EDD266A1";
paths = (
{
closed = 1;
nodes = (
"23 0 LINE",
"174 0 LINE",
"199 179 LINE",
"302 278 LINE",
"426 0 LINE",
"601 0 LINE",
"540 132 OFFCURVE",
"480 264 OFFCURVE",
"419 397 CURVE",
"505 487 OFFCURVE",
"589 578 OFFCURVE",
"691 686 CURVE",
"518 686 LINE",
"227 372 LINE",
"271 686 LINE",
"120 686 LINE"
);
}
);
width = 660;
}
);
unicode = 004B;
},
{
glyphname = L;
lastChange = "2014-09-09 17:38:49 +0000";
layers = (
{
anchors = (
{
name = bottom;
position = "{231, 0}";
},
{
name = top;
position = "{248, 686}";
},
{
name = topright;
position = "{494, 686}";
}
);
background = {
anchors = (
{
name = bottom;
position = "{231, 0}";
},
{
name = top;
position = "{328, 686}";
},
{
name = topright;
position = "{574, 686}";
}
);
paths = (
{
closed = 1;
nodes = (
"477 0 LINE",
"477 128 LINE",
"196 128 LINE",
"275 686 LINE",
"120 686 LINE",
"23 0 LINE"
);
}
);
};
layerId = "ED6E45DB-321E-4DDD-9C43-F5B1EDD266A1";
paths = (
{
closed = 1;
nodes = (
"477 0 LINE",
"477 128 LINE",
"196 128 LINE",
"275 686 LINE",
"120 686 LINE",
"23 0 LINE"
);
}
);
width = 533;
}
);
unicode = 004C;
},
{
glyphname = M;
lastChange = "2014-09-05 18:36:05 +0000";
layers = (
{
background = {
paths = (
{
closed = 1;
nodes = (
"845 0 LINE",
"942 686 LINE",
"693 686 LINE",
"469 233 LINE",
"465 233 LINE",
"369 686 LINE",
"120 686 LINE",
"23 0 LINE",
"163 0 LINE",
"234 505 LINE",
"239 505 LINE",
"346 0 LINE",
"508 0 LINE",
"757 505 LINE",
"762 505 LINE",
"691 0 LINE"
);
}
);
};
layerId = "ED6E45DB-321E-4DDD-9C43-F5B1EDD266A1";
paths = (
{
closed = 1;
nodes = (
"845 0 LINE",
"942 686 LINE",
"693 686 LINE",
"469 233 LINE",
"465 233 LINE",
"369 686 LINE",
"120 686 LINE",
"23 0 LINE",
"163 0 LINE",
"234 505 LINE",
"239 505 LINE",
"346 0 LINE",
"508 0 LINE",
"757 505 LINE",
"762 505 LINE",
"691 0 LINE"
);
}
);
width = 967;
}
);
unicode = 004D;
},
{
glyphname = N;
lastChange = "2014-09-05 18:36:05 +0000";
layers = (
{
anchors = (
{
name = bottom;
position = "{310, 0}";
},
{
name = top;
position = "{407, 686}";
}
);
background = {
anchors = (
{
name = bottom;
position = "{310, 0}";
},
{
name = top;
position = "{407, 686}";
}
);
paths = (
{
closed = 1;
nodes = (
"569 0 LINE",
"666 686 LINE",
"525 686 LINE",
"468 283 LINE",
"465 280 LINE",
"450 309 OFFCURVE",
"437 340 OFFCURVE",
"422 368 CURVE SMOOTH",
"251 686 LINE",
"120 686 LINE",
"23 0 LINE",
"164 0 LINE",
"221 402 LINE",
"225 405 LINE",
"225 405 OFFCURVE",
"254 342 OFFCURVE",
"268 316 CURVE SMOOTH",
"438 0 LINE"
);
}
);
};
layerId = "ED6E45DB-321E-4DDD-9C43-F5B1EDD266A1";
paths = (
{
closed = 1;
nodes = (
"569 0 LINE",
"666 686 LINE",
"525 686 LINE",
"468 283 LINE",
"465 280 LINE",
"450 309 OFFCURVE",
"437 340 OFFCURVE",
"422 368 CURVE SMOOTH",
"251 686 LINE",
"120 686 LINE",
"23 0 LINE",
"164 0 LINE",
"221 402 LINE",
"225 405 LINE",
"225 405 OFFCURVE",
"254 342 OFFCURVE",
"268 316 CURVE SMOOTH",
"438 0 LINE"
);
}
);
width = 691;
}
);
unicode = 004E;
},
{
glyphname = O;
lastChange = "2014-09-05 18:36:05 +0000";
layers = (
{
anchors = (
{
name = top;
position = "{415, 686}";
}
);
background = {
anchors = (
{
name = top;
position = "{415, 686}";
}
);
paths = (
{
closed = 1;
nodes = (
"472 167 OFFCURVE",
"409 113 OFFCURVE",
"322 113 CURVE SMOOTH",
"247 113 OFFCURVE",
"197 159 OFFCURVE",
"197 236 CURVE SMOOTH",
"197 271 OFFCURVE",
"203 304 OFFCURVE",
"215 390 CURVE SMOOTH",
"230 506 OFFCURVE",
"284 573 OFFCURVE",
"384 573 CURVE SMOOTH",
"458 573 OFFCURVE",
"509 526 OFFCURVE",
"509 449 CURVE SMOOTH",
"509 406 OFFCURVE",
"501 364 OFFCURVE",
"487 272 CURVE SMOOTH"
);
},
{
closed = 1;
nodes = (
"668 409 OFFCURVE",
"669 416 OFFCURVE",
"669 443 CURVE SMOOTH",
"669 599 OFFCURVE",
"562 695 OFFCURVE",
"416 695 CURVE SMOOTH",
"221 695 OFFCURVE",
"82 592 OFFCURVE",
"54 391 CURVE SMOOTH",
"38 276 OFFCURVE",
"36 271 OFFCURVE",
"36 241 CURVE SMOOTH",
"36 86 OFFCURVE",
"143 -10 OFFCURVE",
"289 -10 CURVE SMOOTH",
"484 -10 OFFCURVE",
"623 91 OFFCURVE",
"652 294 CURVE SMOOTH"
);
}
);
};
layerId = "ED6E45DB-321E-4DDD-9C43-F5B1EDD266A1";
paths = (
{
closed = 1;
nodes = (
"472 167 OFFCURVE",
"409 113 OFFCURVE",
"322 113 CURVE SMOOTH",
"247 113 OFFCURVE",
"197 159 OFFCURVE",
"197 236 CURVE SMOOTH",
"197 271 OFFCURVE",
"203 304 OFFCURVE",
"215 390 CURVE SMOOTH",
"230 506 OFFCURVE",
"284 573 OFFCURVE",
"384 573 CURVE SMOOTH",
"458 573 OFFCURVE",
"509 526 OFFCURVE",
"509 449 CURVE SMOOTH",
"509 406 OFFCURVE",
"501 364 OFFCURVE",
"487 272 CURVE SMOOTH"
);
},
{
closed = 1;
nodes = (
"668 409 OFFCURVE",
"669 416 OFFCURVE",
"669 443 CURVE SMOOTH",
"669 599 OFFCURVE",
"562 695 OFFCURVE",
"416 695 CURVE SMOOTH",
"221 695 OFFCURVE",
"82 592 OFFCURVE",
"54 391 CURVE SMOOTH",
"38 276 OFFCURVE",
"36 271 OFFCURVE",
"36 241 CURVE SMOOTH",
"36 86 OFFCURVE",
"143 -10 OFFCURVE",
"289 -10 CURVE SMOOTH",
"484 -10 OFFCURVE",
"623 91 OFFCURVE",
"652 294 CURVE SMOOTH"
);
}
);
width = 708;
}
);
unicode = 004F;
},
{
glyphname = P;
lastChange = "2014-09-05 18:36:05 +0000";
layers = (
{
background = {
paths = (
{
closed = 1;
nodes = (
"397 563 LINE SMOOTH",
"445 563 OFFCURVE",
"474 529 OFFCURVE",
"474 489 CURVE",
"470 440 OFFCURVE",
"437 386 OFFCURVE",
"372 386 CURVE SMOOTH",
"231 386 LINE",
"256 563 LINE"
);
},
{
closed = 1;
nodes = (
"391 265 LINE SMOOTH",
"535 265 OFFCURVE",
"631 371 OFFCURVE",
"631 511 CURVE SMOOTH",
"631 613 OFFCURVE",
"555 686 OFFCURVE",
"450 686 CURVE SMOOTH",
"120 686 LINE",
"23 0 LINE",
"177 0 LINE",
"214 265 LINE"
);
}
);
};
layerId = "ED6E45DB-321E-4DDD-9C43-F5B1EDD266A1";
paths = (
{
closed = 1;
nodes = (
"397 563 LINE SMOOTH",
"445 563 OFFCURVE",
"474 529 OFFCURVE",
"474 489 CURVE",
"470 440 OFFCURVE",
"437 386 OFFCURVE",
"372 386 CURVE SMOOTH",
"231 386 LINE",
"256 563 LINE"
);
},
{
closed = 1;
nodes = (
"391 265 LINE SMOOTH",
"535 265 OFFCURVE",
"631 371 OFFCURVE",
"631 511 CURVE SMOOTH",
"631 613 OFFCURVE",
"555 686 OFFCURVE",
"450 686 CURVE SMOOTH",
"120 686 LINE",
"23 0 LINE",
"177 0 LINE",
"214 265 LINE"
);
}
);
width = 629;
}
);
unicode = 0050;
},
{
glyphname = Q;
lastChange = "2014-09-05 18:36:05 +0000";
layers = (
{
background = {
paths = (
{
closed = 1;
nodes = (
"679 409 OFFCURVE",
"680 416 OFFCURVE",
"680 443 CURVE SMOOTH",
"680 599 OFFCURVE",
"573 695 OFFCURVE",
"427 695 CURVE SMOOTH",
"232 695 OFFCURVE",
"93 592 OFFCURVE",
"65 391 CURVE SMOOTH",
"49 276 OFFCURVE",
"47 271 OFFCURVE",
"47 241 CURVE SMOOTH",
"47 104 OFFCURVE",
"130 13 OFFCURVE",
"251 -6 CURVE",
"256 -72 OFFCURVE",
"302 -153 OFFCURVE",
"438 -153 CURVE SMOOTH",
"530 -153 OFFCURVE",
"600 -116 OFFCURVE",
"600 -116 CURVE",
"612 -28 LINE",
"612 -29 OFFCURVE",
"534 -54 OFFCURVE",
"487 -54 CURVE SMOOTH",
"432 -54 OFFCURVE",
"411 -25 OFFCURVE",
"404 1 CURVE",
"543 32 OFFCURVE",
"639 129 OFFCURVE",
"663 294 CURVE SMOOTH"
);
},
{
closed = 1;
nodes = (
"483 167 OFFCURVE",
"420 113 OFFCURVE",
"333 113 CURVE SMOOTH",
"258 113 OFFCURVE",
"208 159 OFFCURVE",
"208 236 CURVE SMOOTH",
"208 271 OFFCURVE",
"214 304 OFFCURVE",
"226 390 CURVE SMOOTH",
"241 506 OFFCURVE",
"295 573 OFFCURVE",
"395 573 CURVE SMOOTH",
"469 573 OFFCURVE",
"520 526 OFFCURVE",
"520 449 CURVE SMOOTH",
"520 406 OFFCURVE",
"512 364 OFFCURVE",
"498 272 CURVE SMOOTH"
);
}
);
};
layerId = "ED6E45DB-321E-4DDD-9C43-F5B1EDD266A1";
paths = (
{
closed = 1;
nodes = (
"679 409 OFFCURVE",
"680 416 OFFCURVE",
"680 443 CURVE SMOOTH",
"680 599 OFFCURVE",
"573 695 OFFCURVE",
"427 695 CURVE SMOOTH",
"232 695 OFFCURVE",
"93 592 OFFCURVE",
"65 391 CURVE SMOOTH",
"49 276 OFFCURVE",
"47 271 OFFCURVE",
"47 241 CURVE SMOOTH",
"47 104 OFFCURVE",
"130 13 OFFCURVE",
"251 -6 CURVE",
"256 -72 OFFCURVE",
"302 -153 OFFCURVE",
"438 -153 CURVE SMOOTH",
"530 -153 OFFCURVE",
"600 -116 OFFCURVE",
"600 -116 CURVE",
"612 -28 LINE",
"612 -29 OFFCURVE",
"534 -54 OFFCURVE",
"487 -54 CURVE SMOOTH",
"432 -54 OFFCURVE",
"411 -25 OFFCURVE",
"404 1 CURVE",
"543 32 OFFCURVE",
"639 129 OFFCURVE",
"663 294 CURVE SMOOTH"
);
},
{
closed = 1;
nodes = (
"483 167 OFFCURVE",
"420 113 OFFCURVE",
"333 113 CURVE SMOOTH",
"258 113 OFFCURVE",
"208 159 OFFCURVE",
"208 236 CURVE SMOOTH",
"208 271 OFFCURVE",
"214 304 OFFCURVE",
"226 390 CURVE SMOOTH",
"241 506 OFFCURVE",
"295 573 OFFCURVE",
"395 573 CURVE SMOOTH",
"469 573 OFFCURVE",
"520 526 OFFCURVE",
"520 449 CURVE SMOOTH",
"520 406 OFFCURVE",
"512 364 OFFCURVE",
"498 272 CURVE SMOOTH"
);
}
);
width = 708;
}
);
unicode = 0051;
},
{
glyphname = R;
lastChange = "2014-09-05 18:36:05 +0000";
layers = (
{
anchors = (
{
name = bottom;
position = "{297, 0}";
},
{
name = top;
position = "{394, 686}";
}
);
background = {
anchors = (
{
name = bottom;
position = "{297, 0}";
},
{
name = top;
position = "{394, 686}";
}
);
paths = (
{
closed = 1;
nodes = (
"233 405 LINE",
"255 563 LINE",
"405 563 LINE SMOOTH",
"448 563 OFFCURVE",
"475 535 OFFCURVE",
"475 498 CURVE SMOOTH",
"475 443 OFFCURVE",
"433 405 OFFCURVE",
"383 405 CURVE SMOOTH"
);
},
{
closed = 1;
nodes = (
"333 284 LINE SMOOTH",
"384 284 OFFCURVE",
"418 249 OFFCURVE",
"418 176 CURVE SMOOTH",
"418 152 OFFCURVE",
"410 112 OFFCURVE",
"410 86 CURVE SMOOTH",
"410 13 OFFCURVE",
"451 -7 OFFCURVE",
"512 -7 CURVE SMOOTH",
"542 -7 OFFCURVE",
"577 -3 OFFCURVE",
"601 6 CURVE",
"605 40 LINE",
"578 49 OFFCURVE",
"567 77 OFFCURVE",
"567 113 CURVE SMOOTH",
"567 123 OFFCURVE",
"574 195 OFFCURVE",
"574 207 CURVE SMOOTH",
"574 294 OFFCURVE",
"528 334 OFFCURVE",
"488 348 CURVE",
"489 355 LINE",
"588 373 OFFCURVE",
"635 460 OFFCURVE",
"635 542 CURVE SMOOTH",
"635 650 OFFCURVE",
"541 686 OFFCURVE",
"427 686 CURVE SMOOTH",
"120 686 LINE",
"24 0 LINE",
"176 0 LINE",
"216 284 LINE"
);
}
);
};
layerId = "ED6E45DB-321E-4DDD-9C43-F5B1EDD266A1";
paths = (
{
closed = 1;
nodes = (
"233 405 LINE",
"255 563 LINE",
"405 563 LINE SMOOTH",
"448 563 OFFCURVE",
"475 535 OFFCURVE",
"475 498 CURVE SMOOTH",
"475 443 OFFCURVE",
"433 405 OFFCURVE",
"383 405 CURVE SMOOTH"
);
},
{
closed = 1;
nodes = (
"333 284 LINE SMOOTH",
"384 284 OFFCURVE",
"418 249 OFFCURVE",
"418 176 CURVE SMOOTH",
"418 152 OFFCURVE",
"410 112 OFFCURVE",
"410 86 CURVE SMOOTH",
"410 13 OFFCURVE",
"451 -7 OFFCURVE",
"512 -7 CURVE SMOOTH",
"542 -7 OFFCURVE",
"577 -3 OFFCURVE",
"601 6 CURVE",
"605 40 LINE",
"578 49 OFFCURVE",
"567 77 OFFCURVE",
"567 113 CURVE SMOOTH",
"567 123 OFFCURVE",
"574 195 OFFCURVE",
"574 207 CURVE SMOOTH",
"574 294 OFFCURVE",
"528 334 OFFCURVE",
"488 348 CURVE",
"489 355 LINE",
"588 373 OFFCURVE",
"635 460 OFFCURVE",
"635 542 CURVE SMOOTH",
"635 650 OFFCURVE",
"541 686 OFFCURVE",
"427 686 CURVE SMOOTH",
"120 686 LINE",
"24 0 LINE",
"176 0 LINE",
"216 284 LINE"
);
}
);
width = 665;
}
);
unicode = 0052;
},
{
glyphname = S;
lastChange = "2014-09-05 18:36:05 +0000";
layers = (
{
anchors = (
{
name = bottom;
position = "{282, 0}";
},
{
name = top;
position = "{379, 686}";
}
);
background = {
anchors = (
{
name = bottom;
position = "{282, 0}";
},
{
name = top;
position = "{379, 686}";
}
);
paths = (
{
closed = 1;
nodes = (
"578 457 OFFCURVE",
"227 383 OFFCURVE",
"227 500 CURVE SMOOTH",
"227 549 OFFCURVE",
"279 575 OFFCURVE",
"354 575 CURVE SMOOTH",
"417 575 OFFCURVE",
"456 548 OFFCURVE",
"456 506 CURVE SMOOTH",
"456 504 OFFCURVE",
"455 493 OFFCURVE",
"453 483 CURVE",
"598 483 LINE",
"602 504 OFFCURVE",
"602 516 OFFCURVE",
"602 526 CURVE SMOOTH",
"602 644 OFFCURVE",
"499 696 OFFCURVE",
"368 696 CURVE SMOOTH",
"197 696 OFFCURVE",
"68 622 OFFCURVE",
"68 471 CURVE SMOOTH",
"68 241 OFFCURVE",
"417 318 OFFCURVE",
"417 200 CURVE SMOOTH",
"417 147 OFFCURVE",
"372 115 OFFCURVE",
"274 115 CURVE SMOOTH",
"199 115 OFFCURVE",
"160 144 OFFCURVE",
"160 193 CURVE SMOOTH",
"160 201 OFFCURVE",
"161 218 OFFCURVE",
"165 224 CURVE",
"19 224 LINE",
"15 209 OFFCURVE",
"12 186 OFFCURVE",
"12 168 CURVE SMOOTH",
"12 41 OFFCURVE",
"126 -10 OFFCURVE",
"262 -10 CURVE SMOOTH",
"480 -10 OFFCURVE",
"578 90 OFFCURVE",
"578 236 CURVE SMOOTH"
);
}
);
};
layerId = "ED6E45DB-321E-4DDD-9C43-F5B1EDD266A1";
paths = (
{
closed = 1;
nodes = (
"578 457 OFFCURVE",
"227 383 OFFCURVE",
"227 500 CURVE SMOOTH",
"227 549 OFFCURVE",
"279 575 OFFCURVE",
"354 575 CURVE SMOOTH",
"417 575 OFFCURVE",
"456 548 OFFCURVE",
"456 506 CURVE SMOOTH",
"456 504 OFFCURVE",
"455 493 OFFCURVE",
"453 483 CURVE",
"598 483 LINE",
"602 504 OFFCURVE",
"602 516 OFFCURVE",
"602 526 CURVE SMOOTH",
"602 644 OFFCURVE",
"499 696 OFFCURVE",
"368 696 CURVE SMOOTH",
"197 696 OFFCURVE",
"68 622 OFFCURVE",
"68 471 CURVE SMOOTH",
"68 241 OFFCURVE",
"417 318 OFFCURVE",
"417 200 CURVE SMOOTH",
"417 147 OFFCURVE",
"372 115 OFFCURVE",
"274 115 CURVE SMOOTH",
"199 115 OFFCURVE",
"160 144 OFFCURVE",
"160 193 CURVE SMOOTH",
"160 201 OFFCURVE",
"161 218 OFFCURVE",
"165 224 CURVE",
"19 224 LINE",
"15 209 OFFCURVE",
"12 186 OFFCURVE",
"12 168 CURVE SMOOTH",
"12 41 OFFCURVE",
"126 -10 OFFCURVE",
"262 -10 CURVE SMOOTH",
"480 -10 OFFCURVE",
"578 90 OFFCURVE",
"578 236 CURVE SMOOTH"
);
}
);
width = 635;
}
);
unicode = 0053;
},
{
glyphname = T;
lastChange = "2014-09-09 17:39:16 +0000";
layers = (
{
anchors = (
{
name = bottom;
position = "{230, 0}";
},
{
name = center;
position = "{283, 343}";
},
{
name = top;
position = "{340, 686}";
}
);
background = {
anchors = (
{
name = bottom;
position = "{243, 0}";
},
{
name = center;
position = "{303, 343}";
},
{
name = top;
position = "{340, 686}";
}
);
paths = (
{
closed = 1;
nodes = (
"579 562 LINE",
"597 686 LINE",
"55 686 LINE",
"37 562 LINE",
"232 562 LINE",
"153 0 LINE",
"306 0 LINE",
"385 562 LINE"
);
}
);
};
layerId = "ED6E45DB-321E-4DDD-9C43-F5B1EDD266A1";
paths = (
{
closed = 1;
nodes = (
"579 562 LINE",
"597 686 LINE",
"55 686 LINE",
"37 562 LINE",
"232 562 LINE",
"153 0 LINE",
"306 0 LINE",
"385 562 LINE"
);
}
);
width = 557;
}
);
unicode = 0054;
},
{
glyphname = U;
lastChange = "2014-09-09 17:39:35 +0000";
layers = (
{
anchors = (
{
name = ogonek;
position = "{380, 10}";
},
{
name = top;
position = "{398, 686}";
}
);
background = {
anchors = (
{
name = ogonek;
position = "{570, 10}";
},
{
name = top;
position = "{398, 686}";
}
);
paths = (
{
closed = 1;
nodes = (
"657 686 LINE",
"503 686 LINE",
"438 221 LINE SMOOTH",
"429 157 OFFCURVE",
"376 112 OFFCURVE",
"305 112 CURVE SMOOTH",
"241 112 OFFCURVE",
"200 150 OFFCURVE",
"200 205 CURVE SMOOTH",
"200 213 OFFCURVE",
"200 215 OFFCURVE",
"266 686 CURVE",
"112 686 LINE",
"45 205 OFFCURVE",
"44 198 OFFCURVE",
"44 181 CURVE SMOOTH",
"44 64 OFFCURVE",
"131 -10 OFFCURVE",
"273 -10 CURVE SMOOTH",
"301 -10 LINE SMOOTH",
"457 -10 OFFCURVE",
"572 75 OFFCURVE",
"592 218 CURVE SMOOTH"
);
}
);
};
layerId = "ED6E45DB-321E-4DDD-9C43-F5B1EDD266A1";
paths = (
{
closed = 1;
nodes = (
"657 686 LINE",
"503 686 LINE",
"438 221 LINE SMOOTH",
"429 157 OFFCURVE",
"376 112 OFFCURVE",
"305 112 CURVE SMOOTH",
"241 112 OFFCURVE",
"200 150 OFFCURVE",
"200 205 CURVE SMOOTH",
"200 213 OFFCURVE",
"200 215 OFFCURVE",
"266 686 CURVE",
"112 686 LINE",
"45 205 OFFCURVE",
"44 198 OFFCURVE",
"44 181 CURVE SMOOTH",
"44 64 OFFCURVE",
"131 -10 OFFCURVE",
"273 -10 CURVE SMOOTH",
"301 -10 LINE SMOOTH",
"457 -10 OFFCURVE",
"572 75 OFFCURVE",
"592 218 CURVE SMOOTH"
);
}
);
width = 673;
}
);
unicode = 0055;
},
{
glyphname = V;
lastChange = "2014-09-05 18:36:05 +0000";
layers = (
{
background = {
paths = (
{
closed = 1;
nodes = (
"304 196 LINE",
"217 686 LINE",
"55 686 LINE",
"183 0 LINE",
"360 0 LINE",
"683 686 LINE",
"535 686 LINE",
"309 196 LINE"
);
}
);
};
layerId = "ED6E45DB-321E-4DDD-9C43-F5B1EDD266A1";
paths = (
{
closed = 1;
nodes = (
"304 196 LINE",
"217 686 LINE",
"55 686 LINE",
"183 0 LINE",
"360 0 LINE",
"683 686 LINE",
"535 686 LINE",
"309 196 LINE"
);
}
);
width = 643;
}
);
unicode = 0056;
},
{
glyphname = W;
lastChange = "2014-09-05 18:36:05 +0000";
layers = (
{
anchors = (
{
name = top;
position = "{547, 686}";
}
);
background = {
anchors = (
{
name = top;
position = "{547, 686}";
}
);
paths = (
{
closed = 1;
nodes = (
"499 412 LINE",
"553 0 LINE",
"722 0 LINE",
"1012 686 LINE",
"866 686 LINE",
"805 536 OFFCURVE",
"743 386 OFFCURVE",
"682 237 CURVE",
"677 237 LINE",
"658 386 OFFCURVE",
"638 536 OFFCURVE",
"619 686 CURVE",
"464 686 LINE",
"402 536 OFFCURVE",
"341 386 OFFCURVE",
"279 237 CURVE",
"274 237 LINE",
"255 386 OFFCURVE",
"235 536 OFFCURVE",
"216 686 CURVE",
"55 686 LINE",
"150 0 LINE",
"321 0 LINE",
"493 412 LINE"
);
}
);
};
layerId = "ED6E45DB-321E-4DDD-9C43-F5B1EDD266A1";
paths = (
{
closed = 1;
nodes = (
"499 412 LINE",
"553 0 LINE",
"722 0 LINE",
"1012 686 LINE",
"866 686 LINE",
"805 536 OFFCURVE",
"743 386 OFFCURVE",
"682 237 CURVE",
"677 237 LINE",
"658 386 OFFCURVE",
"638 536 OFFCURVE",
"619 686 CURVE",
"464 686 LINE",
"402 536 OFFCURVE",
"341 386 OFFCURVE",
"279 237 CURVE",
"274 237 LINE",
"255 386 OFFCURVE",
"235 536 OFFCURVE",
"216 686 CURVE",
"55 686 LINE",
"150 0 LINE",
"321 0 LINE",
"493 412 LINE"
);
}
);
width = 972;
}
);
unicode = 0057;
},
{
glyphname = X;
lastChange = "2014-09-05 18:36:05 +0000";
layers = (
{
background = {
paths = (
{
closed = 1;
nodes = (
"118 0 LINE",
"142 35 OFFCURVE",
"222 137 OFFCURVE",
"307 245 CURVE",
"311 245 LINE",
"428 0 LINE",
"609 0 LINE",
"609 0 OFFCURVE",
"489 242 OFFCURVE",
"428 362 CURVE",
"538 499 OFFCURVE",
"685 686 OFFCURVE",
"685 686 CURVE SMOOTH",
"518 686 LINE",
"498 657 OFFCURVE",
"432 571 OFFCURVE",
"355 476 CURVE",
"351 476 LINE",
"251 686 LINE",
"70 686 LINE",
"234 360 LINE",
"-48 0 LINE"
);
}
);
};
layerId = "ED6E45DB-321E-4DDD-9C43-F5B1EDD266A1";
paths = (
{
closed = 1;
nodes = (
"118 0 LINE",
"142 35 OFFCURVE",
"222 137 OFFCURVE",
"307 245 CURVE",
"311 245 LINE",
"428 0 LINE",
"609 0 LINE",
"609 0 OFFCURVE",
"489 242 OFFCURVE",
"428 362 CURVE",
"538 499 OFFCURVE",
"685 686 OFFCURVE",
"685 686 CURVE SMOOTH",
"518 686 LINE",
"498 657 OFFCURVE",
"432 571 OFFCURVE",
"355 476 CURVE",
"351 476 LINE",
"251 686 LINE",
"70 686 LINE",
"234 360 LINE",
"-48 0 LINE"
);
}
);
width = 658;
}
);
unicode = 0058;
},
{
glyphname = Y;
lastChange = "2014-09-05 18:36:05 +0000";
layers = (
{
anchors = (
{
name = top;
position = "{380, 686}";
}
);
background = {
anchors = (
{
name = top;
position = "{380, 686}";
}
);
paths = (
{
closed = 1;
nodes = (
"678 686 LINE",
"520 686 LINE",
"338 414 LINE",
"333 414 LINE",
"229 686 LINE",
"55 686 LINE",
"230 263 LINE",
"193 0 LINE",
"347 0 LINE",
"384 263 LINE"
);
}
);
};
layerId = "ED6E45DB-321E-4DDD-9C43-F5B1EDD266A1";
paths = (
{
closed = 1;
nodes = (
"678 686 LINE",
"520 686 LINE",
"338 414 LINE",
"333 414 LINE",
"229 686 LINE",
"55 686 LINE",
"230 263 LINE",
"193 0 LINE",
"347 0 LINE",
"384 263 LINE"
);
}
);
width = 637;
}
);
unicode = 0059;
},
{
glyphname = Z;
lastChange = "2014-09-05 18:36:05 +0000";
layers = (
{
anchors = (
{
name = top;
position = "{377, 686}";
}
);
background = {
anchors = (
{
name = top;
position = "{377, 686}";
}
);
paths = (
{
closed = 1;
nodes = (
"540 0 LINE",
"558 123 LINE",
"235 123 LINE",
"622 636 LINE",
"629 686 LINE",
"114 686 LINE",
"96 563 LINE",
"388 563 LINE",
"0 49 LINE",
"-6 0 LINE"
);
}
);
};
layerId = "ED6E45DB-321E-4DDD-9C43-F5B1EDD266A1";
paths = (
{
closed = 1;
nodes = (
"540 0 LINE",
"558 123 LINE",
"235 123 LINE",
"622 636 LINE",
"629 686 LINE",
"114 686 LINE",
"96 563 LINE",
"388 563 LINE",
"0 49 LINE",
"-6 0 LINE"
);
}
);
width = 631;
}
);
unicode = 005A;
},
{
glyphname = bracketleft;
lastChange = "2014-09-05 18:36:05 +0000";
layers = (
{
background = {
paths = (
{
closed = 1;
nodes = (
"205 -161 LINE",
"215 -92 LINE",
"127 -92 LINE",
"226 617 LINE",
"314 617 LINE",
"324 686 LINE",
"121 686 LINE",
"2 -161 LINE"
);
}
);
};
layerId = "ED6E45DB-321E-4DDD-9C43-F5B1EDD266A1";
paths = (
{
closed = 1;
nodes = (
"205 -161 LINE",
"215 -92 LINE",
"127 -92 LINE",
"226 617 LINE",
"314 617 LINE",
"324 686 LINE",
"121 686 LINE",
"2 -161 LINE"
);
}
);
width = 338;
}
);
unicode = 005B;
},
{
glyphname = backslash;
lastChange = "2014-09-05 18:36:05 +0000";
layers = (
{
background = {
paths = (
{
closed = 1;
nodes = (
"417 -171 LINE",
"524 -171 LINE",
"155 686 LINE",
"49 686 LINE"
);
}
);
};
layerId = "ED6E45DB-321E-4DDD-9C43-F5B1EDD266A1";
paths = (
{
closed = 1;
nodes = (
"417 -171 LINE",
"524 -171 LINE",
"155 686 LINE",
"49 686 LINE"
);
}
);
width = 560;
}
);
unicode = 005C;
},
{
glyphname = bracketright;
lastChange = "2014-09-05 18:36:05 +0000";
layers = (
{
background = {
paths = (
{
closed = 1;
nodes = (
"214 -161 LINE",
"333 686 LINE",
"130 686 LINE",
"120 617 LINE",
"208 617 LINE",
"109 -92 LINE",
"21 -92 LINE",
"11 -161 LINE"
);
}
);
};
layerId = "ED6E45DB-321E-4DDD-9C43-F5B1EDD266A1";
paths = (
{
closed = 1;
nodes = (
"214 -161 LINE",
"333 686 LINE",
"130 686 LINE",
"120 617 LINE",
"208 617 LINE",
"109 -92 LINE",
"21 -92 LINE",
"11 -161 LINE"
);
}
);
width = 338;
}
);
unicode = 005D;
},
{
glyphname = asciicircum;
lastChange = "2014-09-05 18:36:05 +0000";
layers = (
{
background = {
paths = (
{
closed = 1;
nodes = (
"273 511 LINE",
"5 0 LINE",
"117 0 LINE",
"184 128 OFFCURVE",
"250 256 OFFCURVE",
"317 385 CURVE",
"347 256 OFFCURVE",
"378 128 OFFCURVE",
"409 0 CURVE",
"520 0 LINE",
"394 511 LINE"
);
}
);
};
layerId = "ED6E45DB-321E-4DDD-9C43-F5B1EDD266A1";
paths = (
{
closed = 1;
nodes = (
"273 511 LINE",
"5 0 LINE",
"117 0 LINE",
"184 128 OFFCURVE",
"250 256 OFFCURVE",
"317 385 CURVE",
"347 256 OFFCURVE",
"378 128 OFFCURVE",
"409 0 CURVE",
"520 0 LINE",
"394 511 LINE"
);
}
);
width = 598;
}
);
unicode = 005E;
},
{
glyphname = underscore;
lastChange = "2014-09-05 18:36:05 +0000";
layers = (
{
background = {
paths = (
{
closed = 1;
nodes = (
"495 -126 LINE",
"504 -65 LINE",
"4 -65 LINE",
"-4 -126 LINE"
);
}
);
};
layerId = "ED6E45DB-321E-4DDD-9C43-F5B1EDD266A1";
paths = (
{
closed = 1;
nodes = (
"495 -126 LINE",
"504 -65 LINE",
"4 -65 LINE",
"-4 -126 LINE"
);
}
);
width = 500;
}
);
unicode = 005F;
},
{
glyphname = grave;
lastChange = "2014-09-05 18:49:43 +0000";
layers = (
{
anchors = (
{
name = _top;
position = "{162, 511}";
}
);
background = {
anchors = (
{
name = _top;
position = "{142, 511}";
}
);
paths = (
{
closed = 1;
nodes = (
"262 575 LINE",
"190 720 LINE",
"62 720 LINE",
"60 717 LINE",
"160 575 LINE"
);
}
);
};
layerId = "ED6E45DB-321E-4DDD-9C43-F5B1EDD266A1";
paths = (
{
closed = 1;
nodes = (
"262 575 LINE",
"190 720 LINE",
"62 720 LINE",
"60 717 LINE",
"160 575 LINE"
);
}
);
width = 333;
}
);
unicode = 0060;
},
{
glyphname = a;
lastChange = "2014-09-05 18:36:05 +0000";
layers = (
{
anchors = (
{
name = ogonek;
position = "{502, 10}";
},
{
name = top;
position = "{335, 511}";
}
);
background = {
anchors = (
{
name = ogonek;
position = "{502, 10}";
},
{
name = top;
position = "{335, 511}";
}
);
paths = (
{
closed = 1;
nodes = (
"450 511 LINE",
"417 448 LINE",
"411 448 LINE",
"385 493 OFFCURVE",
"333 521 OFFCURVE",
"272 521 CURVE SMOOTH",
"122 521 OFFCURVE",
"31 371 OFFCURVE",
"31 191 CURVE SMOOTH",
"31 66 OFFCURVE",
"91 -10 OFFCURVE",
"203 -10 CURVE SMOOTH",
"266 -10 OFFCURVE",
"321 21 OFFCURVE",
"360 66 CURVE",
"365 17 OFFCURVE",
"398 -10 OFFCURVE",
"466 -10 CURVE SMOOTH",
"500 -10 OFFCURVE",
"535 0 OFFCURVE",
"556 11 CURVE",
"570 104 LINE",
"560 97 OFFCURVE",
"542 90 OFFCURVE",
"528 90 CURVE SMOOTH",
"512 90 OFFCURVE",
"503 100 OFFCURVE",
"503 117 CURVE SMOOTH",
"503 132 OFFCURVE",
"544 421 OFFCURVE",
"557 511 CURVE"
);
},
{
closed = 1;
nodes = (
"357 130 OFFCURVE",
"310 90 OFFCURVE",
"256 90 CURVE SMOOTH",
"208 90 OFFCURVE",
"175 121 OFFCURVE",
"175 183 CURVE SMOOTH",
"175 192 OFFCURVE",
"176 201 OFFCURVE",
"189 294 CURVE SMOOTH",
"201 375 OFFCURVE",
"247 415 OFFCURVE",
"302 415 CURVE SMOOTH",
"349 415 OFFCURVE",
"383 384 OFFCURVE",
"383 322 CURVE SMOOTH",
"383 313 OFFCURVE",
"382 304 OFFCURVE",
"369 211 CURVE SMOOTH"
);
}
);
};
layerId = "ED6E45DB-321E-4DDD-9C43-F5B1EDD266A1";
paths = (
{
closed = 1;
nodes = (
"450 511 LINE",
"417 448 LINE",
"411 448 LINE",
"385 493 OFFCURVE",
"333 521 OFFCURVE",
"272 521 CURVE SMOOTH",
"122 521 OFFCURVE",
"31 371 OFFCURVE",
"31 191 CURVE SMOOTH",
"31 66 OFFCURVE",
"91 -10 OFFCURVE",
"203 -10 CURVE SMOOTH",
"266 -10 OFFCURVE",
"321 21 OFFCURVE",
"360 66 CURVE",
"365 17 OFFCURVE",
"398 -10 OFFCURVE",
"466 -10 CURVE SMOOTH",
"500 -10 OFFCURVE",
"535 0 OFFCURVE",
"556 11 CURVE",
"570 104 LINE",
"560 97 OFFCURVE",
"542 90 OFFCURVE",
"528 90 CURVE SMOOTH",
"512 90 OFFCURVE",
"503 100 OFFCURVE",
"503 117 CURVE SMOOTH",
"503 132 OFFCURVE",
"544 421 OFFCURVE",
"557 511 CURVE"
);
},
{
closed = 1;
nodes = (
"357 130 OFFCURVE",
"310 90 OFFCURVE",
"256 90 CURVE SMOOTH",
"208 90 OFFCURVE",
"175 121 OFFCURVE",
"175 183 CURVE SMOOTH",
"175 192 OFFCURVE",
"176 201 OFFCURVE",
"189 294 CURVE SMOOTH",
"201 375 OFFCURVE",
"247 415 OFFCURVE",
"302 415 CURVE SMOOTH",
"349 415 OFFCURVE",
"383 384 OFFCURVE",
"383 322 CURVE SMOOTH",
"383 313 OFFCURVE",
"382 304 OFFCURVE",
"369 211 CURVE SMOOTH"
);
}
);
width = 598;
}
);
unicode = 0061;
},
{
glyphname = b;
lastChange = "2014-09-05 18:36:05 +0000";
layers = (
{
background = {
paths = (
{
closed = 1;
nodes = (
"263 720 LINE",
"117 720 LINE",
"16 0 LINE",
"69 0 LINE",
"89 25 OFFCURVE",
"110 52 OFFCURVE",
"131 78 CURVE",
"161 21 OFFCURVE",
"214 -10 OFFCURVE",
"288 -10 CURVE SMOOTH",
"468 -10 OFFCURVE",
"543 167 OFFCURVE",
"543 324 CURVE SMOOTH",
"543 455 OFFCURVE",
"473 521 OFFCURVE",
"378 521 CURVE SMOOTH",
"308 521 OFFCURVE",
"255 485 OFFCURVE",
"225 452 CURVE"
);
},
{
closed = 1;
nodes = (
"371 130 OFFCURVE",
"324 90 OFFCURVE",
"270 90 CURVE SMOOTH",
"222 90 OFFCURVE",
"189 121 OFFCURVE",
"189 183 CURVE SMOOTH",
"189 192 OFFCURVE",
"190 201 OFFCURVE",
"203 294 CURVE SMOOTH",
"215 375 OFFCURVE",
"261 415 OFFCURVE",
"316 415 CURVE SMOOTH",
"363 415 OFFCURVE",
"397 384 OFFCURVE",
"397 322 CURVE SMOOTH",
"397 313 OFFCURVE",
"396 304 OFFCURVE",
"383 211 CURVE SMOOTH"
);
}
);
};
layerId = "ED6E45DB-321E-4DDD-9C43-F5B1EDD266A1";
paths = (
{
closed = 1;
nodes = (
"263 720 LINE",
"117 720 LINE",
"16 0 LINE",
"69 0 LINE",
"89 25 OFFCURVE",
"110 52 OFFCURVE",
"131 78 CURVE",
"161 21 OFFCURVE",
"214 -10 OFFCURVE",
"288 -10 CURVE SMOOTH",
"468 -10 OFFCURVE",
"543 167 OFFCURVE",
"543 324 CURVE SMOOTH",
"543 455 OFFCURVE",
"473 521 OFFCURVE",
"378 521 CURVE SMOOTH",
"308 521 OFFCURVE",
"255 485 OFFCURVE",
"225 452 CURVE"
);
},
{
closed = 1;
nodes = (
"371 130 OFFCURVE",
"324 90 OFFCURVE",
"270 90 CURVE SMOOTH",
"222 90 OFFCURVE",
"189 121 OFFCURVE",
"189 183 CURVE SMOOTH",
"189 192 OFFCURVE",
"190 201 OFFCURVE",
"203 294 CURVE SMOOTH",
"215 375 OFFCURVE",
"261 415 OFFCURVE",
"316 415 CURVE SMOOTH",
"363 415 OFFCURVE",
"397 384 OFFCURVE",
"397 322 CURVE SMOOTH",
"397 313 OFFCURVE",
"396 304 OFFCURVE",
"383 211 CURVE SMOOTH"
);
}
);
width = 595;
}
);
unicode = 0062;
},
{
glyphname = c;
lastChange = "2014-09-05 18:36:05 +0000";
layers = (
{
anchors = (
{
name = bottom;
position = "{248, 0}";
},
{
name = top;
position = "{320, 511}";
}
);
background = {
anchors = (
{
name = bottom;
position = "{248, 0}";
},
{
name = top;
position = "{320, 511}";
}
);
paths = (
{
closed = 1;
nodes = (
"205 365 OFFCURVE",
"249 421 OFFCURVE",
"311 421 CURVE SMOOTH",
"364 421 OFFCURVE",
"388 386 OFFCURVE",
"388 334 CURVE SMOOTH",
"388 325 OFFCURVE",
"387 316 OFFCURVE",
"386 307 CURVE",
"531 307 LINE",
"533 319 OFFCURVE",
"533 330 OFFCURVE",
"533 341 CURVE SMOOTH",
"533 457 OFFCURVE",
"446 521 OFFCURVE",
"340 521 CURVE SMOOTH",
"324 521 LINE SMOOTH",
"123 521 OFFCURVE",
"36 355 OFFCURVE",
"36 192 CURVE SMOOTH",
"36 63 OFFCURVE",
"117 -10 OFFCURVE",
"249 -10 CURVE SMOOTH",
"265 -10 LINE SMOOTH",
"380 -10 OFFCURVE",
"495 55 OFFCURVE",
"516 203 CURVE",
"378 203 LINE",
"367 127 OFFCURVE",
"323 90 OFFCURVE",
"263 90 CURVE SMOOTH",
"210 90 OFFCURVE",
"182 130 OFFCURVE",
"182 183 CURVE SMOOTH",
"182 191 OFFCURVE",
"183 199 OFFCURVE",
"196 296 CURVE SMOOTH"
);
}
);
};
layerId = "ED6E45DB-321E-4DDD-9C43-F5B1EDD266A1";
paths = (
{
closed = 1;
nodes = (
"205 365 OFFCURVE",
"249 421 OFFCURVE",
"311 421 CURVE SMOOTH",
"364 421 OFFCURVE",
"388 386 OFFCURVE",
"388 334 CURVE SMOOTH",
"388 325 OFFCURVE",
"387 316 OFFCURVE",
"386 307 CURVE",
"531 307 LINE",
"533 319 OFFCURVE",
"533 330 OFFCURVE",
"533 341 CURVE SMOOTH",
"533 457 OFFCURVE",
"446 521 OFFCURVE",
"340 521 CURVE SMOOTH",
"324 521 LINE SMOOTH",
"123 521 OFFCURVE",
"36 355 OFFCURVE",
"36 192 CURVE SMOOTH",
"36 63 OFFCURVE",
"117 -10 OFFCURVE",
"249 -10 CURVE SMOOTH",
"265 -10 LINE SMOOTH",
"380 -10 OFFCURVE",
"495 55 OFFCURVE",
"516 203 CURVE",
"378 203 LINE",
"367 127 OFFCURVE",
"323 90 OFFCURVE",
"263 90 CURVE SMOOTH",
"210 90 OFFCURVE",
"182 130 OFFCURVE",
"182 183 CURVE SMOOTH",
"182 191 OFFCURVE",
"183 199 OFFCURVE",
"196 296 CURVE SMOOTH"
);
}
);
width = 567;
}
);
unicode = 0063;
},
{
glyphname = d;
lastChange = "2014-09-08 21:30:43 +0000";
layers = (
{
anchors = (
{
name = center;
position = "{334, 256}";
},
{
name = topright;
position = "{714, 686}";
}
);
background = {
anchors = (
{
name = center;
position = "{334, 256}";
},
{
name = topright;
position = "{611, 511}";
}
);
paths = (
{
closed = 1;
nodes = (
"434 720 LINE",
"396 452 LINE",
"376 485 OFFCURVE",
"333 521 OFFCURVE",
"263 521 CURVE SMOOTH",
"86 521 OFFCURVE",
"23 326 OFFCURVE",
"23 192 CURVE SMOOTH",
"23 54 OFFCURVE",
"100 -10 OFFCURVE",
"203 -10 CURVE SMOOTH",
"267 -10 OFFCURVE",
"315 19 OFFCURVE",
"353 59 CURVE",
"360 14 OFFCURVE",
"393 -10 OFFCURVE",
"458 -10 CURVE SMOOTH",
"492 -10 OFFCURVE",
"527 0 OFFCURVE",
"548 11 CURVE",
"562 104 LINE",
"552 97 OFFCURVE",
"534 90 OFFCURVE",
"520 90 CURVE SMOOTH",
"504 90 OFFCURVE",
"495 100 OFFCURVE",
"495 117 CURVE SMOOTH",
"495 127 OFFCURVE",
"580 720 OFFCURVE",
"580 720 CURVE SMOOTH"
);
},
{
closed = 1;
nodes = (
"350 130 OFFCURVE",
"303 90 OFFCURVE",
"249 90 CURVE SMOOTH",
"201 90 OFFCURVE",
"168 121 OFFCURVE",
"168 183 CURVE SMOOTH",
"168 192 OFFCURVE",
"169 201 OFFCURVE",
"182 294 CURVE SMOOTH",
"194 375 OFFCURVE",
"240 415 OFFCURVE",
"295 415 CURVE SMOOTH",
"342 415 OFFCURVE",
"376 384 OFFCURVE",
"376 322 CURVE SMOOTH",
"376 313 OFFCURVE",
"375 304 OFFCURVE",
"362 211 CURVE SMOOTH"
);
}
);
};
layerId = "ED6E45DB-321E-4DDD-9C43-F5B1EDD266A1";
paths = (
{
closed = 1;
nodes = (
"434 720 LINE",
"396 452 LINE",
"376 485 OFFCURVE",
"333 521 OFFCURVE",
"263 521 CURVE SMOOTH",
"86 521 OFFCURVE",
"23 326 OFFCURVE",
"23 192 CURVE SMOOTH",
"23 54 OFFCURVE",
"100 -10 OFFCURVE",
"203 -10 CURVE SMOOTH",
"267 -10 OFFCURVE",
"315 19 OFFCURVE",
"353 59 CURVE",
"360 14 OFFCURVE",
"393 -10 OFFCURVE",
"458 -10 CURVE SMOOTH",
"492 -10 OFFCURVE",
"527 0 OFFCURVE",
"548 11 CURVE",
"562 104 LINE",
"552 97 OFFCURVE",
"534 90 OFFCURVE",
"520 90 CURVE SMOOTH",
"504 90 OFFCURVE",
"495 100 OFFCURVE",
"495 117 CURVE SMOOTH",
"495 127 OFFCURVE",
"580 720 OFFCURVE",
"580 720 CURVE SMOOTH"
);
},
{
closed = 1;
nodes = (
"350 130 OFFCURVE",
"303 90 OFFCURVE",
"249 90 CURVE SMOOTH",
"201 90 OFFCURVE",
"168 121 OFFCURVE",
"168 183 CURVE SMOOTH",
"168 192 OFFCURVE",
"169 201 OFFCURVE",
"182 294 CURVE SMOOTH",
"194 375 OFFCURVE",
"240 415 OFFCURVE",
"295 415 CURVE SMOOTH",
"342 415 OFFCURVE",
"376 384 OFFCURVE",
"376 322 CURVE SMOOTH",
"376 313 OFFCURVE",
"375 304 OFFCURVE",
"362 211 CURVE SMOOTH"
);
}
);
width = 595;
}
);
unicode = 0064;
},
{
glyphname = e;
lastChange = "2014-09-09 17:39:55 +0000";
layers = (
{
anchors = (
{
name = bottom;
position = "{256, 0}";
},
{
name = ogonek;
position = "{350, 10}";
},
{
name = top;
position = "{328, 511}";
}
);
background = {
anchors = (
{
name = bottom;
position = "{256, 0}";
},
{
name = ogonek;
position = "{490, 10}";
},
{
name = top;
position = "{328, 511}";
}
);
paths = (
{
closed = 1;
nodes = (
"390 191 LINE",
"381 123 OFFCURVE",
"337 90 OFFCURVE",
"277 90 CURVE SMOOTH",
"215 90 OFFCURVE",
"182 131 OFFCURVE",
"182 186 CURVE SMOOTH",
"182 193 OFFCURVE",
"184 219 OFFCURVE",
"187 231 CURVE",
"537 231 LINE",
"548 307 LINE",
"549 318 OFFCURVE",
"550 329 OFFCURVE",
"550 340 CURVE SMOOTH",
"550 456 OFFCURVE",
"458 521 OFFCURVE",
"346 521 CURVE SMOOTH",
"330 521 LINE SMOOTH",
"148 521 OFFCURVE",
"37 385 OFFCURVE",
"37 197 CURVE SMOOTH",
"37 65 OFFCURVE",
"127 -10 OFFCURVE",
"255 -10 CURVE SMOOTH",
"271 -10 LINE SMOOTH",
"389 -10 OFFCURVE",
"511 50 OFFCURVE",
"530 191 CURVE"
);
},
{
closed = 1;
nodes = (
"379 421 OFFCURVE",
"402 387 OFFCURVE",
"402 338 CURVE SMOOTH",
"402 329 OFFCURVE",
"401 320 OFFCURVE",
"400 311 CURVE",
"198 311 LINE",
"212 373 OFFCURVE",
"257 421 OFFCURVE",
"317 421 CURVE SMOOTH"
);
}
);
};
layerId = "ED6E45DB-321E-4DDD-9C43-F5B1EDD266A1";
paths = (
{
closed = 1;
nodes = (
"390 191 LINE",
"381 123 OFFCURVE",
"337 90 OFFCURVE",
"277 90 CURVE SMOOTH",
"215 90 OFFCURVE",
"182 131 OFFCURVE",
"182 186 CURVE SMOOTH",
"182 193 OFFCURVE",
"184 219 OFFCURVE",
"187 231 CURVE",
"537 231 LINE",
"548 307 LINE",
"549 318 OFFCURVE",
"550 329 OFFCURVE",
"550 340 CURVE SMOOTH",
"550 456 OFFCURVE",
"458 521 OFFCURVE",
"346 521 CURVE SMOOTH",
"330 521 LINE SMOOTH",
"148 521 OFFCURVE",
"37 385 OFFCURVE",
"37 197 CURVE SMOOTH",
"37 65 OFFCURVE",
"127 -10 OFFCURVE",
"255 -10 CURVE SMOOTH",
"271 -10 LINE SMOOTH",
"389 -10 OFFCURVE",
"511 50 OFFCURVE",
"530 191 CURVE"
);
},
{
closed = 1;
nodes = (
"379 421 OFFCURVE",
"402 387 OFFCURVE",
"402 338 CURVE SMOOTH",
"402 329 OFFCURVE",
"401 320 OFFCURVE",
"400 311 CURVE",
"198 311 LINE",
"212 373 OFFCURVE",
"257 421 OFFCURVE",
"317 421 CURVE SMOOTH"
);
}
);
width = 584;
}
);
unicode = 0065;
},
{
glyphname = f;
lastChange = "2014-09-05 18:36:05 +0000";
layers = (
{
background = {
paths = (
{
closed = 1;
nodes = (
"397 707 LINE",
"371 721 OFFCURVE",
"320 728 OFFCURVE",
"290 728 CURVE SMOOTH",
"194 728 OFFCURVE",
"130 685 OFFCURVE",
"114 574 CURVE SMOOTH",
"105 511 LINE",
"44 511 LINE",
"31 411 LINE",
"91 411 LINE",
"70 270 OFFCURVE",
"49 121 OFFCURVE",
"30 -21 CURVE SMOOTH",
"23 -70 OFFCURVE",
"0 -87 OFFCURVE",
"-36 -87 CURVE SMOOTH",
"-52 -87 OFFCURVE",
"-81 -81 OFFCURVE",
"-96 -74 CURVE",
"-108 -165 LINE",
"-85 -178 OFFCURVE",
"-41 -185 OFFCURVE",
"-9 -185 CURVE SMOOTH",
"94 -185 OFFCURVE",
"163 -132 OFFCURVE",
"180 -1 CURVE SMOOTH",
"198 133 OFFCURVE",
"218 276 OFFCURVE",
"237 411 CURVE",
"356 411 LINE",
"371 511 LINE",
"251 511 LINE",
"259 591 OFFCURVE",
"267 630 OFFCURVE",
"325 630 CURVE SMOOTH",
"341 630 OFFCURVE",
"370 623 OFFCURVE",
"385 618 CURVE"
);
}
);
};
layerId = "ED6E45DB-321E-4DDD-9C43-F5B1EDD266A1";
paths = (
{
closed = 1;
nodes = (
"397 707 LINE",
"371 721 OFFCURVE",
"320 728 OFFCURVE",
"290 728 CURVE SMOOTH",
"194 728 OFFCURVE",
"130 685 OFFCURVE",
"114 574 CURVE SMOOTH",
"105 511 LINE",
"44 511 LINE",
"31 411 LINE",
"91 411 LINE",
"70 270 OFFCURVE",
"49 121 OFFCURVE",
"30 -21 CURVE SMOOTH",
"23 -70 OFFCURVE",
"0 -87 OFFCURVE",
"-36 -87 CURVE SMOOTH",
"-52 -87 OFFCURVE",
"-81 -81 OFFCURVE",
"-96 -74 CURVE",
"-108 -165 LINE",
"-85 -178 OFFCURVE",
"-41 -185 OFFCURVE",
"-9 -185 CURVE SMOOTH",
"94 -185 OFFCURVE",
"163 -132 OFFCURVE",
"180 -1 CURVE SMOOTH",
"198 133 OFFCURVE",
"218 276 OFFCURVE",
"237 411 CURVE",
"356 411 LINE",
"371 511 LINE",
"251 511 LINE",
"259 591 OFFCURVE",
"267 630 OFFCURVE",
"325 630 CURVE SMOOTH",
"341 630 OFFCURVE",
"370 623 OFFCURVE",
"385 618 CURVE"
);
}
);
width = 363;
}
);
unicode = 0066;
},
{
glyphname = g;
lastChange = "2014-09-05 18:36:05 +0000";
layers = (
{
anchors = (
{
name = top;
position = "{322, 511}";
}
);
background = {
anchors = (
{
name = top;
position = "{322, 511}";
}
);
paths = (
{
closed = 1;
nodes = (
"28 -19 LINE",
"28 -129 OFFCURVE",
"120 -186 OFFCURVE",
"248 -186 CURVE SMOOTH",
"398 -186 OFFCURVE",
"489 -102 OFFCURVE",
"508 37 CURVE SMOOTH",
"575 511 LINE",
"522 511 LINE",
"501 485 OFFCURVE",
"480 459 OFFCURVE",
"460 433 CURVE",
"429 492 OFFCURVE",
"373 521 OFFCURVE",
"303 521 CURVE SMOOTH",
"127 521 OFFCURVE",
"50 362 OFFCURVE",
"50 212 CURVE SMOOTH",
"50 98 OFFCURVE",
"110 19 OFFCURVE",
"216 19 CURVE SMOOTH",
"279 19 OFFCURVE",
"333 48 OFFCURVE",
"369 88 CURVE",
"361 24 OFFCURVE",
"361 -87 OFFCURVE",
"257 -87 CURVE SMOOTH",
"202 -87 OFFCURVE",
"174 -55 OFFCURVE",
"174 -19 CURVE"
);
},
{
closed = 1;
nodes = (
"220 384 OFFCURVE",
"268 421 OFFCURVE",
"322 421 CURVE SMOOTH",
"371 421 OFFCURVE",
"402 390 OFFCURVE",
"402 326 CURVE SMOOTH",
"402 303 OFFCURVE",
"394 259 OFFCURVE",
"390 231 CURVE SMOOTH",
"379 156 OFFCURVE",
"331 119 OFFCURVE",
"276 119 CURVE SMOOTH",
"228 119 OFFCURVE",
"194 148 OFFCURVE",
"194 206 CURVE SMOOTH",
"194 214 OFFCURVE",
"195 222 OFFCURVE",
"208 309 CURVE SMOOTH"
);
}
);
};
layerId = "ED6E45DB-321E-4DDD-9C43-F5B1EDD266A1";
paths = (
{
closed = 1;
nodes = (
"28 -19 LINE",
"28 -129 OFFCURVE",
"120 -186 OFFCURVE",
"248 -186 CURVE SMOOTH",
"398 -186 OFFCURVE",
"489 -102 OFFCURVE",
"508 37 CURVE SMOOTH",
"575 511 LINE",
"522 511 LINE",
"501 485 OFFCURVE",
"480 459 OFFCURVE",
"460 433 CURVE",
"429 492 OFFCURVE",
"373 521 OFFCURVE",
"303 521 CURVE SMOOTH",
"127 521 OFFCURVE",
"50 362 OFFCURVE",
"50 212 CURVE SMOOTH",
"50 98 OFFCURVE",
"110 19 OFFCURVE",
"216 19 CURVE SMOOTH",
"279 19 OFFCURVE",
"333 48 OFFCURVE",
"369 88 CURVE",
"361 24 OFFCURVE",
"361 -87 OFFCURVE",
"257 -87 CURVE SMOOTH",
"202 -87 OFFCURVE",
"174 -55 OFFCURVE",
"174 -19 CURVE"
);
},
{
closed = 1;
nodes = (
"220 384 OFFCURVE",
"268 421 OFFCURVE",
"322 421 CURVE SMOOTH",
"371 421 OFFCURVE",
"402 390 OFFCURVE",
"402 326 CURVE SMOOTH",
"402 303 OFFCURVE",
"394 259 OFFCURVE",
"390 231 CURVE SMOOTH",
"379 156 OFFCURVE",
"331 119 OFFCURVE",
"276 119 CURVE SMOOTH",
"228 119 OFFCURVE",
"194 148 OFFCURVE",
"194 206 CURVE SMOOTH",
"194 214 OFFCURVE",
"195 222 OFFCURVE",
"208 309 CURVE SMOOTH"
);
}
);
width = 572;
}
);
unicode = 0067;
},
{
glyphname = h;
lastChange = "2014-09-05 18:36:05 +0000";
layers = (
{
anchors = (
{
name = center;
position = "{335, 256}";
},
{
name = top;
position = "{335, 511}";
}
);
background = {
anchors = (
{
name = center;
position = "{335, 256}";
},
{
name = top;
position = "{335, 511}";
}
);
paths = (
{
closed = 1;
nodes = (
"116 720 LINE",
"15 0 LINE",
"161 0 LINE",
"205 314 LINE SMOOTH",
"213 371 OFFCURVE",
"263 415 OFFCURVE",
"314 415 CURVE SMOOTH",
"356 415 OFFCURVE",
"383 384 OFFCURVE",
"383 340 CURVE SMOOTH",
"383 335 OFFCURVE",
"383 330 OFFCURVE",
"336 0 CURVE",
"482 0 LINE",
"533 367 OFFCURVE",
"534 366 OFFCURVE",
"534 386 CURVE SMOOTH",
"534 477 OFFCURVE",
"465 521 OFFCURVE",
"376 521 CURVE SMOOTH",
"312 521 OFFCURVE",
"262 494 OFFCURVE",
"226 461 CURVE",
"262 720 LINE"
);
}
);
};
layerId = "ED6E45DB-321E-4DDD-9C43-F5B1EDD266A1";
paths = (
{
closed = 1;
nodes = (
"116 720 LINE",
"15 0 LINE",
"161 0 LINE",
"205 314 LINE SMOOTH",
"213 371 OFFCURVE",
"263 415 OFFCURVE",
"314 415 CURVE SMOOTH",
"356 415 OFFCURVE",
"383 384 OFFCURVE",
"383 340 CURVE SMOOTH",
"383 335 OFFCURVE",
"383 330 OFFCURVE",
"336 0 CURVE",
"482 0 LINE",
"533 367 OFFCURVE",
"534 366 OFFCURVE",
"534 386 CURVE SMOOTH",
"534 477 OFFCURVE",
"465 521 OFFCURVE",
"376 521 CURVE SMOOTH",
"312 521 OFFCURVE",
"262 494 OFFCURVE",
"226 461 CURVE",
"262 720 LINE"
);
}
);
width = 598;
}
);
unicode = 0068;
},
{
glyphname = i;
lastChange = "2014-09-05 18:36:05 +0000";
layers = (
{
background = {
paths = (
{
closed = 1;
nodes = (
"161 0 LINE",
"233 511 LINE",
"87 511 LINE",
"15 0 LINE"
);
},
{
closed = 1;
nodes = (
"99 605 LINE",
"247 605 LINE",
"263 720 LINE",
"115 720 LINE"
);
}
);
};
layerId = "ED6E45DB-321E-4DDD-9C43-F5B1EDD266A1";
paths = (
{
closed = 1;
nodes = (
"161 0 LINE",
"233 511 LINE",
"87 511 LINE",
"15 0 LINE"
);
},
{
closed = 1;
nodes = (
"99 605 LINE",
"247 605 LINE",
"263 720 LINE",
"115 720 LINE"
);
}
);
width = 278;
}
);
unicode = 0069;
},
{
glyphname = j;
lastChange = "2014-09-05 18:36:05 +0000";
layers = (
{
background = {
paths = (
{
closed = 1;
nodes = (
"26 -18 LINE SMOOTH",
"18 -77 OFFCURVE",
"-10 -86 OFFCURVE",
"-38 -86 CURVE SMOOTH",
"-53 -86 OFFCURVE",
"-83 -80 OFFCURVE",
"-97 -73 CURVE",
"-110 -166 LINE",
"-85 -179 OFFCURVE",
"-35 -186 OFFCURVE",
"-4 -186 CURVE SMOOTH",
"96 -186 OFFCURVE",
"156 -133 OFFCURVE",
"172 -20 CURVE SMOOTH",
"247 510 LINE",
"101 510 LINE"
);
},
{
closed = 1;
nodes = (
"113 605 LINE",
"261 605 LINE",
"277 720 LINE",
"129 720 LINE"
);
}
);
};
layerId = "ED6E45DB-321E-4DDD-9C43-F5B1EDD266A1";
paths = (
{
closed = 1;
nodes = (
"26 -18 LINE SMOOTH",
"18 -77 OFFCURVE",
"-10 -86 OFFCURVE",
"-38 -86 CURVE SMOOTH",
"-53 -86 OFFCURVE",
"-83 -80 OFFCURVE",
"-97 -73 CURVE",
"-110 -166 LINE",
"-85 -179 OFFCURVE",
"-35 -186 OFFCURVE",
"-4 -186 CURVE SMOOTH",
"96 -186 OFFCURVE",
"156 -133 OFFCURVE",
"172 -20 CURVE SMOOTH",
"247 510 LINE",
"101 510 LINE"
);
},
{
closed = 1;
nodes = (
"113 605 LINE",
"261 605 LINE",
"277 720 LINE",
"129 720 LINE"
);
}
);
width = 280;
}
);
unicode = 006A;
},
{
glyphname = k;
lastChange = "2014-09-05 18:36:05 +0000";
layers = (
{
anchors = (
{
name = bottom;
position = "{245, 0}";
}
);
background = {
anchors = (
{
name = bottom;
position = "{245, 0}";
}
);
paths = (
{
closed = 1;
nodes = (
"513 0 LINE",
"355 271 LINE",
"577 511 LINE",
"412 511 LINE",
"199 273 LINE",
"262 720 LINE",
"116 720 LINE",
"15 0 LINE",
"161 0 LINE",
"177 112 LINE",
"241 167 LINE",
"339 0 LINE"
);
}
);
};
layerId = "ED6E45DB-321E-4DDD-9C43-F5B1EDD266A1";
paths = (
{
closed = 1;
nodes = (
"513 0 LINE",
"355 271 LINE",
"577 511 LINE",
"412 511 LINE",
"199 273 LINE",
"262 720 LINE",
"116 720 LINE",
"15 0 LINE",
"161 0 LINE",
"177 112 LINE",
"241 167 LINE",
"339 0 LINE"
);
}
);
width = 562;
}
);
unicode = 006B;
},
{
glyphname = l;
lastChange = "2014-09-08 21:33:14 +0000";
layers = (
{
anchors = (
{
name = bottom;
position = "{104, 0}";
},
{
name = top;
position = "{214, 686}";
},
{
name = topright;
position = "{433, 686}";
}
);
background = {
anchors = (
{
name = bottom;
position = "{104, 0}";
},
{
name = top;
position = "{176, 511}";
},
{
name = topright;
position = "{295, 511}";
}
);
paths = (
{
closed = 1;
nodes = (
"161 0 LINE",
"262 720 LINE",
"116 720 LINE",
"15 0 LINE"
);
}
);
};
layerId = "ED6E45DB-321E-4DDD-9C43-F5B1EDD266A1";
paths = (
{
closed = 1;
nodes = (
"161 0 LINE",
"262 720 LINE",
"116 720 LINE",
"15 0 LINE"
);
}
);
width = 279;
}
);
unicode = 006C;
},
{
glyphname = m;
lastChange = "2014-09-05 18:36:05 +0000";
layers = (
{
background = {
paths = (
{
closed = 1;
nodes = (
"318 521 OFFCURVE",
"261 494 OFFCURVE",
"216 436 CURVE",
"215 461 OFFCURVE",
"213 486 OFFCURVE",
"211 511 CURVE",
"101 511 LINE",
"29 0 LINE",
"175 0 LINE",
"219 317 LINE SMOOTH",
"227 374 OFFCURVE",
"269 415 OFFCURVE",
"315 415 CURVE SMOOTH",
"351 415 OFFCURVE",
"373 392 OFFCURVE",
"373 349 CURVE SMOOTH",
"373 338 OFFCURVE",
"373 335 OFFCURVE",
"326 0 CURVE",
"472 0 LINE",
"516 317 LINE SMOOTH",
"524 374 OFFCURVE",
"567 415 OFFCURVE",
"613 415 CURVE SMOOTH",
"649 415 OFFCURVE",
"670 392 OFFCURVE",
"670 349 CURVE SMOOTH",
"670 338 OFFCURVE",
"670 336 OFFCURVE",
"623 0 CURVE",
"769 0 LINE",
"820 367 OFFCURVE",
"821 354 OFFCURVE",
"821 386 CURVE SMOOTH",
"821 474 OFFCURVE",
"758 521 OFFCURVE",
"675 521 CURVE SMOOTH",
"615 521 OFFCURVE",
"560 497 OFFCURVE",
"515 439 CURVE",
"494 493 OFFCURVE",
"442 521 OFFCURVE",
"378 521 CURVE SMOOTH"
);
}
);
};
layerId = "ED6E45DB-321E-4DDD-9C43-F5B1EDD266A1";
paths = (
{
closed = 1;
nodes = (
"318 521 OFFCURVE",
"261 494 OFFCURVE",
"216 436 CURVE",
"215 461 OFFCURVE",
"213 486 OFFCURVE",
"211 511 CURVE",
"101 511 LINE",
"29 0 LINE",
"175 0 LINE",
"219 317 LINE SMOOTH",
"227 374 OFFCURVE",
"269 415 OFFCURVE",
"315 415 CURVE SMOOTH",
"351 415 OFFCURVE",
"373 392 OFFCURVE",
"373 349 CURVE SMOOTH",
"373 338 OFFCURVE",
"373 335 OFFCURVE",
"326 0 CURVE",
"472 0 LINE",
"516 317 LINE SMOOTH",
"524 374 OFFCURVE",
"567 415 OFFCURVE",
"613 415 CURVE SMOOTH",
"649 415 OFFCURVE",
"670 392 OFFCURVE",
"670 349 CURVE SMOOTH",
"670 338 OFFCURVE",
"670 336 OFFCURVE",
"623 0 CURVE",
"769 0 LINE",
"820 367 OFFCURVE",
"821 354 OFFCURVE",
"821 386 CURVE SMOOTH",
"821 474 OFFCURVE",
"758 521 OFFCURVE",
"675 521 CURVE SMOOTH",
"615 521 OFFCURVE",
"560 497 OFFCURVE",
"515 439 CURVE",
"494 493 OFFCURVE",
"442 521 OFFCURVE",
"378 521 CURVE SMOOTH"
);
}
);
width = 870;
}
);
unicode = 006D;
},
{
glyphname = n;
lastChange = "2014-09-05 18:36:05 +0000";
layers = (
{
anchors = (
{
name = bottom;
position = "{263, 0}";
},
{
name = top;
position = "{335, 511}";
}
);
background = {
anchors = (
{
name = bottom;
position = "{263, 0}";
},
{
name = top;
position = "{335, 511}";
}
);
paths = (
{
closed = 1;
nodes = (
"101 511 LINE",
"29 0 LINE",
"175 0 LINE",
"219 314 LINE SMOOTH",
"227 371 OFFCURVE",
"277 415 OFFCURVE",
"328 415 CURVE SMOOTH",
"370 415 OFFCURVE",
"397 384 OFFCURVE",
"397 340 CURVE SMOOTH",
"397 331 OFFCURVE",
"397 330 OFFCURVE",
"350 0 CURVE",
"496 0 LINE",
"547 367 OFFCURVE",
"548 362 OFFCURVE",
"548 386 CURVE SMOOTH",
"548 477 OFFCURVE",
"479 521 OFFCURVE",
"390 521 CURVE SMOOTH",
"311 521 OFFCURVE",
"253 479 OFFCURVE",
"215 436 CURVE",
"210 511 LINE"
);
}
);
};
layerId = "ED6E45DB-321E-4DDD-9C43-F5B1EDD266A1";
paths = (
{
closed = 1;
nodes = (
"101 511 LINE",
"29 0 LINE",
"175 0 LINE",
"219 314 LINE SMOOTH",
"227 371 OFFCURVE",
"277 415 OFFCURVE",
"328 415 CURVE SMOOTH",
"370 415 OFFCURVE",
"397 384 OFFCURVE",
"397 340 CURVE SMOOTH",
"397 331 OFFCURVE",
"397 330 OFFCURVE",
"350 0 CURVE",
"496 0 LINE",
"547 367 OFFCURVE",
"548 362 OFFCURVE",
"548 386 CURVE SMOOTH",
"548 477 OFFCURVE",
"479 521 OFFCURVE",
"390 521 CURVE SMOOTH",
"311 521 OFFCURVE",
"253 479 OFFCURVE",
"215 436 CURVE",
"210 511 LINE"
);
}
);
width = 597;
}
);
unicode = 006E;
},
{
glyphname = o;
lastChange = "2014-09-05 18:36:05 +0000";
layers = (
{
anchors = (
{
name = top;
position = "{337, 511}";
}
);
background = {
anchors = (
{
name = top;
position = "{337, 511}";
}
);
paths = (
{
closed = 1;
nodes = (
"564 446 OFFCURVE",
"473 521 OFFCURVE",
"346 521 CURVE SMOOTH",
"330 521 LINE SMOOTH",
"148 521 OFFCURVE",
"37 391 OFFCURVE",
"37 197 CURVE SMOOTH",
"37 65 OFFCURVE",
"127 -10 OFFCURVE",
"255 -10 CURVE SMOOTH",
"271 -10 LINE SMOOTH",
"461 -10 OFFCURVE",
"564 129 OFFCURVE",
"564 314 CURVE SMOOTH"
);
},
{
closed = 1;
nodes = (
"393 131 OFFCURVE",
"337 90 OFFCURVE",
"277 90 CURVE SMOOTH",
"222 90 OFFCURVE",
"183 122 OFFCURVE",
"183 188 CURVE SMOOTH",
"183 196 OFFCURVE",
"184 205 OFFCURVE",
"196 296 CURVE SMOOTH",
"207 380 OFFCURVE",
"262 421 OFFCURVE",
"324 421 CURVE SMOOTH",
"379 421 OFFCURVE",
"418 389 OFFCURVE",
"418 323 CURVE SMOOTH",
"418 315 OFFCURVE",
"417 306 OFFCURVE",
"405 215 CURVE SMOOTH"
);
}
);
};
layerId = "ED6E45DB-321E-4DDD-9C43-F5B1EDD266A1";
paths = (
{
closed = 1;
nodes = (
"564 446 OFFCURVE",
"473 521 OFFCURVE",
"346 521 CURVE SMOOTH",
"330 521 LINE SMOOTH",
"148 521 OFFCURVE",
"37 391 OFFCURVE",
"37 197 CURVE SMOOTH",
"37 65 OFFCURVE",
"127 -10 OFFCURVE",
"255 -10 CURVE SMOOTH",
"271 -10 LINE SMOOTH",
"461 -10 OFFCURVE",
"564 129 OFFCURVE",
"564 314 CURVE SMOOTH"
);
},
{
closed = 1;
nodes = (
"393 131 OFFCURVE",
"337 90 OFFCURVE",
"277 90 CURVE SMOOTH",
"222 90 OFFCURVE",
"183 122 OFFCURVE",
"183 188 CURVE SMOOTH",
"183 196 OFFCURVE",
"184 205 OFFCURVE",
"196 296 CURVE SMOOTH",
"207 380 OFFCURVE",
"262 421 OFFCURVE",
"324 421 CURVE SMOOTH",
"379 421 OFFCURVE",
"418 389 OFFCURVE",
"418 323 CURVE SMOOTH",
"418 315 OFFCURVE",
"417 306 OFFCURVE",
"405 215 CURVE SMOOTH"
);
}
);
width = 602;
}
);
unicode = 006F;
},
{
glyphname = p;
lastChange = "2014-09-05 18:36:05 +0000";
layers = (
{
background = {
paths = (
{
closed = 1;
nodes = (
"113 511 LINE",
"16 -181 LINE",
"162 -181 LINE",
"196 59 LINE",
"216 26 OFFCURVE",
"259 -10 OFFCURVE",
"329 -10 CURVE SMOOTH",
"500 -10 OFFCURVE",
"568 166 OFFCURVE",
"568 319 CURVE SMOOTH",
"568 457 OFFCURVE",
"492 521 OFFCURVE",
"389 521 CURVE SMOOTH",
"322 521 OFFCURVE",
"272 489 OFFCURVE",
"234 447 CURVE",
"233 469 OFFCURVE",
"230 490 OFFCURVE",
"228 511 CURVE"
);
},
{
closed = 1;
nodes = (
"242 381 OFFCURVE",
"289 421 OFFCURVE",
"343 421 CURVE SMOOTH",
"391 421 OFFCURVE",
"424 390 OFFCURVE",
"424 328 CURVE SMOOTH",
"424 319 OFFCURVE",
"423 310 OFFCURVE",
"410 217 CURVE SMOOTH",
"398 136 OFFCURVE",
"352 96 OFFCURVE",
"297 96 CURVE SMOOTH",
"250 96 OFFCURVE",
"216 127 OFFCURVE",
"216 189 CURVE SMOOTH",
"216 198 OFFCURVE",
"217 207 OFFCURVE",
"230 300 CURVE SMOOTH"
);
}
);
};
layerId = "ED6E45DB-321E-4DDD-9C43-F5B1EDD266A1";
paths = (
{
closed = 1;
nodes = (
"113 511 LINE",
"16 -181 LINE",
"162 -181 LINE",
"196 59 LINE",
"216 26 OFFCURVE",
"259 -10 OFFCURVE",
"329 -10 CURVE SMOOTH",
"500 -10 OFFCURVE",
"568 166 OFFCURVE",
"568 319 CURVE SMOOTH",
"568 457 OFFCURVE",
"492 521 OFFCURVE",
"389 521 CURVE SMOOTH",
"322 521 OFFCURVE",
"272 489 OFFCURVE",
"234 447 CURVE",
"233 469 OFFCURVE",
"230 490 OFFCURVE",
"228 511 CURVE"
);
},
{
closed = 1;
nodes = (
"242 381 OFFCURVE",
"289 421 OFFCURVE",
"343 421 CURVE SMOOTH",
"391 421 OFFCURVE",
"424 390 OFFCURVE",
"424 328 CURVE SMOOTH",
"424 319 OFFCURVE",
"423 310 OFFCURVE",
"410 217 CURVE SMOOTH",
"398 136 OFFCURVE",
"352 96 OFFCURVE",
"297 96 CURVE SMOOTH",
"250 96 OFFCURVE",
"216 127 OFFCURVE",
"216 189 CURVE SMOOTH",
"216 198 OFFCURVE",
"217 207 OFFCURVE",
"230 300 CURVE SMOOTH"
);
}
);
width = 595;
}
);
unicode = 0070;
},
{
glyphname = q;
lastChange = "2014-09-05 18:36:05 +0000";
layers = (
{
background = {
paths = (
{
closed = 1;
nodes = (
"332 -180 LINE",
"478 -180 LINE",
"575 511 LINE",
"522 511 LINE",
"502 486 OFFCURVE",
"481 459 OFFCURVE",
"460 433 CURVE",
"430 490 OFFCURVE",
"377 521 OFFCURVE",
"303 521 CURVE SMOOTH",
"123 521 OFFCURVE",
"48 344 OFFCURVE",
"48 187 CURVE SMOOTH",
"48 56 OFFCURVE",
"118 -10 OFFCURVE",
"213 -10 CURVE SMOOTH",
"283 -10 OFFCURVE",
"336 26 OFFCURVE",
"366 59 CURVE"
);
},
{
closed = 1;
nodes = (
"220 381 OFFCURVE",
"267 421 OFFCURVE",
"321 421 CURVE SMOOTH",
"369 421 OFFCURVE",
"402 390 OFFCURVE",
"402 328 CURVE SMOOTH",
"402 319 OFFCURVE",
"401 310 OFFCURVE",
"388 217 CURVE SMOOTH",
"376 136 OFFCURVE",
"330 96 OFFCURVE",
"275 96 CURVE SMOOTH",
"228 96 OFFCURVE",
"194 127 OFFCURVE",
"194 189 CURVE SMOOTH",
"194 198 OFFCURVE",
"195 207 OFFCURVE",
"208 300 CURVE SMOOTH"
);
}
);
};
layerId = "ED6E45DB-321E-4DDD-9C43-F5B1EDD266A1";
paths = (
{
closed = 1;
nodes = (
"332 -180 LINE",
"478 -180 LINE",
"575 511 LINE",
"522 511 LINE",
"502 486 OFFCURVE",
"481 459 OFFCURVE",
"460 433 CURVE",
"430 490 OFFCURVE",
"377 521 OFFCURVE",
"303 521 CURVE SMOOTH",
"123 521 OFFCURVE",
"48 344 OFFCURVE",
"48 187 CURVE SMOOTH",
"48 56 OFFCURVE",
"118 -10 OFFCURVE",
"213 -10 CURVE SMOOTH",
"283 -10 OFFCURVE",
"336 26 OFFCURVE",
"366 59 CURVE"
);
},
{
closed = 1;
nodes = (
"220 381 OFFCURVE",
"267 421 OFFCURVE",
"321 421 CURVE SMOOTH",
"369 421 OFFCURVE",
"402 390 OFFCURVE",
"402 328 CURVE SMOOTH",
"402 319 OFFCURVE",
"401 310 OFFCURVE",
"388 217 CURVE SMOOTH",
"376 136 OFFCURVE",
"330 96 OFFCURVE",
"275 96 CURVE SMOOTH",
"228 96 OFFCURVE",
"194 127 OFFCURVE",
"194 189 CURVE SMOOTH",
"194 198 OFFCURVE",
"195 207 OFFCURVE",
"208 300 CURVE SMOOTH"
);
}
);
width = 595;
}
);
unicode = 0071;
},
{
glyphname = r;
lastChange = "2014-09-09 17:40:21 +0000";
layers = (
{
anchors = (
{
name = bottom;
position = "{101, 0}";
},
{
name = top;
position = "{281, 511}";
}
);
background = {
anchors = (
{
name = bottom;
position = "{209, 0}";
},
{
name = top;
position = "{281, 511}";
}
);
paths = (
{
closed = 1;
nodes = (
"482 313 LINE",
"486 323 OFFCURVE",
"495 376 OFFCURVE",
"495 396 CURVE SMOOTH",
"495 470 OFFCURVE",
"454 521 OFFCURVE",
"371 521 CURVE SMOOTH",
"275 521 OFFCURVE",
"222 447 OFFCURVE",
"216 436 CURVE",
"209 511 LINE",
"101 511 LINE",
"29 0 LINE",
"173 0 LINE",
"217 316 LINE SMOOTH",
"224 367 OFFCURVE",
"253 412 OFFCURVE",
"303 412 CURVE SMOOTH",
"349 412 OFFCURVE",
"364 382 OFFCURVE",
"364 351 CURVE SMOOTH",
"364 346 OFFCURVE",
"364 341 OFFCURVE",
"360 313 CURVE"
);
}
);
};
layerId = "ED6E45DB-321E-4DDD-9C43-F5B1EDD266A1";
paths = (
{
closed = 1;
nodes = (
"482 313 LINE",
"486 323 OFFCURVE",
"495 376 OFFCURVE",
"495 396 CURVE SMOOTH",
"495 470 OFFCURVE",
"454 521 OFFCURVE",
"371 521 CURVE SMOOTH",
"275 521 OFFCURVE",
"222 447 OFFCURVE",
"216 436 CURVE",
"209 511 LINE",
"101 511 LINE",
"29 0 LINE",
"173 0 LINE",
"217 316 LINE SMOOTH",
"224 367 OFFCURVE",
"253 412 OFFCURVE",
"303 412 CURVE SMOOTH",
"349 412 OFFCURVE",
"364 382 OFFCURVE",
"364 351 CURVE SMOOTH",
"364 346 OFFCURVE",
"364 341 OFFCURVE",
"360 313 CURVE"
);
}
);
width = 489;
}
);
unicode = 0072;
},
{
glyphname = s;
lastChange = "2014-09-05 18:36:05 +0000";
layers = (
{
anchors = (
{
name = bottom;
position = "{234, 0}";
},
{
name = top;
position = "{306, 511}";
}
);
background = {
anchors = (
{
name = bottom;
position = "{234, 0}";
},
{
name = top;
position = "{306, 511}";
}
);
paths = (
{
closed = 1;
nodes = (
"16 163 LINE",
"15 158 OFFCURVE",
"12 139 OFFCURVE",
"12 124 CURVE SMOOTH",
"12 43 OFFCURVE",
"90 -10 OFFCURVE",
"206 -10 CURVE SMOOTH",
"239 -10 LINE SMOOTH",
"360 -10 OFFCURVE",
"492 37 OFFCURVE",
"492 187 CURVE SMOOTH",
"492 363 OFFCURVE",
"194 290 OFFCURVE",
"194 371 CURVE SMOOTH",
"194 402 OFFCURVE",
"235 421 OFFCURVE",
"294 421 CURVE SMOOTH",
"346 421 OFFCURVE",
"378 406 OFFCURVE",
"378 371 CURVE",
"377 361 LINE",
"505 361 LINE",
"505 362 OFFCURVE",
"511 376 OFFCURVE",
"511 397 CURVE SMOOTH",
"511 473 OFFCURVE",
"422 521 OFFCURVE",
"324 521 CURVE SMOOTH",
"304 521 LINE SMOOTH",
"180 521 OFFCURVE",
"57 459 OFFCURVE",
"57 334 CURVE SMOOTH",
"57 161 OFFCURVE",
"352 233 OFFCURVE",
"352 146 CURVE SMOOTH",
"352 102 OFFCURVE",
"288 90 OFFCURVE",
"242 90 CURVE SMOOTH",
"192 90 OFFCURVE",
"143 103 OFFCURVE",
"143 146 CURVE SMOOTH",
"143 149 OFFCURVE",
"143 152 OFFCURVE",
"144 163 CURVE"
);
}
);
};
layerId = "ED6E45DB-321E-4DDD-9C43-F5B1EDD266A1";
paths = (
{
closed = 1;
nodes = (
"16 163 LINE",
"15 158 OFFCURVE",
"12 139 OFFCURVE",
"12 124 CURVE SMOOTH",
"12 43 OFFCURVE",
"90 -10 OFFCURVE",
"206 -10 CURVE SMOOTH",
"239 -10 LINE SMOOTH",
"360 -10 OFFCURVE",
"492 37 OFFCURVE",
"492 187 CURVE SMOOTH",
"492 363 OFFCURVE",
"194 290 OFFCURVE",
"194 371 CURVE SMOOTH",
"194 402 OFFCURVE",
"235 421 OFFCURVE",
"294 421 CURVE SMOOTH",
"346 421 OFFCURVE",
"378 406 OFFCURVE",
"378 371 CURVE",
"377 361 LINE",
"505 361 LINE",
"505 362 OFFCURVE",
"511 376 OFFCURVE",
"511 397 CURVE SMOOTH",
"511 473 OFFCURVE",
"422 521 OFFCURVE",
"324 521 CURVE SMOOTH",
"304 521 LINE SMOOTH",
"180 521 OFFCURVE",
"57 459 OFFCURVE",
"57 334 CURVE SMOOTH",
"57 161 OFFCURVE",
"352 233 OFFCURVE",
"352 146 CURVE SMOOTH",
"352 102 OFFCURVE",
"288 90 OFFCURVE",
"242 90 CURVE SMOOTH",
"192 90 OFFCURVE",
"143 103 OFFCURVE",
"143 146 CURVE SMOOTH",
"143 149 OFFCURVE",
"143 152 OFFCURVE",
"144 163 CURVE"
);
}
);
width = 539;
}
);
unicode = 0073;
},
{
glyphname = t;
lastChange = "2014-09-09 03:35:16 +0000";
layers = (
{
anchors = (
{
name = bottom;
position = "{150, 0}";
},
{
name = center;
position = "{140, 256}";
},
{
name = topright;
position = "{477, 686}";
}
);
background = {
anchors = (
{
name = bottom;
position = "{150, 0}";
},
{
name = center;
position = "{222, 256}";
},
{
name = topright;
position = "{387, 511}";
}
);
paths = (
{
closed = 1;
nodes = (
"310 103 LINE",
"293 96 OFFCURVE",
"261 90 OFFCURVE",
"246 90 CURVE SMOOTH",
"221 90 OFFCURVE",
"197 97 OFFCURVE",
"197 139 CURVE SMOOTH",
"197 150 OFFCURVE",
"198 151 OFFCURVE",
"235 411 CURVE",
"354 411 LINE",
"368 511 LINE",
"249 511 LINE",
"281 674 LINE",
"127 674 LINE",
"104 511 LINE",
"47 511 LINE",
"33 411 LINE",
"89 411 LINE",
"48 121 OFFCURVE",
"47 113 OFFCURVE",
"47 99 CURVE SMOOTH",
"47 19 OFFCURVE",
"97 -10 OFFCURVE",
"184 -10 CURVE SMOOTH",
"216 -10 OFFCURVE",
"269 -2 OFFCURVE",
"297 9 CURVE"
);
}
);
};
layerId = "ED6E45DB-321E-4DDD-9C43-F5B1EDD266A1";
paths = (
{
closed = 1;
nodes = (
"310 103 LINE",
"293 96 OFFCURVE",
"261 90 OFFCURVE",
"246 90 CURVE SMOOTH",
"221 90 OFFCURVE",
"197 97 OFFCURVE",
"197 139 CURVE SMOOTH",
"197 150 OFFCURVE",
"198 151 OFFCURVE",
"235 411 CURVE",
"354 411 LINE",
"368 511 LINE",
"249 511 LINE",
"281 674 LINE",
"127 674 LINE",
"104 511 LINE",
"47 511 LINE",
"33 411 LINE",
"89 411 LINE",
"48 121 OFFCURVE",
"47 113 OFFCURVE",
"47 99 CURVE SMOOTH",
"47 19 OFFCURVE",
"97 -10 OFFCURVE",
"184 -10 CURVE SMOOTH",
"216 -10 OFFCURVE",
"269 -2 OFFCURVE",
"297 9 CURVE"
);
}
);
width = 371;
}
);
unicode = 0074;
},
{
glyphname = u;
lastChange = "2014-09-05 18:36:05 +0000";
layers = (
{
anchors = (
{
name = ogonek;
position = "{515, 10}";
},
{
name = top;
position = "{342, 511}";
}
);
background = {
anchors = (
{
name = ogonek;
position = "{515, 10}";
},
{
name = top;
position = "{342, 511}";
}
);
paths = (
{
closed = 1;
nodes = (
"421 511 LINE",
"377 197 LINE SMOOTH",
"369 140 OFFCURVE",
"319 96 OFFCURVE",
"268 96 CURVE SMOOTH",
"226 96 OFFCURVE",
"199 119 OFFCURVE",
"199 170 CURVE SMOOTH",
"199 179 OFFCURVE",
"199 181 OFFCURVE",
"246 511 CURVE",
"100 511 LINE",
"48 144 OFFCURVE",
"48 142 OFFCURVE",
"48 125 CURVE SMOOTH",
"48 33 OFFCURVE",
"117 -10 OFFCURVE",
"206 -10 CURVE SMOOTH",
"278 -10 OFFCURVE",
"332 25 OFFCURVE",
"370 63 CURVE",
"374 18 OFFCURVE",
"406 -10 OFFCURVE",
"476 -10 CURVE SMOOTH",
"526 -10 OFFCURVE",
"559 7 OFFCURVE",
"567 11 CURVE",
"579 101 LINE",
"573 98 OFFCURVE",
"552 90 OFFCURVE",
"537 90 CURVE SMOOTH",
"525 90 OFFCURVE",
"511 96 OFFCURVE",
"511 114 CURVE SMOOTH",
"511 119 OFFCURVE",
"512 118 OFFCURVE",
"567 511 CURVE"
);
}
);
};
layerId = "ED6E45DB-321E-4DDD-9C43-F5B1EDD266A1";
paths = (
{
closed = 1;
nodes = (
"421 511 LINE",
"377 197 LINE SMOOTH",
"369 140 OFFCURVE",
"319 96 OFFCURVE",
"268 96 CURVE SMOOTH",
"226 96 OFFCURVE",
"199 119 OFFCURVE",
"199 170 CURVE SMOOTH",
"199 179 OFFCURVE",
"199 181 OFFCURVE",
"246 511 CURVE",
"100 511 LINE",
"48 144 OFFCURVE",
"48 142 OFFCURVE",
"48 125 CURVE SMOOTH",
"48 33 OFFCURVE",
"117 -10 OFFCURVE",
"206 -10 CURVE SMOOTH",
"278 -10 OFFCURVE",
"332 25 OFFCURVE",
"370 63 CURVE",
"374 18 OFFCURVE",
"406 -10 OFFCURVE",
"476 -10 CURVE SMOOTH",
"526 -10 OFFCURVE",
"559 7 OFFCURVE",
"567 11 CURVE",
"579 101 LINE",
"573 98 OFFCURVE",
"552 90 OFFCURVE",
"537 90 CURVE SMOOTH",
"525 90 OFFCURVE",
"511 96 OFFCURVE",
"511 114 CURVE SMOOTH",
"511 119 OFFCURVE",
"512 118 OFFCURVE",
"567 511 CURVE"
);
}
);
width = 612;
}
);
unicode = 0075;
},
{
glyphname = v;
lastChange = "2014-09-05 18:36:05 +0000";
layers = (
{
background = {
paths = (
{
closed = 1;
nodes = (
"565 511 LINE",
"423 511 LINE",
"264 169 LINE",
"259 169 LINE",
"196 511 LINE",
"41 511 LINE",
"149 0 LINE",
"314 0 LINE"
);
}
);
};
layerId = "ED6E45DB-321E-4DDD-9C43-F5B1EDD266A1";
paths = (
{
closed = 1;
nodes = (
"565 511 LINE",
"423 511 LINE",
"264 169 LINE",
"259 169 LINE",
"196 511 LINE",
"41 511 LINE",
"149 0 LINE",
"314 0 LINE"
);
}
);
width = 536;
}
);
unicode = 0076;
},
{
glyphname = w;
lastChange = "2014-09-05 18:36:05 +0000";
layers = (
{
anchors = (
{
name = top;
position = "{446, 511}";
}
);
background = {
anchors = (
{
name = top;
position = "{446, 511}";
}
);
paths = (
{
closed = 1;
nodes = (
"417 285 LINE",
"461 0 LINE",
"622 0 LINE",
"849 511 LINE",
"707 511 LINE",
"664 405 OFFCURVE",
"619 300 OFFCURVE",
"574 195 CURVE",
"568 195 LINE",
"553 300 OFFCURVE",
"539 405 OFFCURVE",
"523 511 CURVE",
"377 511 LINE",
"333 405 OFFCURVE",
"287 300 OFFCURVE",
"242 195 CURVE",
"236 195 LINE",
"222 300 OFFCURVE",
"208 405 OFFCURVE",
"192 511 CURVE",
"41 511 LINE",
"126 0 LINE",
"289 0 LINE",
"411 285 LINE"
);
}
);
};
layerId = "ED6E45DB-321E-4DDD-9C43-F5B1EDD266A1";
paths = (
{
closed = 1;
nodes = (
"417 285 LINE",
"461 0 LINE",
"622 0 LINE",
"849 511 LINE",
"707 511 LINE",
"664 405 OFFCURVE",
"619 300 OFFCURVE",
"574 195 CURVE",
"568 195 LINE",
"553 300 OFFCURVE",
"539 405 OFFCURVE",
"523 511 CURVE",
"377 511 LINE",
"333 405 OFFCURVE",
"287 300 OFFCURVE",
"242 195 CURVE",
"236 195 LINE",
"222 300 OFFCURVE",
"208 405 OFFCURVE",
"192 511 CURVE",
"41 511 LINE",
"126 0 LINE",
"289 0 LINE",
"411 285 LINE"
);
}
);
width = 820;
}
);
unicode = 0077;
},
{
glyphname = x;
lastChange = "2014-09-05 18:36:05 +0000";
layers = (
{
background = {
paths = (
{
closed = 1;
nodes = (
"128 0 LINE",
"256 165 LINE",
"260 165 LINE",
"341 0 LINE",
"510 0 LINE",
"370 265 LINE",
"571 511 LINE",
"413 511 LINE",
"376 462 OFFCURVE",
"339 413 OFFCURVE",
"300 365 CURVE",
"296 365 LINE",
"272 413 OFFCURVE",
"250 462 OFFCURVE",
"225 511 CURVE",
"55 511 LINE",
"186 264 LINE",
"-29 0 LINE"
);
}
);
};
layerId = "ED6E45DB-321E-4DDD-9C43-F5B1EDD266A1";
paths = (
{
closed = 1;
nodes = (
"128 0 LINE",
"256 165 LINE",
"260 165 LINE",
"341 0 LINE",
"510 0 LINE",
"370 265 LINE",
"571 511 LINE",
"413 511 LINE",
"376 462 OFFCURVE",
"339 413 OFFCURVE",
"300 365 CURVE",
"296 365 LINE",
"272 413 OFFCURVE",
"250 462 OFFCURVE",
"225 511 CURVE",
"55 511 LINE",
"186 264 LINE",
"-29 0 LINE"
);
}
);
width = 553;
}
);
unicode = 0078;
},
{
glyphname = y;
lastChange = "2014-09-05 18:36:05 +0000";
layers = (
{
anchors = (
{
name = top;
position = "{304, 511}";
}
);
background = {
anchors = (
{
name = top;
position = "{304, 511}";
}
);
paths = (
{
closed = 1;
nodes = (
"579 511 LINE",
"435 511 LINE",
"283 190 LINE",
"277 190 LINE",
"210 511 LINE",
"55 511 LINE",
"177 10 LINE",
"150 -53 OFFCURVE",
"116 -83 OFFCURVE",
"73 -83 CURVE SMOOTH",
"49 -83 OFFCURVE",
"21 -75 OFFCURVE",
"8 -69 CURVE",
"-5 -172 LINE",
"14 -182 OFFCURVE",
"42 -187 OFFCURVE",
"77 -187 CURVE SMOOTH",
"186 -187 OFFCURVE",
"267 -92 OFFCURVE",
"329 28 CURVE SMOOTH"
);
}
);
};
layerId = "ED6E45DB-321E-4DDD-9C43-F5B1EDD266A1";
paths = (
{
closed = 1;
nodes = (
"579 511 LINE",
"435 511 LINE",
"283 190 LINE",
"277 190 LINE",
"210 511 LINE",
"55 511 LINE",
"177 10 LINE",
"150 -53 OFFCURVE",
"116 -83 OFFCURVE",
"73 -83 CURVE SMOOTH",
"49 -83 OFFCURVE",
"21 -75 OFFCURVE",
"8 -69 CURVE",
"-5 -172 LINE",
"14 -182 OFFCURVE",
"42 -187 OFFCURVE",
"77 -187 CURVE SMOOTH",
"186 -187 OFFCURVE",
"267 -92 OFFCURVE",
"329 28 CURVE SMOOTH"
);
}
);
width = 536;
}
);
unicode = 0079;
},
{
glyphname = z;
lastChange = "2014-09-05 18:36:05 +0000";
layers = (
{
anchors = (
{
name = top;
position = "{279, 511}";
}
);
background = {
anchors = (
{
name = top;
position = "{279, 511}";
}
);
paths = (
{
closed = 1;
nodes = (
"419 0 LINE",
"433 100 LINE",
"206 100 LINE",
"476 462 LINE",
"482 511 LINE",
"84 511 LINE",
"70 411 LINE",
"275 411 LINE",
"7 50 LINE",
"0 0 LINE"
);
}
);
};
layerId = "ED6E45DB-321E-4DDD-9C43-F5B1EDD266A1";
paths = (
{
closed = 1;
nodes = (
"419 0 LINE",
"433 100 LINE",
"206 100 LINE",
"476 462 LINE",
"482 511 LINE",
"84 511 LINE",
"70 411 LINE",
"275 411 LINE",
"7 50 LINE",
"0 0 LINE"
);
}
);
width = 486;
}
);
unicode = 007A;
},
{
glyphname = braceleft;
lastChange = "2014-09-05 18:36:05 +0000";
layers = (
{
background = {
paths = (
{
closed = 1;
nodes = (
"34 224 LINE",
"72 224 OFFCURVE",
"103 210 OFFCURVE",
"103 168 CURVE",
"74 -42 OFFCURVE",
"73 -46 OFFCURVE",
"73 -57 CURVE SMOOTH",
"73 -153 OFFCURVE",
"172 -159 OFFCURVE",
"247 -159 CURVE",
"255 -100 LINE",
"213 -100 OFFCURVE",
"187 -93 OFFCURVE",
"187 -39 CURVE SMOOTH",
"187 17 OFFCURVE",
"206 119 OFFCURVE",
"206 178 CURVE SMOOTH",
"206 229 OFFCURVE",
"183 259 OFFCURVE",
"125 259 CURVE",
"126 268 LINE",
"192 268 OFFCURVE",
"224 306 OFFCURVE",
"236 371 CURVE SMOOTH",
"267 545 LINE SMOOTH",
"280 618 OFFCURVE",
"311 627 OFFCURVE",
"358 627 CURVE",
"366 686 LINE",
"283 686 OFFCURVE",
"174 678 OFFCURVE",
"158 560 CURVE SMOOTH",
"130 360 LINE SMOOTH",
"124 319 OFFCURVE",
"80 303 OFFCURVE",
"45 303 CURVE"
);
}
);
};
layerId = "ED6E45DB-321E-4DDD-9C43-F5B1EDD266A1";
paths = (
{
closed = 1;
nodes = (
"34 224 LINE",
"72 224 OFFCURVE",
"103 210 OFFCURVE",
"103 168 CURVE",
"74 -42 OFFCURVE",
"73 -46 OFFCURVE",
"73 -57 CURVE SMOOTH",
"73 -153 OFFCURVE",
"172 -159 OFFCURVE",
"247 -159 CURVE",
"255 -100 LINE",
"213 -100 OFFCURVE",
"187 -93 OFFCURVE",
"187 -39 CURVE SMOOTH",
"187 17 OFFCURVE",
"206 119 OFFCURVE",
"206 178 CURVE SMOOTH",
"206 229 OFFCURVE",
"183 259 OFFCURVE",
"125 259 CURVE",
"126 268 LINE",
"192 268 OFFCURVE",
"224 306 OFFCURVE",
"236 371 CURVE SMOOTH",
"267 545 LINE SMOOTH",
"280 618 OFFCURVE",
"311 627 OFFCURVE",
"358 627 CURVE",
"366 686 LINE",
"283 686 OFFCURVE",
"174 678 OFFCURVE",
"158 560 CURVE SMOOTH",
"130 360 LINE SMOOTH",
"124 319 OFFCURVE",
"80 303 OFFCURVE",
"45 303 CURVE"
);
}
);
width = 347;
}
);
unicode = 007B;
},
{
glyphname = bar;
lastChange = "2014-09-05 18:36:05 +0000";
layers = (
{
background = {
paths = (
{
closed = 1;
nodes = (
"175 -199 LINE",
"175 720 LINE",
"75 720 LINE",
"75 -199 LINE"
);
}
);
};
layerId = "ED6E45DB-321E-4DDD-9C43-F5B1EDD266A1";
paths = (
{
closed = 1;
nodes = (
"175 -199 LINE",
"175 720 LINE",
"75 720 LINE",
"75 -199 LINE"
);
}
);
width = 250;
}
);
unicode = 007C;
},
{
glyphname = braceright;
lastChange = "2014-09-05 18:36:05 +0000";
layers = (
{
background = {
paths = (
{
closed = 1;
nodes = (
"311 303 LINE",
"273 303 OFFCURVE",
"242 317 OFFCURVE",
"242 359 CURVE",
"271 569 OFFCURVE",
"272 573 OFFCURVE",
"272 584 CURVE SMOOTH",
"272 680 OFFCURVE",
"173 686 OFFCURVE",
"98 686 CURVE",
"90 627 LINE",
"132 627 OFFCURVE",
"158 620 OFFCURVE",
"158 566 CURVE SMOOTH",
"158 510 OFFCURVE",
"139 408 OFFCURVE",
"139 349 CURVE SMOOTH",
"139 298 OFFCURVE",
"162 268 OFFCURVE",
"220 268 CURVE",
"219 259 LINE",
"153 259 OFFCURVE",
"121 221 OFFCURVE",
"109 156 CURVE SMOOTH",
"78 -18 LINE SMOOTH",
"65 -91 OFFCURVE",
"34 -100 OFFCURVE",
"-13 -100 CURVE",
"-21 -159 LINE",
"62 -159 OFFCURVE",
"171 -151 OFFCURVE",
"187 -33 CURVE SMOOTH",
"215 167 LINE SMOOTH",
"221 208 OFFCURVE",
"265 224 OFFCURVE",
"300 224 CURVE"
);
}
);
};
layerId = "ED6E45DB-321E-4DDD-9C43-F5B1EDD266A1";
paths = (
{
closed = 1;
nodes = (
"311 303 LINE",
"273 303 OFFCURVE",
"242 317 OFFCURVE",
"242 359 CURVE",
"271 569 OFFCURVE",
"272 573 OFFCURVE",
"272 584 CURVE SMOOTH",
"272 680 OFFCURVE",
"173 686 OFFCURVE",
"98 686 CURVE",
"90 627 LINE",
"132 627 OFFCURVE",
"158 620 OFFCURVE",
"158 566 CURVE SMOOTH",
"158 510 OFFCURVE",
"139 408 OFFCURVE",
"139 349 CURVE SMOOTH",
"139 298 OFFCURVE",
"162 268 OFFCURVE",
"220 268 CURVE",
"219 259 LINE",
"153 259 OFFCURVE",
"121 221 OFFCURVE",
"109 156 CURVE SMOOTH",
"78 -18 LINE SMOOTH",
"65 -91 OFFCURVE",
"34 -100 OFFCURVE",
"-13 -100 CURVE",
"-21 -159 LINE",
"62 -159 OFFCURVE",
"171 -151 OFFCURVE",
"187 -33 CURVE SMOOTH",
"215 167 LINE SMOOTH",
"221 208 OFFCURVE",
"265 224 OFFCURVE",
"300 224 CURVE"
);
}
);
width = 347;
}
);
unicode = 007D;
},
{
glyphname = asciitilde;
lastChange = "2014-09-05 18:36:05 +0000";
layers = (
{
background = {
paths = (
{
closed = 1;
nodes = (
"652 396 LINE",
"652 396 OFFCURVE",
"573 318 OFFCURVE",
"478 318 CURVE SMOOTH",
"390 318 OFFCURVE",
"335 384 OFFCURVE",
"250 384 CURVE SMOOTH",
"155 384 OFFCURVE",
"76 306 OFFCURVE",
"76 306 CURVE",
"61 200 LINE",
"61 200 OFFCURVE",
"140 278 OFFCURVE",
"235 278 CURVE SMOOTH",
"323 278 OFFCURVE",
"378 212 OFFCURVE",
"463 212 CURVE SMOOTH",
"558 212 OFFCURVE",
"637 290 OFFCURVE",
"637 290 CURVE"
);
}
);
};
layerId = "ED6E45DB-321E-4DDD-9C43-F5B1EDD266A1";
paths = (
{
closed = 1;
nodes = (
"652 396 LINE",
"652 396 OFFCURVE",
"573 318 OFFCURVE",
"478 318 CURVE SMOOTH",
"390 318 OFFCURVE",
"335 384 OFFCURVE",
"250 384 CURVE SMOOTH",
"155 384 OFFCURVE",
"76 306 OFFCURVE",
"76 306 CURVE",
"61 200 LINE",
"61 200 OFFCURVE",
"140 278 OFFCURVE",
"235 278 CURVE SMOOTH",
"323 278 OFFCURVE",
"378 212 OFFCURVE",
"463 212 CURVE SMOOTH",
"558 212 OFFCURVE",
"637 290 OFFCURVE",
"637 290 CURVE"
);
}
);
width = 714;
}
);
unicode = 007E;
},
{
glyphname = exclamdown;
lastChange = "2014-09-05 18:36:05 +0000";
layers = (
{
background = {
paths = (
{
closed = 1;
nodes = (
"266 511 LINE",
"120 511 LINE",
"99 364 LINE",
"245 364 LINE"
);
},
{
closed = 1;
nodes = (
"214 309 LINE",
"117 309 LINE",
"8 -175 LINE",
"185 -175 LINE"
);
}
);
};
layerId = "ED6E45DB-321E-4DDD-9C43-F5B1EDD266A1";
paths = (
{
closed = 1;
nodes = (
"266 511 LINE",
"120 511 LINE",
"99 364 LINE",
"245 364 LINE"
);
},
{
closed = 1;
nodes = (
"214 309 LINE",
"117 309 LINE",
"8 -175 LINE",
"185 -175 LINE"
);
}
);
width = 290;
}
);
unicode = 00A1;
},
{
glyphname = cent;
lastChange = "2014-09-05 18:36:05 +0000";
layers = (
{
background = {
paths = (
{
closed = 1;
nodes = (
"207 451 OFFCURVE",
"251 507 OFFCURVE",
"313 507 CURVE SMOOTH",
"366 507 OFFCURVE",
"390 472 OFFCURVE",
"390 420 CURVE SMOOTH",
"390 411 OFFCURVE",
"389 402 OFFCURVE",
"388 393 CURVE",
"533 393 LINE",
"535 405 OFFCURVE",
"535 416 OFFCURVE",
"535 427 CURVE SMOOTH",
"535 534 OFFCURVE",
"461 597 OFFCURVE",
"366 606 CURVE",
"392 693 LINE",
"291 693 LINE",
"291 605 LINE",
"114 587 OFFCURVE",
"38 431 OFFCURVE",
"38 278 CURVE SMOOTH",
"38 160 OFFCURVE",
"105 89 OFFCURVE",
"216 77 CURVE",
"192 -8 LINE",
"293 -8 LINE",
"293 77 LINE",
"399 86 OFFCURVE",
"498 152 OFFCURVE",
"518 289 CURVE",
"380 289 LINE",
"369 213 OFFCURVE",
"325 176 OFFCURVE",
"265 176 CURVE SMOOTH",
"212 176 OFFCURVE",
"184 216 OFFCURVE",
"184 269 CURVE SMOOTH",
"184 277 OFFCURVE",
"185 285 OFFCURVE",
"198 382 CURVE SMOOTH"
);
}
);
};
layerId = "ED6E45DB-321E-4DDD-9C43-F5B1EDD266A1";
paths = (
{
closed = 1;
nodes = (
"207 451 OFFCURVE",
"251 507 OFFCURVE",
"313 507 CURVE SMOOTH",
"366 507 OFFCURVE",
"390 472 OFFCURVE",
"390 420 CURVE SMOOTH",
"390 411 OFFCURVE",
"389 402 OFFCURVE",
"388 393 CURVE",
"533 393 LINE",
"535 405 OFFCURVE",
"535 416 OFFCURVE",
"535 427 CURVE SMOOTH",
"535 534 OFFCURVE",
"461 597 OFFCURVE",
"366 606 CURVE",
"392 693 LINE",
"291 693 LINE",
"291 605 LINE",
"114 587 OFFCURVE",
"38 431 OFFCURVE",
"38 278 CURVE SMOOTH",
"38 160 OFFCURVE",
"105 89 OFFCURVE",
"216 77 CURVE",
"192 -8 LINE",
"293 -8 LINE",
"293 77 LINE",
"399 86 OFFCURVE",
"498 152 OFFCURVE",
"518 289 CURVE",
"380 289 LINE",
"369 213 OFFCURVE",
"325 176 OFFCURVE",
"265 176 CURVE SMOOTH",
"212 176 OFFCURVE",
"184 216 OFFCURVE",
"184 269 CURVE SMOOTH",
"184 277 OFFCURVE",
"185 285 OFFCURVE",
"198 382 CURVE SMOOTH"
);
}
);
width = 571;
}
);
unicode = 00A2;
},
{
glyphname = sterling;
lastChange = "2014-09-05 18:36:05 +0000";
layers = (
{
background = {
paths = (
{
closed = 1;
nodes = (
"-3 279 LINE",
"106 279 LINE",
"83 118 LINE",
"6 118 LINE",
"-10 0 LINE",
"488 0 LINE",
"505 118 LINE",
"212 118 LINE",
"254 279 LINE",
"396 279 LINE",
"412 397 LINE",
"270 397 LINE",
"285 499 LINE SMOOTH",
"292 546 OFFCURVE",
"330 579 OFFCURVE",
"380 579 CURVE SMOOTH",
"422 579 OFFCURVE",
"450 546 OFFCURVE",
"450 508 CURVE SMOOTH",
"450 503 OFFCURVE",
"450 502 OFFCURVE",
"447 478 CURVE",
"596 478 LINE",
"600 507 OFFCURVE",
"600 509 OFFCURVE",
"600 527 CURVE SMOOTH",
"600 633 OFFCURVE",
"515 698 OFFCURVE",
"397 698 CURVE SMOOTH",
"259 698 OFFCURVE",
"152 613 OFFCURVE",
"133 476 CURVE SMOOTH",
"122 397 LINE",
"12 397 LINE"
);
}
);
};
layerId = "ED6E45DB-321E-4DDD-9C43-F5B1EDD266A1";
paths = (
{
closed = 1;
nodes = (
"-3 279 LINE",
"106 279 LINE",
"83 118 LINE",
"6 118 LINE",
"-10 0 LINE",
"488 0 LINE",
"505 118 LINE",
"212 118 LINE",
"254 279 LINE",
"396 279 LINE",
"412 397 LINE",
"270 397 LINE",
"285 499 LINE SMOOTH",
"292 546 OFFCURVE",
"330 579 OFFCURVE",
"380 579 CURVE SMOOTH",
"422 579 OFFCURVE",
"450 546 OFFCURVE",
"450 508 CURVE SMOOTH",
"450 503 OFFCURVE",
"450 502 OFFCURVE",
"447 478 CURVE",
"596 478 LINE",
"600 507 OFFCURVE",
"600 509 OFFCURVE",
"600 527 CURVE SMOOTH",
"600 633 OFFCURVE",
"515 698 OFFCURVE",
"397 698 CURVE SMOOTH",
"259 698 OFFCURVE",
"152 613 OFFCURVE",
"133 476 CURVE SMOOTH",
"122 397 LINE",
"12 397 LINE"
);
}
);
width = 654;
}
);
unicode = 00A3;
},
{
glyphname = currency;
lastChange = "2014-09-05 18:36:05 +0000";
layers = (
{
background = {
paths = (
{
closed = 1;
nodes = (
"78 259 OFFCURVE",
"89 222 OFFCURVE",
"110 192 CURVE",
"46 137 LINE",
"93 82 LINE",
"114 101 OFFCURVE",
"135 119 OFFCURVE",
"156 137 CURVE",
"189 107 OFFCURVE",
"239 90 OFFCURVE",
"295 90 CURVE SMOOTH",
"352 90 OFFCURVE",
"407 108 OFFCURVE",
"447 139 CURVE",
"461 122 OFFCURVE",
"476 104 OFFCURVE",
"496 83 CURVE",
"557 137 LINE",
"542 155 OFFCURVE",
"525 173 OFFCURVE",
"510 192 CURVE",
"554 239 OFFCURVE",
"580 308 OFFCURVE",
"580 377 CURVE SMOOTH",
"580 418 OFFCURVE",
"570 455 OFFCURVE",
"553 482 CURVE",
"615 537 LINE",
"598 556 OFFCURVE",
"582 575 OFFCURVE",
"566 595 CURVE",
"502 539 LINE",
"472 567 OFFCURVE",
"421 586 OFFCURVE",
"364 586 CURVE SMOOTH",
"310 586 OFFCURVE",
"253 567 OFFCURVE",
"213 539 CURVE",
"166 593 LINE",
"104 538 LINE",
"150 483 LINE",
"103 433 OFFCURVE",
"78 367 OFFCURVE",
"78 302 CURVE SMOOTH"
);
},
{
closed = 1;
nodes = (
"431 496 OFFCURVE",
"485 437 OFFCURVE",
"485 362 CURVE SMOOTH",
"485 265 OFFCURVE",
"403 179 OFFCURVE",
"307 179 CURVE SMOOTH",
"229 179 OFFCURVE",
"174 238 OFFCURVE",
"174 315 CURVE SMOOTH",
"174 411 OFFCURVE",
"260 496 OFFCURVE",
"352 496 CURVE SMOOTH"
);
}
);
};
layerId = "ED6E45DB-321E-4DDD-9C43-F5B1EDD266A1";
paths = (
{
closed = 1;
nodes = (
"78 259 OFFCURVE",
"89 222 OFFCURVE",
"110 192 CURVE",
"46 137 LINE",
"93 82 LINE",
"114 101 OFFCURVE",
"135 119 OFFCURVE",
"156 137 CURVE",
"189 107 OFFCURVE",
"239 90 OFFCURVE",
"295 90 CURVE SMOOTH",
"352 90 OFFCURVE",
"407 108 OFFCURVE",
"447 139 CURVE",
"461 122 OFFCURVE",
"476 104 OFFCURVE",
"496 83 CURVE",
"557 137 LINE",
"542 155 OFFCURVE",
"525 173 OFFCURVE",
"510 192 CURVE",
"554 239 OFFCURVE",
"580 308 OFFCURVE",
"580 377 CURVE SMOOTH",
"580 418 OFFCURVE",
"570 455 OFFCURVE",
"553 482 CURVE",
"615 537 LINE",
"598 556 OFFCURVE",
"582 575 OFFCURVE",
"566 595 CURVE",
"502 539 LINE",
"472 567 OFFCURVE",
"421 586 OFFCURVE",
"364 586 CURVE SMOOTH",
"310 586 OFFCURVE",
"253 567 OFFCURVE",
"213 539 CURVE",
"166 593 LINE",
"104 538 LINE",
"150 483 LINE",
"103 433 OFFCURVE",
"78 367 OFFCURVE",
"78 302 CURVE SMOOTH"
);
},
{
closed = 1;
nodes = (
"431 496 OFFCURVE",
"485 437 OFFCURVE",
"485 362 CURVE SMOOTH",
"485 265 OFFCURVE",
"403 179 OFFCURVE",
"307 179 CURVE SMOOTH",
"229 179 OFFCURVE",
"174 238 OFFCURVE",
"174 315 CURVE SMOOTH",
"174 411 OFFCURVE",
"260 496 OFFCURVE",
"352 496 CURVE SMOOTH"
);
}
);
width = 663;
}
);
unicode = 00A4;
},
{
glyphname = yen;
lastChange = "2014-09-05 18:36:05 +0000";
layers = (
{
background = {
paths = (
{
closed = 1;
nodes = (
"52 370 LINE",
"188 370 LINE",
"197 350 OFFCURVE",
"206 330 OFFCURVE",
"214 310 CURVE",
"44 310 LINE",
"33 231 LINE",
"229 231 LINE",
"196 0 LINE",
"349 0 LINE",
"382 231 LINE",
"582 231 LINE",
"593 310 LINE",
"419 310 LINE",
"460 370 LINE",
"601 370 LINE",
"612 448 LINE",
"514 448 LINE",
"680 686 LINE",
"522 686 LINE",
"462 595 OFFCURVE",
"401 504 OFFCURVE",
"340 414 CURVE",
"336 414 LINE",
"301 504 OFFCURVE",
"266 595 OFFCURVE",
"232 686 CURVE",
"58 686 LINE",
"156 448 LINE",
"63 448 LINE"
);
}
);
};
layerId = "ED6E45DB-321E-4DDD-9C43-F5B1EDD266A1";
paths = (
{
closed = 1;
nodes = (
"52 370 LINE",
"188 370 LINE",
"197 350 OFFCURVE",
"206 330 OFFCURVE",
"214 310 CURVE",
"44 310 LINE",
"33 231 LINE",
"229 231 LINE",
"196 0 LINE",
"349 0 LINE",
"382 231 LINE",
"582 231 LINE",
"593 310 LINE",
"419 310 LINE",
"460 370 LINE",
"601 370 LINE",
"612 448 LINE",
"514 448 LINE",
"680 686 LINE",
"522 686 LINE",
"462 595 OFFCURVE",
"401 504 OFFCURVE",
"340 414 CURVE",
"336 414 LINE",
"301 504 OFFCURVE",
"266 595 OFFCURVE",
"232 686 CURVE",
"58 686 LINE",
"156 448 LINE",
"63 448 LINE"
);
}
);
width = 642;
}
);
unicode = 00A5;
},
{
glyphname = brokenbar;
lastChange = "2014-09-05 18:36:05 +0000";
layers = (
{
background = {
paths = (
{
closed = 1;
nodes = (
"29 0 LINE",
"149 0 LINE",
"187 270 LINE",
"67 270 LINE"
);
},
{
closed = 1;
nodes = (
"88 415 LINE",
"208 415 LINE",
"246 686 LINE",
"126 686 LINE"
);
}
);
};
layerId = "ED6E45DB-321E-4DDD-9C43-F5B1EDD266A1";
paths = (
{
closed = 1;
nodes = (
"29 0 LINE",
"149 0 LINE",
"187 270 LINE",
"67 270 LINE"
);
},
{
closed = 1;
nodes = (
"88 415 LINE",
"208 415 LINE",
"246 686 LINE",
"126 686 LINE"
);
}
);
width = 277;
}
);
unicode = 00A6;
},
{
glyphname = section;
lastChange = "2014-09-05 18:36:05 +0000";
layers = (
{
background = {
paths = (
{
closed = 1;
nodes = (
"89 469 OFFCURVE",
"109 430 OFFCURVE",
"142 407 CURVE",
"90 381 OFFCURVE",
"37 315 OFFCURVE",
"37 236 CURVE SMOOTH",
"37 71 OFFCURVE",
"322 71 OFFCURVE",
"322 -29 CURVE SMOOTH",
"322 -63 OFFCURVE",
"287 -89 OFFCURVE",
"224 -89 CURVE SMOOTH",
"171 -89 OFFCURVE",
"144 -66 OFFCURVE",
"144 -35 CURVE SMOOTH",
"144 -27 LINE",
"16 -27 LINE",
"13 -39 OFFCURVE",
"12 -49 OFFCURVE",
"12 -58 CURVE SMOOTH",
"12 -143 OFFCURVE",
"102 -185 OFFCURVE",
"211 -185 CURVE SMOOTH",
"336 -185 OFFCURVE",
"460 -128 OFFCURVE",
"460 -4 CURVE SMOOTH",
"460 41 OFFCURVE",
"439 80 OFFCURVE",
"406 103 CURVE",
"458 129 OFFCURVE",
"511 195 OFFCURVE",
"511 274 CURVE SMOOTH",
"511 439 OFFCURVE",
"226 439 OFFCURVE",
"226 540 CURVE SMOOTH",
"226 573 OFFCURVE",
"261 599 OFFCURVE",
"325 599 CURVE SMOOTH",
"377 599 OFFCURVE",
"404 579 OFFCURVE",
"404 545 CURVE SMOOTH",
"404 536 LINE",
"533 536 LINE",
"536 556 OFFCURVE",
"536 562 OFFCURVE",
"536 567 CURVE SMOOTH",
"536 652 OFFCURVE",
"447 696 OFFCURVE",
"337 696 CURVE SMOOTH",
"220 696 OFFCURVE",
"89 644 OFFCURVE",
"89 513 CURVE SMOOTH"
);
},
{
closed = 1;
nodes = (
"267 181 OFFCURVE",
"165 212 OFFCURVE",
"165 281 CURVE SMOOTH",
"165 318 OFFCURVE",
"195 347 OFFCURVE",
"220 359 CURVE",
"283 326 OFFCURVE",
"386 296 OFFCURVE",
"386 227 CURVE SMOOTH",
"386 192 OFFCURVE",
"360 164 OFFCURVE",
"332 149 CURVE"
);
}
);
};
layerId = "ED6E45DB-321E-4DDD-9C43-F5B1EDD266A1";
paths = (
{
closed = 1;
nodes = (
"89 469 OFFCURVE",
"109 430 OFFCURVE",
"142 407 CURVE",
"90 381 OFFCURVE",
"37 315 OFFCURVE",
"37 236 CURVE SMOOTH",
"37 71 OFFCURVE",
"322 71 OFFCURVE",
"322 -29 CURVE SMOOTH",
"322 -63 OFFCURVE",
"287 -89 OFFCURVE",
"224 -89 CURVE SMOOTH",
"171 -89 OFFCURVE",
"144 -66 OFFCURVE",
"144 -35 CURVE SMOOTH",
"144 -27 LINE",
"16 -27 LINE",
"13 -39 OFFCURVE",
"12 -49 OFFCURVE",
"12 -58 CURVE SMOOTH",
"12 -143 OFFCURVE",
"102 -185 OFFCURVE",
"211 -185 CURVE SMOOTH",
"336 -185 OFFCURVE",
"460 -128 OFFCURVE",
"460 -4 CURVE SMOOTH",
"460 41 OFFCURVE",
"439 80 OFFCURVE",
"406 103 CURVE",
"458 129 OFFCURVE",
"511 195 OFFCURVE",
"511 274 CURVE SMOOTH",
"511 439 OFFCURVE",
"226 439 OFFCURVE",
"226 540 CURVE SMOOTH",
"226 573 OFFCURVE",
"261 599 OFFCURVE",
"325 599 CURVE SMOOTH",
"377 599 OFFCURVE",
"404 579 OFFCURVE",
"404 545 CURVE SMOOTH",
"404 536 LINE",
"533 536 LINE",
"536 556 OFFCURVE",
"536 562 OFFCURVE",
"536 567 CURVE SMOOTH",
"536 652 OFFCURVE",
"447 696 OFFCURVE",
"337 696 CURVE SMOOTH",
"220 696 OFFCURVE",
"89 644 OFFCURVE",
"89 513 CURVE SMOOTH"
);
},
{
closed = 1;
nodes = (
"267 181 OFFCURVE",
"165 212 OFFCURVE",
"165 281 CURVE SMOOTH",
"165 318 OFFCURVE",
"195 347 OFFCURVE",
"220 359 CURVE",
"283 326 OFFCURVE",
"386 296 OFFCURVE",
"386 227 CURVE SMOOTH",
"386 192 OFFCURVE",
"360 164 OFFCURVE",
"332 149 CURVE"
);
}
);
width = 550;
}
);
unicode = 00A7;
},
{
glyphname = dieresis;
lastChange = "2014-09-05 18:36:05 +0000";
layers = (
{
anchors = (
{
name = _top;
position = "{197, 511}";
}
);
background = {
anchors = (
{
name = _top;
position = "{197, 511}";
}
);
paths = (
{
closed = 1;
nodes = (
"50 618 LINE",
"171 618 LINE",
"188 740 LINE",
"67 740 LINE"
);
},
{
closed = 1;
nodes = (
"254 618 LINE",
"375 618 LINE",
"392 740 LINE",
"271 740 LINE"
);
}
);
};
layerId = "ED6E45DB-321E-4DDD-9C43-F5B1EDD266A1";
paths = (
{
closed = 1;
nodes = (
"50 618 LINE",
"171 618 LINE",
"188 740 LINE",
"67 740 LINE"
);
},
{
closed = 1;
nodes = (
"254 618 LINE",
"375 618 LINE",
"392 740 LINE",
"271 740 LINE"
);
}
);
width = 440;
}
);
unicode = 00A8;
},
{
glyphname = copyright;
lastChange = "2014-09-05 18:36:05 +0000";
layers = (
{
background = {
paths = (
{
closed = 1;
nodes = (
"724 539 OFFCURVE",
"565 696 OFFCURVE",
"370 696 CURVE SMOOTH",
"174 696 OFFCURVE",
"16 539 OFFCURVE",
"16 344 CURVE SMOOTH",
"16 147 OFFCURVE",
"174 -10 OFFCURVE",
"370 -10 CURVE SMOOTH",
"565 -10 OFFCURVE",
"724 147 OFFCURVE",
"724 344 CURVE SMOOTH"
);
},
{
closed = 1;
nodes = (
"665 165 OFFCURVE",
"542 42 OFFCURVE",
"370 42 CURVE SMOOTH",
"195 42 OFFCURVE",
"74 165 OFFCURVE",
"74 344 CURVE SMOOTH",
"74 519 OFFCURVE",
"195 643 OFFCURVE",
"370 643 CURVE SMOOTH",
"542 643 OFFCURVE",
"665 519 OFFCURVE",
"665 344 CURVE SMOOTH"
);
},
{
closed = 1;
nodes = (
"287 386 LINE SMOOTH",
"287 449 OFFCURVE",
"325 482 OFFCURVE",
"374 482 CURVE SMOOTH",
"426 482 OFFCURVE",
"455 449 OFFCURVE",
"455 386 CURVE",
"543 386 LINE",
"543 500 OFFCURVE",
"470 556 OFFCURVE",
"376 556 CURVE SMOOTH",
"368 556 LINE SMOOTH",
"269 556 OFFCURVE",
"189 490 OFFCURVE",
"189 373 CURVE SMOOTH",
"189 314 LINE SMOOTH",
"189 193 OFFCURVE",
"267 130 OFFCURVE",
"370 130 CURVE SMOOTH",
"379 130 LINE SMOOTH",
"471 130 OFFCURVE",
"543 189 OFFCURVE",
"543 299 CURVE",
"458 299 LINE",
"458 234 OFFCURVE",
"432 204 OFFCURVE",
"374 204 CURVE SMOOTH",
"326 204 OFFCURVE",
"287 237 OFFCURVE",
"287 300 CURVE SMOOTH"
);
}
);
};
layerId = "ED6E45DB-321E-4DDD-9C43-F5B1EDD266A1";
paths = (
{
closed = 1;
nodes = (
"724 539 OFFCURVE",
"565 696 OFFCURVE",
"370 696 CURVE SMOOTH",
"174 696 OFFCURVE",
"16 539 OFFCURVE",
"16 344 CURVE SMOOTH",
"16 147 OFFCURVE",
"174 -10 OFFCURVE",
"370 -10 CURVE SMOOTH",
"565 -10 OFFCURVE",
"724 147 OFFCURVE",
"724 344 CURVE SMOOTH"
);
},
{
closed = 1;
nodes = (
"665 165 OFFCURVE",
"542 42 OFFCURVE",
"370 42 CURVE SMOOTH",
"195 42 OFFCURVE",
"74 165 OFFCURVE",
"74 344 CURVE SMOOTH",
"74 519 OFFCURVE",
"195 643 OFFCURVE",
"370 643 CURVE SMOOTH",
"542 643 OFFCURVE",
"665 519 OFFCURVE",
"665 344 CURVE SMOOTH"
);
},
{
closed = 1;
nodes = (
"287 386 LINE SMOOTH",
"287 449 OFFCURVE",
"325 482 OFFCURVE",
"374 482 CURVE SMOOTH",
"426 482 OFFCURVE",
"455 449 OFFCURVE",
"455 386 CURVE",
"543 386 LINE",
"543 500 OFFCURVE",
"470 556 OFFCURVE",
"376 556 CURVE SMOOTH",
"368 556 LINE SMOOTH",
"269 556 OFFCURVE",
"189 490 OFFCURVE",
"189 373 CURVE SMOOTH",
"189 314 LINE SMOOTH",
"189 193 OFFCURVE",
"267 130 OFFCURVE",
"370 130 CURVE SMOOTH",
"379 130 LINE SMOOTH",
"471 130 OFFCURVE",
"543 189 OFFCURVE",
"543 299 CURVE",
"458 299 LINE",
"458 234 OFFCURVE",
"432 204 OFFCURVE",
"374 204 CURVE SMOOTH",
"326 204 OFFCURVE",
"287 237 OFFCURVE",
"287 300 CURVE SMOOTH"
);
}
);
width = 740;
}
);
unicode = 00A9;
},
{
glyphname = ordfeminine;
lastChange = "2014-09-05 18:36:05 +0000";
layers = (
{
background = {
paths = (
{
closed = 1;
nodes = (
"276 690 LINE",
"256 652 LINE",
"252 652 LINE",
"236 679 OFFCURVE",
"205 696 OFFCURVE",
"168 696 CURVE SMOOTH",
"77 696 OFFCURVE",
"22 605 OFFCURVE",
"22 496 CURVE SMOOTH",
"22 420 OFFCURVE",
"58 374 OFFCURVE",
"126 374 CURVE SMOOTH",
"165 374 OFFCURVE",
"198 393 OFFCURVE",
"222 420 CURVE",
"225 390 OFFCURVE",
"245 374 OFFCURVE",
"286 374 CURVE SMOOTH",
"307 374 OFFCURVE",
"328 380 OFFCURVE",
"341 387 CURVE",
"349 443 LINE",
"343 439 OFFCURVE",
"332 435 OFFCURVE",
"324 435 CURVE SMOOTH",
"314 435 OFFCURVE",
"308 441 OFFCURVE",
"308 451 CURVE SMOOTH",
"308 460 OFFCURVE",
"333 635 OFFCURVE",
"341 690 CURVE"
);
},
{
closed = 1;
nodes = (
"220 459 OFFCURVE",
"191 435 OFFCURVE",
"159 435 CURVE SMOOTH",
"129 435 OFFCURVE",
"109 453 OFFCURVE",
"109 491 CURVE SMOOTH",
"109 496 OFFCURVE",
"110 502 OFFCURVE",
"118 558 CURVE SMOOTH",
"125 607 OFFCURVE",
"153 632 OFFCURVE",
"186 632 CURVE SMOOTH",
"215 632 OFFCURVE",
"236 613 OFFCURVE",
"236 575 CURVE SMOOTH",
"236 570 OFFCURVE",
"235 564 OFFCURVE",
"227 508 CURVE SMOOTH"
);
}
);
};
layerId = "ED6E45DB-321E-4DDD-9C43-F5B1EDD266A1";
paths = (
{
closed = 1;
nodes = (
"276 690 LINE",
"256 652 LINE",
"252 652 LINE",
"236 679 OFFCURVE",
"205 696 OFFCURVE",
"168 696 CURVE SMOOTH",
"77 696 OFFCURVE",
"22 605 OFFCURVE",
"22 496 CURVE SMOOTH",
"22 420 OFFCURVE",
"58 374 OFFCURVE",
"126 374 CURVE SMOOTH",
"165 374 OFFCURVE",
"198 393 OFFCURVE",
"222 420 CURVE",
"225 390 OFFCURVE",
"245 374 OFFCURVE",
"286 374 CURVE SMOOTH",
"307 374 OFFCURVE",
"328 380 OFFCURVE",
"341 387 CURVE",
"349 443 LINE",
"343 439 OFFCURVE",
"332 435 OFFCURVE",
"324 435 CURVE SMOOTH",
"314 435 OFFCURVE",
"308 441 OFFCURVE",
"308 451 CURVE SMOOTH",
"308 460 OFFCURVE",
"333 635 OFFCURVE",
"341 690 CURVE"
);
},
{
closed = 1;
nodes = (
"220 459 OFFCURVE",
"191 435 OFFCURVE",
"159 435 CURVE SMOOTH",
"129 435 OFFCURVE",
"109 453 OFFCURVE",
"109 491 CURVE SMOOTH",
"109 496 OFFCURVE",
"110 502 OFFCURVE",
"118 558 CURVE SMOOTH",
"125 607 OFFCURVE",
"153 632 OFFCURVE",
"186 632 CURVE SMOOTH",
"215 632 OFFCURVE",
"236 613 OFFCURVE",
"236 575 CURVE SMOOTH",
"236 570 OFFCURVE",
"235 564 OFFCURVE",
"227 508 CURVE SMOOTH"
);
}
);
width = 389;
}
);
unicode = 00AA;
},
{
glyphname = guillemetleft;
lastChange = "2014-09-05 18:36:05 +0000";
layers = (
{
background = {
paths = (
{
closed = 1;
nodes = (
"387 163 LINE",
"323 337 LINE",
"436 511 LINE",
"374 511 LINE",
"228 337 LINE",
"325 163 LINE"
);
},
{
closed = 1;
nodes = (
"205 163 LINE",
"141 337 LINE",
"254 511 LINE",
"192 511 LINE",
"47 337 LINE",
"143 163 LINE"
);
}
);
};
layerId = "ED6E45DB-321E-4DDD-9C43-F5B1EDD266A1";
paths = (
{
closed = 1;
nodes = (
"387 163 LINE",
"323 337 LINE",
"436 511 LINE",
"374 511 LINE",
"228 337 LINE",
"325 163 LINE"
);
},
{
closed = 1;
nodes = (
"205 163 LINE",
"141 337 LINE",
"254 511 LINE",
"192 511 LINE",
"47 337 LINE",
"143 163 LINE"
);
}
);
width = 459;
}
);
unicode = 00AB;
},
{
glyphname = logicalnot;
lastChange = "2014-09-05 18:36:05 +0000";
layers = (
{
background = {
paths = (
{
closed = 1;
nodes = (
"585 468 LINE",
"56 468 LINE",
"39 347 LINE",
"451 347 LINE",
"425 166 LINE",
"542 166 LINE"
);
}
);
};
layerId = "ED6E45DB-321E-4DDD-9C43-F5B1EDD266A1";
paths = (
{
closed = 1;
nodes = (
"585 468 LINE",
"56 468 LINE",
"39 347 LINE",
"451 347 LINE",
"425 166 LINE",
"542 166 LINE"
);
}
);
width = 600;
}
);
unicode = 00AC;
},
{
glyphname = softhyphen;
lastChange = "2014-09-05 18:36:05 +0000";
layers = (
{
background = {
paths = (
{
closed = 1;
nodes = (
"-8 208 LINE",
"244 208 LINE",
"261 336 LINE",
"8 336 LINE"
);
}
);
};
layerId = "ED6E45DB-321E-4DDD-9C43-F5B1EDD266A1";
paths = (
{
closed = 1;
nodes = (
"-8 208 LINE",
"244 208 LINE",
"261 336 LINE",
"8 336 LINE"
);
}
);
width = 260;
}
);
unicode = 00AD;
},
{
glyphname = registered;
lastChange = "2014-09-05 18:36:05 +0000";
layers = (
{
background = {
paths = (
{
closed = 1;
nodes = (
"724 539 OFFCURVE",
"565 696 OFFCURVE",
"370 696 CURVE SMOOTH",
"174 696 OFFCURVE",
"16 539 OFFCURVE",
"16 344 CURVE SMOOTH",
"16 147 OFFCURVE",
"174 -10 OFFCURVE",
"370 -10 CURVE SMOOTH",
"565 -10 OFFCURVE",
"724 147 OFFCURVE",
"724 344 CURVE SMOOTH"
);
},
{
closed = 1;
nodes = (
"666 165 OFFCURVE",
"542 42 OFFCURVE",
"370 42 CURVE SMOOTH",
"195 42 OFFCURVE",
"74 165 OFFCURVE",
"74 344 CURVE SMOOTH",
"74 520 OFFCURVE",
"195 644 OFFCURVE",
"370 644 CURVE SMOOTH",
"542 644 OFFCURVE",
"666 520 OFFCURVE",
"666 344 CURVE SMOOTH"
);
},
{
closed = 1;
nodes = (
"562 161 LINE",
"535 169 OFFCURVE",
"531 210 OFFCURVE",
"531 237 CURVE SMOOTH",
"531 305 OFFCURVE",
"494 337 OFFCURVE",
"465 346 CURVE",
"465 351 LINE",
"507 359 OFFCURVE",
"539 404 OFFCURVE",
"539 448 CURVE SMOOTH",
"539 527 OFFCURVE",
"468 551 OFFCURVE",
"399 551 CURVE SMOOTH",
"214 551 LINE",
"214 137 LINE",
"306 137 LINE",
"306 308 LINE",
"376 308 LINE SMOOTH",
"430 308 OFFCURVE",
"441 258 OFFCURVE",
"441 198 CURVE SMOOTH",
"441 147 OFFCURVE",
"474 132 OFFCURVE",
"510 132 CURVE SMOOTH",
"527 132 OFFCURVE",
"548 135 OFFCURVE",
"562 140 CURVE"
);
},
{
closed = 1;
nodes = (
"306 381 LINE",
"306 476 LINE",
"396 476 LINE SMOOTH",
"425 476 OFFCURVE",
"445 457 OFFCURVE",
"445 431 CURVE SMOOTH",
"445 426 LINE SMOOTH",
"445 401 OFFCURVE",
"423 381 OFFCURVE",
"396 381 CURVE SMOOTH"
);
}
);
};
layerId = "ED6E45DB-321E-4DDD-9C43-F5B1EDD266A1";
paths = (
{
closed = 1;
nodes = (
"724 539 OFFCURVE",
"565 696 OFFCURVE",
"370 696 CURVE SMOOTH",
"174 696 OFFCURVE",
"16 539 OFFCURVE",
"16 344 CURVE SMOOTH",
"16 147 OFFCURVE",
"174 -10 OFFCURVE",
"370 -10 CURVE SMOOTH",
"565 -10 OFFCURVE",
"724 147 OFFCURVE",
"724 344 CURVE SMOOTH"
);
},
{
closed = 1;
nodes = (
"666 165 OFFCURVE",
"542 42 OFFCURVE",
"370 42 CURVE SMOOTH",
"195 42 OFFCURVE",
"74 165 OFFCURVE",
"74 344 CURVE SMOOTH",
"74 520 OFFCURVE",
"195 644 OFFCURVE",
"370 644 CURVE SMOOTH",
"542 644 OFFCURVE",
"666 520 OFFCURVE",
"666 344 CURVE SMOOTH"
);
},
{
closed = 1;
nodes = (
"562 161 LINE",
"535 169 OFFCURVE",
"531 210 OFFCURVE",
"531 237 CURVE SMOOTH",
"531 305 OFFCURVE",
"494 337 OFFCURVE",
"465 346 CURVE",
"465 351 LINE",
"507 359 OFFCURVE",
"539 404 OFFCURVE",
"539 448 CURVE SMOOTH",
"539 527 OFFCURVE",
"468 551 OFFCURVE",
"399 551 CURVE SMOOTH",
"214 551 LINE",
"214 137 LINE",
"306 137 LINE",
"306 308 LINE",
"376 308 LINE SMOOTH",
"430 308 OFFCURVE",
"441 258 OFFCURVE",
"441 198 CURVE SMOOTH",
"441 147 OFFCURVE",
"474 132 OFFCURVE",
"510 132 CURVE SMOOTH",
"527 132 OFFCURVE",
"548 135 OFFCURVE",
"562 140 CURVE"
);
},
{
closed = 1;
nodes = (
"306 381 LINE",
"306 476 LINE",
"396 476 LINE SMOOTH",
"425 476 OFFCURVE",
"445 457 OFFCURVE",
"445 431 CURVE SMOOTH",
"445 426 LINE SMOOTH",
"445 401 OFFCURVE",
"423 381 OFFCURVE",
"396 381 CURVE SMOOTH"
);
}
);
width = 740;
}
);
unicode = 00AE;
},
{
glyphname = macron;
lastChange = "2014-09-05 18:36:05 +0000";
layers = (
{
anchors = (
{
name = _top;
position = "{203, 511}";
}
);
background = {
anchors = (
{
name = _top;
position = "{203, 511}";
}
);
paths = (
{
closed = 1;
nodes = (
"383 662 LINE",
"394 736 LINE",
"76 736 LINE",
"65 662 LINE"
);
}
);
};
layerId = "ED6E45DB-321E-4DDD-9C43-F5B1EDD266A1";
paths = (
{
closed = 1;
nodes = (
"383 662 LINE",
"394 736 LINE",
"76 736 LINE",
"65 662 LINE"
);
}
);
width = 460;
}
);
unicode = 00AF;
},
{
glyphname = degree;
lastChange = "2014-09-05 18:36:05 +0000";
layers = (
{
background = {
paths = (
{
closed = 1;
nodes = (
"352 637 OFFCURVE",
"299 696 OFFCURVE",
"214 696 CURVE SMOOTH",
"129 696 OFFCURVE",
"47 627 OFFCURVE",
"47 530 CURVE SMOOTH",
"47 453 OFFCURVE",
"100 396 OFFCURVE",
"184 396 CURVE SMOOTH",
"272 396 OFFCURVE",
"352 466 OFFCURVE",
"352 561 CURVE SMOOTH"
);
},
{
closed = 1;
nodes = (
"151 467 OFFCURVE",
"124 497 OFFCURVE",
"124 539 CURVE SMOOTH",
"124 588 OFFCURVE",
"163 623 OFFCURVE",
"204 623 CURVE SMOOTH",
"254 623 OFFCURVE",
"274 585 OFFCURVE",
"274 553 CURVE SMOOTH",
"274 502 OFFCURVE",
"236 467 OFFCURVE",
"193 467 CURVE SMOOTH"
);
}
);
};
layerId = "ED6E45DB-321E-4DDD-9C43-F5B1EDD266A1";
paths = (
{
closed = 1;
nodes = (
"352 637 OFFCURVE",
"299 696 OFFCURVE",
"214 696 CURVE SMOOTH",
"129 696 OFFCURVE",
"47 627 OFFCURVE",
"47 530 CURVE SMOOTH",
"47 453 OFFCURVE",
"100 396 OFFCURVE",
"184 396 CURVE SMOOTH",
"272 396 OFFCURVE",
"352 466 OFFCURVE",
"352 561 CURVE SMOOTH"
);
},
{
closed = 1;
nodes = (
"151 467 OFFCURVE",
"124 497 OFFCURVE",
"124 539 CURVE SMOOTH",
"124 588 OFFCURVE",
"163 623 OFFCURVE",
"204 623 CURVE SMOOTH",
"254 623 OFFCURVE",
"274 585 OFFCURVE",
"274 553 CURVE SMOOTH",
"274 502 OFFCURVE",
"236 467 OFFCURVE",
"193 467 CURVE SMOOTH"
);
}
);
width = 400;
}
);
unicode = 00B0;
},
{
glyphname = plusminus;
lastChange = "2014-09-05 18:36:05 +0000";
layers = (
{
background = {
paths = (
{
closed = 1;
nodes = (
"517 0 LINE",
"531 105 LINE",
"24 105 LINE",
"10 0 LINE"
);
},
{
closed = 1;
nodes = (
"387 511 LINE",
"282 511 LINE",
"264 382 LINE",
"61 382 LINE",
"46 276 LINE",
"249 276 LINE",
"231 147 LINE",
"336 147 LINE",
"354 276 LINE",
"558 276 LINE",
"573 382 LINE",
"369 382 LINE"
);
}
);
};
layerId = "ED6E45DB-321E-4DDD-9C43-F5B1EDD266A1";
paths = (
{
closed = 1;
nodes = (
"517 0 LINE",
"531 105 LINE",
"24 105 LINE",
"10 0 LINE"
);
},
{
closed = 1;
nodes = (
"387 511 LINE",
"282 511 LINE",
"264 382 LINE",
"61 382 LINE",
"46 276 LINE",
"249 276 LINE",
"231 147 LINE",
"336 147 LINE",
"354 276 LINE",
"558 276 LINE",
"573 382 LINE",
"369 382 LINE"
);
}
);
width = 600;
}
);
unicode = 00B1;
},
{
glyphname = twosuperior;
lastChange = "2014-09-05 18:36:05 +0000";
layers = (
{
background = {
paths = (
{
closed = 1;
nodes = (
"326 751 OFFCURVE",
"290 802 OFFCURVE",
"206 802 CURVE SMOOTH",
"52 802 OFFCURVE",
"49 674 OFFCURVE",
"49 664 CURVE",
"125 664 LINE",
"125 705 OFFCURVE",
"152 735 OFFCURVE",
"193 735 CURVE SMOOTH",
"226 735 OFFCURVE",
"243 715 OFFCURVE",
"243 690 CURVE SMOOTH",
"243 592 OFFCURVE",
"14 570 OFFCURVE",
"14 419 CURVE",
"291 419 LINE",
"300 490 LINE",
"133 490 LINE",
"158 528 OFFCURVE",
"326 577 OFFCURVE",
"326 695 CURVE SMOOTH"
);
}
);
};
layerId = "ED6E45DB-321E-4DDD-9C43-F5B1EDD266A1";
paths = (
{
closed = 1;
nodes = (
"326 751 OFFCURVE",
"290 802 OFFCURVE",
"206 802 CURVE SMOOTH",
"52 802 OFFCURVE",
"49 674 OFFCURVE",
"49 664 CURVE",
"125 664 LINE",
"125 705 OFFCURVE",
"152 735 OFFCURVE",
"193 735 CURVE SMOOTH",
"226 735 OFFCURVE",
"243 715 OFFCURVE",
"243 690 CURVE SMOOTH",
"243 592 OFFCURVE",
"14 570 OFFCURVE",
"14 419 CURVE",
"291 419 LINE",
"300 490 LINE",
"133 490 LINE",
"158 528 OFFCURVE",
"326 577 OFFCURVE",
"326 695 CURVE SMOOTH"
);
}
);
width = 505;
}
);
unicode = 00B2;
},
{
glyphname = threesuperior;
lastChange = "2014-09-05 18:36:05 +0000";
layers = (
{
background = {
paths = (
{
closed = 1;
nodes = (
"25 530 LINE",
"24 525 OFFCURVE",
"22 514 OFFCURVE",
"22 505 CURVE SMOOTH",
"22 451 OFFCURVE",
"64 412 OFFCURVE",
"145 412 CURVE SMOOTH",
"159 412 LINE SMOOTH",
"243 412 OFFCURVE",
"313 459 OFFCURVE",
"313 537 CURVE SMOOTH",
"313 576 OFFCURVE",
"292 600 OFFCURVE",
"259 611 CURVE",
"259 616 LINE",
"297 632 OFFCURVE",
"328 663 OFFCURVE",
"328 711 CURVE SMOOTH",
"328 763 OFFCURVE",
"282 800 OFFCURVE",
"214 800 CURVE SMOOTH",
"203 800 LINE SMOOTH",
"125 800 OFFCURVE",
"60 756 OFFCURVE",
"56 686 CURVE",
"129 686 LINE",
"134 718 OFFCURVE",
"162 735 OFFCURVE",
"193 735 CURVE SMOOTH",
"223 735 OFFCURVE",
"245 722 OFFCURVE",
"245 695 CURVE SMOOTH",
"245 658 OFFCURVE",
"214 639 OFFCURVE",
"181 639 CURVE SMOOTH",
"136 639 LINE",
"128 580 LINE",
"167 580 LINE SMOOTH",
"199 580 OFFCURVE",
"232 576 OFFCURVE",
"232 539 CURVE SMOOTH",
"232 497 OFFCURVE",
"201 477 OFFCURVE",
"157 477 CURVE SMOOTH",
"118 477 OFFCURVE",
"98 492 OFFCURVE",
"98 519 CURVE SMOOTH",
"98 521 OFFCURVE",
"98 524 OFFCURVE",
"99 530 CURVE"
);
}
);
};
layerId = "ED6E45DB-321E-4DDD-9C43-F5B1EDD266A1";
paths = (
{
closed = 1;
nodes = (
"25 530 LINE",
"24 525 OFFCURVE",
"22 514 OFFCURVE",
"22 505 CURVE SMOOTH",
"22 451 OFFCURVE",
"64 412 OFFCURVE",
"145 412 CURVE SMOOTH",
"159 412 LINE SMOOTH",
"243 412 OFFCURVE",
"313 459 OFFCURVE",
"313 537 CURVE SMOOTH",
"313 576 OFFCURVE",
"292 600 OFFCURVE",
"259 611 CURVE",
"259 616 LINE",
"297 632 OFFCURVE",
"328 663 OFFCURVE",
"328 711 CURVE SMOOTH",
"328 763 OFFCURVE",
"282 800 OFFCURVE",
"214 800 CURVE SMOOTH",
"203 800 LINE SMOOTH",
"125 800 OFFCURVE",
"60 756 OFFCURVE",
"56 686 CURVE",
"129 686 LINE",
"134 718 OFFCURVE",
"162 735 OFFCURVE",
"193 735 CURVE SMOOTH",
"223 735 OFFCURVE",
"245 722 OFFCURVE",
"245 695 CURVE SMOOTH",
"245 658 OFFCURVE",
"214 639 OFFCURVE",
"181 639 CURVE SMOOTH",
"136 639 LINE",
"128 580 LINE",
"167 580 LINE SMOOTH",
"199 580 OFFCURVE",
"232 576 OFFCURVE",
"232 539 CURVE SMOOTH",
"232 497 OFFCURVE",
"201 477 OFFCURVE",
"157 477 CURVE SMOOTH",
"118 477 OFFCURVE",
"98 492 OFFCURVE",
"98 519 CURVE SMOOTH",
"98 521 OFFCURVE",
"98 524 OFFCURVE",
"99 530 CURVE"
);
}
);
width = 506;
}
);
unicode = 00B3;
},
{
glyphname = acute;
lastChange = "2014-09-05 18:50:00 +0000";
layers = (
{
anchors = (
{
name = _top;
position = "{122, 511}";
}
);
background = {
anchors = (
{
name = _top;
position = "{142, 511}";
}
);
paths = (
{
closed = 1;
nodes = (
"141 575 LINE",
"282 716 LINE",
"282 720 LINE",
"153 720 LINE",
"40 575 LINE"
);
}
);
};
layerId = "ED6E45DB-321E-4DDD-9C43-F5B1EDD266A1";
paths = (
{
closed = 1;
nodes = (
"141 575 LINE",
"282 716 LINE",
"282 720 LINE",
"153 720 LINE",
"40 575 LINE"
);
}
);
width = 333;
}
);
unicode = 00B4;
},
{
glyphname = paragraph;
lastChange = "2014-09-05 18:36:05 +0000";
layers = (
{
background = {
paths = (
{
closed = 1;
nodes = (
"165 -165 LINE",
"241 -165 LINE",
"350 616 LINE",
"424 616 LINE",
"315 -165 LINE",
"390 -165 LINE",
"499 616 LINE",
"565 616 LINE",
"575 686 LINE",
"302 686 LINE SMOOTH",
"171 686 OFFCURVE",
"53 583 OFFCURVE",
"53 437 CURVE SMOOTH",
"53 336 OFFCURVE",
"122 259 OFFCURVE",
"223 251 CURVE"
);
}
);
};
layerId = "ED6E45DB-321E-4DDD-9C43-F5B1EDD266A1";
paths = (
{
closed = 1;
nodes = (
"165 -165 LINE",
"241 -165 LINE",
"350 616 LINE",
"424 616 LINE",
"315 -165 LINE",
"390 -165 LINE",
"499 616 LINE",
"565 616 LINE",
"575 686 LINE",
"302 686 LINE SMOOTH",
"171 686 OFFCURVE",
"53 583 OFFCURVE",
"53 437 CURVE SMOOTH",
"53 336 OFFCURVE",
"122 259 OFFCURVE",
"223 251 CURVE"
);
}
);
width = 526;
}
);
unicode = 00B6;
},
{
glyphname = periodcentered;
lastChange = "2014-09-05 18:36:05 +0000";
layers = (
{
background = {
paths = (
{
closed = 1;
nodes = (
"54 214 LINE",
"200 214 LINE",
"221 362 LINE",
"75 362 LINE"
);
}
);
};
layerId = "ED6E45DB-321E-4DDD-9C43-F5B1EDD266A1";
paths = (
{
closed = 1;
nodes = (
"54 214 LINE",
"200 214 LINE",
"221 362 LINE",
"75 362 LINE"
);
}
);
width = 277;
}
);
unicode = 00B7;
},
{
glyphname = cedilla;
lastChange = "2014-09-05 18:36:05 +0000";
layers = (
{
anchors = (
{
name = _bottom;
position = "{183, 0}";
}
);
background = {
anchors = (
{
name = _bottom;
position = "{183, 0}";
}
);
paths = (
{
closed = 1;
nodes = (
"49 -168 LINE",
"73 -187 OFFCURVE",
"116 -197 OFFCURVE",
"153 -197 CURVE SMOOTH",
"199 -197 OFFCURVE",
"286 -180 OFFCURVE",
"286 -91 CURVE SMOOTH",
"286 -32 OFFCURVE",
"233 -17 OFFCURVE",
"181 -17 CURVE SMOOTH",
"158 -17 LINE",
"151 -68 LINE",
"171 -68 LINE SMOOTH",
"197 -68 OFFCURVE",
"211 -79 OFFCURVE",
"211 -99 CURVE SMOOTH",
"211 -130 OFFCURVE",
"184 -142 OFFCURVE",
"157 -142 CURVE SMOOTH",
"110 -142 OFFCURVE",
"83 -119 OFFCURVE",
"77 -116 CURVE"
);
}
);
};
layerId = "ED6E45DB-321E-4DDD-9C43-F5B1EDD266A1";
paths = (
{
closed = 1;
nodes = (
"49 -168 LINE",
"73 -187 OFFCURVE",
"116 -197 OFFCURVE",
"153 -197 CURVE SMOOTH",
"199 -197 OFFCURVE",
"286 -180 OFFCURVE",
"286 -91 CURVE SMOOTH",
"286 -32 OFFCURVE",
"233 -17 OFFCURVE",
"181 -17 CURVE SMOOTH",
"158 -17 LINE",
"151 -68 LINE",
"171 -68 LINE SMOOTH",
"197 -68 OFFCURVE",
"211 -79 OFFCURVE",
"211 -99 CURVE SMOOTH",
"211 -130 OFFCURVE",
"184 -142 OFFCURVE",
"157 -142 CURVE SMOOTH",
"110 -142 OFFCURVE",
"83 -119 OFFCURVE",
"77 -116 CURVE"
);
}
);
width = 342;
}
);
unicode = 00B8;
},
{
glyphname = onesuperior;
lastChange = "2014-09-05 18:36:05 +0000";
layers = (
{
background = {
paths = (
{
closed = 1;
nodes = (
"262 422 LINE",
"271 487 LINE",
"192 487 LINE",
"236 796 LINE",
"207 796 LINE",
"159 772 OFFCURVE",
"101 751 OFFCURVE",
"59 748 CURVE",
"52 700 LINE",
"142 700 LINE",
"112 487 LINE",
"22 487 LINE",
"13 422 LINE"
);
}
);
};
layerId = "ED6E45DB-321E-4DDD-9C43-F5B1EDD266A1";
paths = (
{
closed = 1;
nodes = (
"262 422 LINE",
"271 487 LINE",
"192 487 LINE",
"236 796 LINE",
"207 796 LINE",
"159 772 OFFCURVE",
"101 751 OFFCURVE",
"59 748 CURVE",
"52 700 LINE",
"142 700 LINE",
"112 487 LINE",
"22 487 LINE",
"13 422 LINE"
);
}
);
width = 319;
}
);
unicode = 00B9;
},
{
glyphname = ordmasculine;
lastChange = "2014-09-05 18:36:05 +0000";
layers = (
{
background = {
paths = (
{
closed = 1;
nodes = (
"344 650 OFFCURVE",
"289 696 OFFCURVE",
"212 696 CURVE SMOOTH",
"202 696 LINE SMOOTH",
"92 696 OFFCURVE",
"25 617 OFFCURVE",
"25 499 CURVE SMOOTH",
"25 419 OFFCURVE",
"79 373 OFFCURVE",
"157 373 CURVE SMOOTH",
"167 373 LINE SMOOTH",
"282 373 OFFCURVE",
"344 458 OFFCURVE",
"344 570 CURVE SMOOTH"
);
},
{
closed = 1;
nodes = (
"241 459 OFFCURVE",
"207 434 OFFCURVE",
"170 434 CURVE SMOOTH",
"137 434 OFFCURVE",
"113 454 OFFCURVE",
"113 494 CURVE SMOOTH",
"113 498 OFFCURVE",
"114 504 OFFCURVE",
"121 559 CURVE SMOOTH",
"128 610 OFFCURVE",
"161 635 OFFCURVE",
"199 635 CURVE SMOOTH",
"232 635 OFFCURVE",
"256 615 OFFCURVE",
"256 575 CURVE SMOOTH",
"256 571 OFFCURVE",
"255 565 OFFCURVE",
"248 510 CURVE SMOOTH"
);
}
);
};
layerId = "ED6E45DB-321E-4DDD-9C43-F5B1EDD266A1";
paths = (
{
closed = 1;
nodes = (
"344 650 OFFCURVE",
"289 696 OFFCURVE",
"212 696 CURVE SMOOTH",
"202 696 LINE SMOOTH",
"92 696 OFFCURVE",
"25 617 OFFCURVE",
"25 499 CURVE SMOOTH",
"25 419 OFFCURVE",
"79 373 OFFCURVE",
"157 373 CURVE SMOOTH",
"167 373 LINE SMOOTH",
"282 373 OFFCURVE",
"344 458 OFFCURVE",
"344 570 CURVE SMOOTH"
);
},
{
closed = 1;
nodes = (
"241 459 OFFCURVE",
"207 434 OFFCURVE",
"170 434 CURVE SMOOTH",
"137 434 OFFCURVE",
"113 454 OFFCURVE",
"113 494 CURVE SMOOTH",
"113 498 OFFCURVE",
"114 504 OFFCURVE",
"121 559 CURVE SMOOTH",
"128 610 OFFCURVE",
"161 635 OFFCURVE",
"199 635 CURVE SMOOTH",
"232 635 OFFCURVE",
"256 615 OFFCURVE",
"256 575 CURVE SMOOTH",
"256 571 OFFCURVE",
"255 565 OFFCURVE",
"248 510 CURVE SMOOTH"
);
}
);
width = 367;
}
);
unicode = 00BA;
},
{
glyphname = guillemetright;
lastChange = "2014-09-05 18:36:05 +0000";
layers = (
{
background = {
paths = (
{
closed = 1;
nodes = (
"84 163 LINE",
"231 337 LINE",
"133 511 LINE",
"71 511 LINE",
"136 337 LINE",
"22 163 LINE"
);
},
{
closed = 1;
nodes = (
"266 163 LINE",
"412 337 LINE",
"315 511 LINE",
"253 511 LINE",
"318 337 LINE",
"204 163 LINE"
);
}
);
};
layerId = "ED6E45DB-321E-4DDD-9C43-F5B1EDD266A1";
paths = (
{
closed = 1;
nodes = (
"84 163 LINE",
"231 337 LINE",
"133 511 LINE",
"71 511 LINE",
"136 337 LINE",
"22 163 LINE"
);
},
{
closed = 1;
nodes = (
"266 163 LINE",
"412 337 LINE",
"315 511 LINE",
"253 511 LINE",
"318 337 LINE",
"204 163 LINE"
);
}
);
width = 459;
}
);
unicode = 00BB;
},
{
glyphname = onequarter;
lastChange = "2014-09-05 18:36:05 +0000";
layers = (
{
background = {
paths = (
{
closed = 1;
nodes = (
"684 686 LINE",
"615 686 LINE",
"98 0 LINE",
"170 0 LINE"
);
},
{
closed = 1;
nodes = (
"559 153 LINE",
"455 153 LINE",
"492 190 OFFCURVE",
"575 303 OFFCURVE",
"604 382 CURVE",
"527 382 LINE",
"497 313 OFFCURVE",
"439 213 OFFCURVE",
"393 153 CURVE",
"384 88 LINE",
"550 88 LINE",
"537 0 LINE",
"615 0 LINE",
"628 88 LINE",
"679 88 LINE",
"688 153 LINE",
"637 153 LINE",
"663 336 LINE",
"628 336 LINE",
"616 307 OFFCURVE",
"593 264 OFFCURVE",
"570 235 CURVE"
);
},
{
closed = 1;
nodes = (
"284 306 LINE",
"294 372 LINE",
"204 372 LINE",
"248 685 LINE",
"219 685 LINE",
"170 661 OFFCURVE",
"111 640 OFFCURVE",
"68 637 CURVE",
"61 588 LINE",
"153 588 LINE",
"123 372 LINE",
"32 372 LINE",
"22 306 LINE"
);
}
);
};
layerId = "ED6E45DB-321E-4DDD-9C43-F5B1EDD266A1";
paths = (
{
closed = 1;
nodes = (
"684 686 LINE",
"615 686 LINE",
"98 0 LINE",
"170 0 LINE"
);
},
{
closed = 1;
nodes = (
"559 153 LINE",
"455 153 LINE",
"492 190 OFFCURVE",
"575 303 OFFCURVE",
"604 382 CURVE",
"527 382 LINE",
"497 313 OFFCURVE",
"439 213 OFFCURVE",
"393 153 CURVE",
"384 88 LINE",
"550 88 LINE",
"537 0 LINE",
"615 0 LINE",
"628 88 LINE",
"679 88 LINE",
"688 153 LINE",
"637 153 LINE",
"663 336 LINE",
"628 336 LINE",
"616 307 OFFCURVE",
"593 264 OFFCURVE",
"570 235 CURVE"
);
},
{
closed = 1;
nodes = (
"284 306 LINE",
"294 372 LINE",
"204 372 LINE",
"248 685 LINE",
"219 685 LINE",
"170 661 OFFCURVE",
"111 640 OFFCURVE",
"68 637 CURVE",
"61 588 LINE",
"153 588 LINE",
"123 372 LINE",
"32 372 LINE",
"22 306 LINE"
);
}
);
width = 745;
}
);
unicode = 00BC;
},
{
glyphname = onehalf;
lastChange = "2014-09-05 18:36:05 +0000";
layers = (
{
background = {
paths = (
{
closed = 1;
nodes = (
"676 686 LINE",
"607 686 LINE",
"90 0 LINE",
"162 0 LINE"
);
},
{
closed = 1;
nodes = (
"284 306 LINE",
"294 372 LINE",
"204 372 LINE",
"248 685 LINE",
"219 685 LINE",
"170 661 OFFCURVE",
"111 640 OFFCURVE",
"68 637 CURVE",
"61 588 LINE",
"153 588 LINE",
"123 372 LINE",
"32 372 LINE",
"22 306 LINE"
);
},
{
closed = 1;
nodes = (
"713 331 OFFCURVE",
"677 382 OFFCURVE",
"593 382 CURVE SMOOTH",
"439 382 OFFCURVE",
"436 254 OFFCURVE",
"436 244 CURVE",
"512 244 LINE",
"512 285 OFFCURVE",
"539 315 OFFCURVE",
"580 315 CURVE SMOOTH",
"613 315 OFFCURVE",
"630 295 OFFCURVE",
"630 270 CURVE SMOOTH",
"630 172 OFFCURVE",
"401 150 OFFCURVE",
"401 -1 CURVE",
"678 -1 LINE",
"687 70 LINE",
"520 70 LINE",
"545 108 OFFCURVE",
"713 157 OFFCURVE",
"713 275 CURVE SMOOTH"
);
}
);
};
layerId = "ED6E45DB-321E-4DDD-9C43-F5B1EDD266A1";
paths = (
{
closed = 1;
nodes = (
"676 686 LINE",
"607 686 LINE",
"90 0 LINE",
"162 0 LINE"
);
},
{
closed = 1;
nodes = (
"284 306 LINE",
"294 372 LINE",
"204 372 LINE",
"248 685 LINE",
"219 685 LINE",
"170 661 OFFCURVE",
"111 640 OFFCURVE",
"68 637 CURVE",
"61 588 LINE",
"153 588 LINE",
"123 372 LINE",
"32 372 LINE",
"22 306 LINE"
);
},
{
closed = 1;
nodes = (
"713 331 OFFCURVE",
"677 382 OFFCURVE",
"593 382 CURVE SMOOTH",
"439 382 OFFCURVE",
"436 254 OFFCURVE",
"436 244 CURVE",
"512 244 LINE",
"512 285 OFFCURVE",
"539 315 OFFCURVE",
"580 315 CURVE SMOOTH",
"613 315 OFFCURVE",
"630 295 OFFCURVE",
"630 270 CURVE SMOOTH",
"630 172 OFFCURVE",
"401 150 OFFCURVE",
"401 -1 CURVE",
"678 -1 LINE",
"687 70 LINE",
"520 70 LINE",
"545 108 OFFCURVE",
"713 157 OFFCURVE",
"713 275 CURVE SMOOTH"
);
}
);
width = 765;
}
);
unicode = 00BD;
},
{
glyphname = threequarters;
lastChange = "2014-09-05 18:36:05 +0000";
layers = (
{
background = {
paths = (
{
closed = 1;
nodes = (
"686 686 LINE",
"617 686 LINE",
"101 0 LINE",
"173 0 LINE"
);
},
{
closed = 1;
nodes = (
"559 153 LINE",
"455 153 LINE",
"492 190 OFFCURVE",
"575 303 OFFCURVE",
"604 382 CURVE",
"527 382 LINE",
"497 313 OFFCURVE",
"439 213 OFFCURVE",
"393 153 CURVE",
"383 88 LINE",
"549 88 LINE",
"537 0 LINE",
"615 0 LINE",
"627 88 LINE",
"678 88 LINE",
"688 153 LINE",
"637 153 LINE",
"662 336 LINE",
"627 336 LINE",
"616 307 OFFCURVE",
"593 264 OFFCURVE",
"570 235 CURVE"
);
},
{
closed = 1;
nodes = (
"48 419 LINE",
"47 414 OFFCURVE",
"45 403 OFFCURVE",
"45 394 CURVE SMOOTH",
"45 340 OFFCURVE",
"87 301 OFFCURVE",
"168 301 CURVE SMOOTH",
"182 301 LINE SMOOTH",
"266 301 OFFCURVE",
"336 348 OFFCURVE",
"336 426 CURVE SMOOTH",
"336 465 OFFCURVE",
"315 489 OFFCURVE",
"282 500 CURVE",
"282 505 LINE",
"320 521 OFFCURVE",
"351 552 OFFCURVE",
"351 600 CURVE SMOOTH",
"351 652 OFFCURVE",
"305 689 OFFCURVE",
"237 689 CURVE SMOOTH",
"226 689 LINE SMOOTH",
"148 689 OFFCURVE",
"83 645 OFFCURVE",
"79 575 CURVE",
"152 575 LINE",
"157 607 OFFCURVE",
"185 624 OFFCURVE",
"216 624 CURVE SMOOTH",
"246 624 OFFCURVE",
"268 611 OFFCURVE",
"268 584 CURVE SMOOTH",
"268 547 OFFCURVE",
"237 528 OFFCURVE",
"204 528 CURVE SMOOTH",
"159 528 LINE",
"151 469 LINE",
"190 469 LINE SMOOTH",
"222 469 OFFCURVE",
"255 465 OFFCURVE",
"255 428 CURVE SMOOTH",
"255 386 OFFCURVE",
"224 366 OFFCURVE",
"180 366 CURVE SMOOTH",
"141 366 OFFCURVE",
"121 381 OFFCURVE",
"121 408 CURVE SMOOTH",
"121 410 OFFCURVE",
"121 413 OFFCURVE",
"122 419 CURVE"
);
}
);
};
layerId = "ED6E45DB-321E-4DDD-9C43-F5B1EDD266A1";
paths = (
{
closed = 1;
nodes = (
"686 686 LINE",
"617 686 LINE",
"101 0 LINE",
"173 0 LINE"
);
},
{
closed = 1;
nodes = (
"559 153 LINE",
"455 153 LINE",
"492 190 OFFCURVE",
"575 303 OFFCURVE",
"604 382 CURVE",
"527 382 LINE",
"497 313 OFFCURVE",
"439 213 OFFCURVE",
"393 153 CURVE",
"383 88 LINE",
"549 88 LINE",
"537 0 LINE",
"615 0 LINE",
"627 88 LINE",
"678 88 LINE",
"688 153 LINE",
"637 153 LINE",
"662 336 LINE",
"627 336 LINE",
"616 307 OFFCURVE",
"593 264 OFFCURVE",
"570 235 CURVE"
);
},
{
closed = 1;
nodes = (
"48 419 LINE",
"47 414 OFFCURVE",
"45 403 OFFCURVE",
"45 394 CURVE SMOOTH",
"45 340 OFFCURVE",
"87 301 OFFCURVE",
"168 301 CURVE SMOOTH",
"182 301 LINE SMOOTH",
"266 301 OFFCURVE",
"336 348 OFFCURVE",
"336 426 CURVE SMOOTH",
"336 465 OFFCURVE",
"315 489 OFFCURVE",
"282 500 CURVE",
"282 505 LINE",
"320 521 OFFCURVE",
"351 552 OFFCURVE",
"351 600 CURVE SMOOTH",
"351 652 OFFCURVE",
"305 689 OFFCURVE",
"237 689 CURVE SMOOTH",
"226 689 LINE SMOOTH",
"148 689 OFFCURVE",
"83 645 OFFCURVE",
"79 575 CURVE",
"152 575 LINE",
"157 607 OFFCURVE",
"185 624 OFFCURVE",
"216 624 CURVE SMOOTH",
"246 624 OFFCURVE",
"268 611 OFFCURVE",
"268 584 CURVE SMOOTH",
"268 547 OFFCURVE",
"237 528 OFFCURVE",
"204 528 CURVE SMOOTH",
"159 528 LINE",
"151 469 LINE",
"190 469 LINE SMOOTH",
"222 469 OFFCURVE",
"255 465 OFFCURVE",
"255 428 CURVE SMOOTH",
"255 386 OFFCURVE",
"224 366 OFFCURVE",
"180 366 CURVE SMOOTH",
"141 366 OFFCURVE",
"121 381 OFFCURVE",
"121 408 CURVE SMOOTH",
"121 410 OFFCURVE",
"121 413 OFFCURVE",
"122 419 CURVE"
);
}
);
width = 755;
}
);
unicode = 00BE;
},
{
glyphname = questiondown;
lastChange = "2014-09-05 18:36:05 +0000";
layers = (
{
background = {
paths = (
{
closed = 1;
nodes = (
"255 511 LINE",
"249 462 OFFCURVE",
"242 413 OFFCURVE",
"235 364 CURVE",
"383 364 LINE",
"389 413 OFFCURVE",
"396 462 OFFCURVE",
"403 511 CURVE"
);
},
{
closed = 1;
nodes = (
"231 274 LINE SMOOTH",
"221 201 OFFCURVE",
"31 174 OFFCURVE",
"31 -5 CURVE SMOOTH",
"31 -94 OFFCURVE",
"106 -185 OFFCURVE",
"239 -185 CURVE SMOOTH",
"251 -185 LINE SMOOTH",
"404 -185 OFFCURVE",
"517 -88 OFFCURVE",
"517 59 CURVE",
"376 59 LINE",
"374 -4 OFFCURVE",
"352 -71 OFFCURVE",
"267 -71 CURVE SMOOTH",
"213 -71 OFFCURVE",
"186 -31 OFFCURVE",
"186 7 CURVE SMOOTH",
"187 118 OFFCURVE",
"348 149 OFFCURVE",
"362 248 CURVE SMOOTH",
"371 310 LINE",
"236 310 LINE"
);
}
);
};
layerId = "ED6E45DB-321E-4DDD-9C43-F5B1EDD266A1";
paths = (
{
closed = 1;
nodes = (
"255 511 LINE",
"249 462 OFFCURVE",
"242 413 OFFCURVE",
"235 364 CURVE",
"383 364 LINE",
"389 413 OFFCURVE",
"396 462 OFFCURVE",
"403 511 CURVE"
);
},
{
closed = 1;
nodes = (
"231 274 LINE SMOOTH",
"221 201 OFFCURVE",
"31 174 OFFCURVE",
"31 -5 CURVE SMOOTH",
"31 -94 OFFCURVE",
"106 -185 OFFCURVE",
"239 -185 CURVE SMOOTH",
"251 -185 LINE SMOOTH",
"404 -185 OFFCURVE",
"517 -88 OFFCURVE",
"517 59 CURVE",
"376 59 LINE",
"374 -4 OFFCURVE",
"352 -71 OFFCURVE",
"267 -71 CURVE SMOOTH",
"213 -71 OFFCURVE",
"186 -31 OFFCURVE",
"186 7 CURVE SMOOTH",
"187 118 OFFCURVE",
"348 149 OFFCURVE",
"362 248 CURVE SMOOTH",
"371 310 LINE",
"236 310 LINE"
);
}
);
width = 572;
}
);
unicode = 00BF;
},
{
glyphname = Agrave;
lastChange = "2014-09-05 18:36:05 +0000";
layers = (
{
background = {
paths = (
{
closed = 1;
nodes = (
"473 0 LINE",
"635 0 LINE",
"483 686 LINE",
"299 686 LINE",
"-46 0 LINE",
"102 0 LINE",
"169 135 LINE",
"442 135 LINE"
);
},
{
closed = 1;
nodes = (
"364 521 LINE",
"382 432 OFFCURVE",
"400 342 OFFCURVE",
"418 252 CURVE",
"228 252 LINE",
"271 342 OFFCURVE",
"315 432 OFFCURVE",
"359 521 CURVE"
);
},
{
closed = 1;
nodes = (
"463 750 LINE",
"391 895 LINE",
"263 895 LINE",
"261 892 LINE",
"361 750 LINE"
);
}
);
};
layerId = "ED6E45DB-321E-4DDD-9C43-F5B1EDD266A1";
paths = (
{
closed = 1;
nodes = (
"473 0 LINE",
"635 0 LINE",
"483 686 LINE",
"299 686 LINE",
"-46 0 LINE",
"102 0 LINE",
"169 135 LINE",
"442 135 LINE"
);
},
{
closed = 1;
nodes = (
"364 521 LINE",
"382 432 OFFCURVE",
"400 342 OFFCURVE",
"418 252 CURVE",
"228 252 LINE",
"271 342 OFFCURVE",
"315 432 OFFCURVE",
"359 521 CURVE"
);
},
{
closed = 1;
nodes = (
"463 750 LINE",
"391 895 LINE",
"263 895 LINE",
"261 892 LINE",
"361 750 LINE"
);
}
);
width = 686;
}
);
unicode = 00C0;
},
{
glyphname = Aacute;
lastChange = "2014-09-05 18:36:05 +0000";
layers = (
{
background = {
paths = (
{
closed = 1;
nodes = (
"473 0 LINE",
"635 0 LINE",
"483 686 LINE",
"299 686 LINE",
"-46 0 LINE",
"102 0 LINE",
"169 135 LINE",
"442 135 LINE"
);
},
{
closed = 1;
nodes = (
"364 521 LINE",
"382 432 OFFCURVE",
"400 342 OFFCURVE",
"418 252 CURVE",
"228 252 LINE",
"271 342 OFFCURVE",
"315 432 OFFCURVE",
"359 521 CURVE"
);
},
{
closed = 1;
nodes = (
"427 750 LINE",
"568 891 LINE",
"568 895 LINE",
"439 895 LINE",
"326 750 LINE"
);
}
);
};
layerId = "ED6E45DB-321E-4DDD-9C43-F5B1EDD266A1";
paths = (
{
closed = 1;
nodes = (
"473 0 LINE",
"635 0 LINE",
"483 686 LINE",
"299 686 LINE",
"-46 0 LINE",
"102 0 LINE",
"169 135 LINE",
"442 135 LINE"
);
},
{
closed = 1;
nodes = (
"364 521 LINE",
"382 432 OFFCURVE",
"400 342 OFFCURVE",
"418 252 CURVE",
"228 252 LINE",
"271 342 OFFCURVE",
"315 432 OFFCURVE",
"359 521 CURVE"
);
},
{
closed = 1;
nodes = (
"427 750 LINE",
"568 891 LINE",
"568 895 LINE",
"439 895 LINE",
"326 750 LINE"
);
}
);
width = 686;
}
);
unicode = 00C1;
},
{
glyphname = Acircumflex;
lastChange = "2014-09-05 18:36:05 +0000";
layers = (
{
background = {
paths = (
{
closed = 1;
nodes = (
"473 0 LINE",
"635 0 LINE",
"483 686 LINE",
"299 686 LINE",
"-46 0 LINE",
"102 0 LINE",
"169 135 LINE",
"442 135 LINE"
);
},
{
closed = 1;
nodes = (
"364 521 LINE",
"382 432 OFFCURVE",
"400 342 OFFCURVE",
"418 252 CURVE",
"228 252 LINE",
"271 342 OFFCURVE",
"315 432 OFFCURVE",
"359 521 CURVE"
);
},
{
closed = 1;
nodes = (
"206 750 LINE",
"310 750 LINE",
"407 833 LINE",
"479 750 LINE",
"584 750 LINE",
"545 798 OFFCURVE",
"506 847 OFFCURVE",
"468 895 CURVE",
"365 895 LINE"
);
}
);
};
layerId = "ED6E45DB-321E-4DDD-9C43-F5B1EDD266A1";
paths = (
{
closed = 1;
nodes = (
"473 0 LINE",
"635 0 LINE",
"483 686 LINE",
"299 686 LINE",
"-46 0 LINE",
"102 0 LINE",
"169 135 LINE",
"442 135 LINE"
);
},
{
closed = 1;
nodes = (
"364 521 LINE",
"382 432 OFFCURVE",
"400 342 OFFCURVE",
"418 252 CURVE",
"228 252 LINE",
"271 342 OFFCURVE",
"315 432 OFFCURVE",
"359 521 CURVE"
);
},
{
closed = 1;
nodes = (
"206 750 LINE",
"310 750 LINE",
"407 833 LINE",
"479 750 LINE",
"584 750 LINE",
"545 798 OFFCURVE",
"506 847 OFFCURVE",
"468 895 CURVE",
"365 895 LINE"
);
}
);
width = 686;
}
);
unicode = 00C2;
},
{
glyphname = Atilde;
lastChange = "2014-09-05 18:36:05 +0000";
layers = (
{
background = {
paths = (
{
closed = 1;
nodes = (
"473 0 LINE",
"635 0 LINE",
"483 686 LINE",
"299 686 LINE",
"-46 0 LINE",
"102 0 LINE",
"169 135 LINE",
"442 135 LINE"
);
},
{
closed = 1;
nodes = (
"364 521 LINE",
"382 432 OFFCURVE",
"400 342 OFFCURVE",
"418 252 CURVE",
"228 252 LINE",
"271 342 OFFCURVE",
"315 432 OFFCURVE",
"359 521 CURVE"
);
},
{
closed = 1;
nodes = (
"540 873 LINE",
"530 850 OFFCURVE",
"510 835 OFFCURVE",
"482 835 CURVE SMOOTH",
"428 835 OFFCURVE",
"381 873 OFFCURVE",
"317 873 CURVE SMOOTH",
"239 873 OFFCURVE",
"182 808 OFFCURVE",
"174 749 CURVE",
"239 749 LINE",
"249 772 OFFCURVE",
"268 786 OFFCURVE",
"296 786 CURVE SMOOTH",
"350 786 OFFCURVE",
"398 749 OFFCURVE",
"462 749 CURVE SMOOTH",
"540 749 OFFCURVE",
"597 813 OFFCURVE",
"605 873 CURVE"
);
}
);
};
layerId = "ED6E45DB-321E-4DDD-9C43-F5B1EDD266A1";
paths = (
{
closed = 1;
nodes = (
"473 0 LINE",
"635 0 LINE",
"483 686 LINE",
"299 686 LINE",
"-46 0 LINE",
"102 0 LINE",
"169 135 LINE",
"442 135 LINE"
);
},
{
closed = 1;
nodes = (
"364 521 LINE",
"382 432 OFFCURVE",
"400 342 OFFCURVE",
"418 252 CURVE",
"228 252 LINE",
"271 342 OFFCURVE",
"315 432 OFFCURVE",
"359 521 CURVE"
);
},
{
closed = 1;
nodes = (
"540 873 LINE",
"530 850 OFFCURVE",
"510 835 OFFCURVE",
"482 835 CURVE SMOOTH",
"428 835 OFFCURVE",
"381 873 OFFCURVE",
"317 873 CURVE SMOOTH",
"239 873 OFFCURVE",
"182 808 OFFCURVE",
"174 749 CURVE",
"239 749 LINE",
"249 772 OFFCURVE",
"268 786 OFFCURVE",
"296 786 CURVE SMOOTH",
"350 786 OFFCURVE",
"398 749 OFFCURVE",
"462 749 CURVE SMOOTH",
"540 749 OFFCURVE",
"597 813 OFFCURVE",
"605 873 CURVE"
);
}
);
width = 686;
}
);
unicode = 00C3;
},
{
glyphname = Adieresis;
lastChange = "2014-09-05 18:36:05 +0000";
layers = (
{
background = {
paths = (
{
closed = 1;
nodes = (
"473 0 LINE",
"635 0 LINE",
"483 686 LINE",
"299 686 LINE",
"-46 0 LINE",
"102 0 LINE",
"169 135 LINE",
"442 135 LINE"
);
},
{
closed = 1;
nodes = (
"364 521 LINE",
"382 432 OFFCURVE",
"400 342 OFFCURVE",
"418 252 CURVE",
"228 252 LINE",
"271 342 OFFCURVE",
"315 432 OFFCURVE",
"359 521 CURVE"
);
},
{
closed = 1;
nodes = (
"230 750 LINE",
"351 750 LINE",
"368 872 LINE",
"247 872 LINE"
);
},
{
closed = 1;
nodes = (
"434 750 LINE",
"555 750 LINE",
"572 872 LINE",
"451 872 LINE"
);
}
);
};
layerId = "ED6E45DB-321E-4DDD-9C43-F5B1EDD266A1";
paths = (
{
closed = 1;
nodes = (
"473 0 LINE",
"635 0 LINE",
"483 686 LINE",
"299 686 LINE",
"-46 0 LINE",
"102 0 LINE",
"169 135 LINE",
"442 135 LINE"
);
},
{
closed = 1;
nodes = (
"364 521 LINE",
"382 432 OFFCURVE",
"400 342 OFFCURVE",
"418 252 CURVE",
"228 252 LINE",
"271 342 OFFCURVE",
"315 432 OFFCURVE",
"359 521 CURVE"
);
},
{
closed = 1;
nodes = (
"230 750 LINE",
"351 750 LINE",
"368 872 LINE",
"247 872 LINE"
);
},
{
closed = 1;
nodes = (
"434 750 LINE",
"555 750 LINE",
"572 872 LINE",
"451 872 LINE"
);
}
);
width = 686;
}
);
unicode = 00C4;
},
{
glyphname = Aring;
lastChange = "2014-09-05 18:36:05 +0000";
layers = (
{
background = {
paths = (
{
closed = 1;
nodes = (
"473 0 LINE",
"635 0 LINE",
"483 686 LINE",
"299 686 LINE",
"-46 0 LINE",
"102 0 LINE",
"169 135 LINE",
"442 135 LINE"
);
},
{
closed = 1;
nodes = (
"364 521 LINE",
"382 432 OFFCURVE",
"400 342 OFFCURVE",
"418 252 CURVE",
"228 252 LINE",
"271 342 OFFCURVE",
"315 432 OFFCURVE",
"359 521 CURVE"
);
},
{
closed = 1;
nodes = (
"512 893 OFFCURVE",
"473 931 OFFCURVE",
"421 931 CURVE SMOOTH",
"362 931 OFFCURVE",
"308 883 OFFCURVE",
"308 820 CURVE SMOOTH",
"308 768 OFFCURVE",
"347 730 OFFCURVE",
"400 730 CURVE SMOOTH",
"460 730 OFFCURVE",
"512 779 OFFCURVE",
"512 841 CURVE SMOOTH"
);
},
{
closed = 1;
nodes = (
"381 783 OFFCURVE",
"364 802 OFFCURVE",
"364 826 CURVE SMOOTH",
"364 856 OFFCURVE",
"387 878 OFFCURVE",
"414 878 CURVE SMOOTH",
"439 878 OFFCURVE",
"457 859 OFFCURVE",
"457 834 CURVE SMOOTH",
"457 803 OFFCURVE",
"431 783 OFFCURVE",
"406 783 CURVE SMOOTH"
);
}
);
};
layerId = "ED6E45DB-321E-4DDD-9C43-F5B1EDD266A1";
paths = (
{
closed = 1;
nodes = (
"473 0 LINE",
"635 0 LINE",
"483 686 LINE",
"299 686 LINE",
"-46 0 LINE",
"102 0 LINE",
"169 135 LINE",
"442 135 LINE"
);
},
{
closed = 1;
nodes = (
"364 521 LINE",
"382 432 OFFCURVE",
"400 342 OFFCURVE",
"418 252 CURVE",
"228 252 LINE",
"271 342 OFFCURVE",
"315 432 OFFCURVE",
"359 521 CURVE"
);
},
{
closed = 1;
nodes = (
"512 893 OFFCURVE",
"473 931 OFFCURVE",
"421 931 CURVE SMOOTH",
"362 931 OFFCURVE",
"308 883 OFFCURVE",
"308 820 CURVE SMOOTH",
"308 768 OFFCURVE",
"347 730 OFFCURVE",
"400 730 CURVE SMOOTH",
"460 730 OFFCURVE",
"512 779 OFFCURVE",
"512 841 CURVE SMOOTH"
);
},
{
closed = 1;
nodes = (
"381 783 OFFCURVE",
"364 802 OFFCURVE",
"364 826 CURVE SMOOTH",
"364 856 OFFCURVE",
"387 878 OFFCURVE",
"414 878 CURVE SMOOTH",
"439 878 OFFCURVE",
"457 859 OFFCURVE",
"457 834 CURVE SMOOTH",
"457 803 OFFCURVE",
"431 783 OFFCURVE",
"406 783 CURVE SMOOTH"
);
}
);
width = 686;
}
);
unicode = 00C5;
},
{
glyphname = AE;
lastChange = "2014-09-05 18:36:05 +0000";
layers = (
{
anchors = (
{
name = top;
position = "{563, 686}";
}
);
background = {
anchors = (
{
name = top;
position = "{563, 686}";
}
);
paths = (
{
closed = 1;
nodes = (
"469 0 LINE",
"915 0 LINE",
"915 123 LINE",
"622 123 LINE",
"618 178 OFFCURVE",
"612 236 OFFCURVE",
"607 290 CURVE",
"914 290 LINE",
"931 411 LINE",
"598 411 LINE",
"585 563 LINE",
"974 563 LINE",
"1008 686 LINE",
"392 686 LINE",
"-48 0 LINE",
"98 0 LINE",
"185 135 LINE",
"458 135 LINE"
);
},
{
closed = 1;
nodes = (
"434 521 LINE",
"440 432 OFFCURVE",
"444 342 OFFCURVE",
"451 252 CURVE",
"260 252 LINE",
"316 342 OFFCURVE",
"372 432 OFFCURVE",
"429 521 CURVE"
);
}
);
};
layerId = "ED6E45DB-321E-4DDD-9C43-F5B1EDD266A1";
paths = (
{
closed = 1;
nodes = (
"469 0 LINE",
"915 0 LINE",
"915 123 LINE",
"622 123 LINE",
"618 178 OFFCURVE",
"612 236 OFFCURVE",
"607 290 CURVE",
"914 290 LINE",
"931 411 LINE",
"598 411 LINE",
"585 563 LINE",
"974 563 LINE",
"1008 686 LINE",
"392 686 LINE",
"-48 0 LINE",
"98 0 LINE",
"185 135 LINE",
"458 135 LINE"
);
},
{
closed = 1;
nodes = (
"434 521 LINE",
"440 432 OFFCURVE",
"444 342 OFFCURVE",
"451 252 CURVE",
"260 252 LINE",
"316 342 OFFCURVE",
"372 432 OFFCURVE",
"429 521 CURVE"
);
}
);
width = 1004;
}
);
unicode = 00C6;
},
{
glyphname = Ccedilla;
lastChange = "2014-09-05 18:36:05 +0000";
layers = (
{
background = {
paths = (
{
closed = 1;
nodes = (
"483 270 LINE",
"468 165 OFFCURVE",
"416 113 OFFCURVE",
"325 113 CURVE SMOOTH",
"247 113 OFFCURVE",
"196 151 OFFCURVE",
"196 240 CURVE SMOOTH",
"196 270 OFFCURVE",
"202 303 OFFCURVE",
"214 382 CURVE SMOOTH",
"231 498 OFFCURVE",
"269 573 OFFCURVE",
"384 573 CURVE SMOOTH",
"454 573 OFFCURVE",
"501 531 OFFCURVE",
"501 457 CURVE SMOOTH",
"501 453 LINE",
"500 440 OFFCURVE",
"499 427 OFFCURVE",
"497 414 CURVE",
"644 414 LINE",
"647 433 OFFCURVE",
"648 451 OFFCURVE",
"648 468 CURVE SMOOTH",
"648 620 OFFCURVE",
"546 696 OFFCURVE",
"406 696 CURVE SMOOTH",
"392 696 LINE SMOOTH",
"214 696 OFFCURVE",
"81 586 OFFCURVE",
"54 392 CURVE SMOOTH",
"38 277 OFFCURVE",
"35 255 OFFCURVE",
"35 237 CURVE SMOOTH",
"35 75 OFFCURVE",
"144 -10 OFFCURVE",
"297 -10 CURVE SMOOTH",
"311 -10 LINE SMOOTH",
"480 -10 OFFCURVE",
"598 88 OFFCURVE",
"624 270 CURVE"
);
},
{
closed = 1;
nodes = (
"153 -168 LINE",
"177 -187 OFFCURVE",
"220 -197 OFFCURVE",
"257 -197 CURVE SMOOTH",
"303 -197 OFFCURVE",
"390 -180 OFFCURVE",
"390 -91 CURVE SMOOTH",
"390 -32 OFFCURVE",
"337 -17 OFFCURVE",
"285 -17 CURVE SMOOTH",
"262 -17 LINE",
"255 -68 LINE",
"275 -68 LINE SMOOTH",
"301 -68 OFFCURVE",
"315 -79 OFFCURVE",
"315 -99 CURVE SMOOTH",
"315 -130 OFFCURVE",
"288 -142 OFFCURVE",
"261 -142 CURVE SMOOTH",
"214 -142 OFFCURVE",
"187 -119 OFFCURVE",
"181 -116 CURVE"
);
}
);
};
layerId = "ED6E45DB-321E-4DDD-9C43-F5B1EDD266A1";
paths = (
{
closed = 1;
nodes = (
"483 270 LINE",
"468 165 OFFCURVE",
"416 113 OFFCURVE",
"325 113 CURVE SMOOTH",
"247 113 OFFCURVE",
"196 151 OFFCURVE",
"196 240 CURVE SMOOTH",
"196 270 OFFCURVE",
"202 303 OFFCURVE",
"214 382 CURVE SMOOTH",
"231 498 OFFCURVE",
"269 573 OFFCURVE",
"384 573 CURVE SMOOTH",
"454 573 OFFCURVE",
"501 531 OFFCURVE",
"501 457 CURVE SMOOTH",
"501 453 LINE",
"500 440 OFFCURVE",
"499 427 OFFCURVE",
"497 414 CURVE",
"644 414 LINE",
"647 433 OFFCURVE",
"648 451 OFFCURVE",
"648 468 CURVE SMOOTH",
"648 620 OFFCURVE",
"546 696 OFFCURVE",
"406 696 CURVE SMOOTH",
"392 696 LINE SMOOTH",
"214 696 OFFCURVE",
"81 586 OFFCURVE",
"54 392 CURVE SMOOTH",
"38 277 OFFCURVE",
"35 255 OFFCURVE",
"35 237 CURVE SMOOTH",
"35 75 OFFCURVE",
"144 -10 OFFCURVE",
"297 -10 CURVE SMOOTH",
"311 -10 LINE SMOOTH",
"480 -10 OFFCURVE",
"598 88 OFFCURVE",
"624 270 CURVE"
);
},
{
closed = 1;
nodes = (
"153 -168 LINE",
"177 -187 OFFCURVE",
"220 -197 OFFCURVE",
"257 -197 CURVE SMOOTH",
"303 -197 OFFCURVE",
"390 -180 OFFCURVE",
"390 -91 CURVE SMOOTH",
"390 -32 OFFCURVE",
"337 -17 OFFCURVE",
"285 -17 CURVE SMOOTH",
"262 -17 LINE",
"255 -68 LINE",
"275 -68 LINE SMOOTH",
"301 -68 OFFCURVE",
"315 -79 OFFCURVE",
"315 -99 CURVE SMOOTH",
"315 -130 OFFCURVE",
"288 -142 OFFCURVE",
"261 -142 CURVE SMOOTH",
"214 -142 OFFCURVE",
"187 -119 OFFCURVE",
"181 -116 CURVE"
);
}
);
width = 683;
}
);
unicode = 00C7;
},
{
glyphname = Egrave;
lastChange = "2014-09-05 18:36:05 +0000";
layers = (
{
background = {
paths = (
{
closed = 1;
nodes = (
"509 0 LINE",
"509 123 LINE",
"193 123 LINE",
"216 290 LINE",
"509 290 LINE",
"526 413 LINE",
"233 413 LINE",
"254 563 LINE",
"568 563 LINE",
"603 686 LINE",
"120 686 LINE",
"23 0 LINE"
);
},
{
closed = 1;
nodes = (
"428 750 LINE",
"356 895 LINE",
"228 895 LINE",
"226 892 LINE",
"326 750 LINE"
);
}
);
};
layerId = "ED6E45DB-321E-4DDD-9C43-F5B1EDD266A1";
paths = (
{
closed = 1;
nodes = (
"509 0 LINE",
"509 123 LINE",
"193 123 LINE",
"216 290 LINE",
"509 290 LINE",
"526 413 LINE",
"233 413 LINE",
"254 563 LINE",
"568 563 LINE",
"603 686 LINE",
"120 686 LINE",
"23 0 LINE"
);
},
{
closed = 1;
nodes = (
"428 750 LINE",
"356 895 LINE",
"228 895 LINE",
"226 892 LINE",
"326 750 LINE"
);
}
);
width = 598;
}
);
unicode = 00C8;
},
{
glyphname = Eacute;
lastChange = "2014-09-05 18:36:05 +0000";
layers = (
{
background = {
paths = (
{
closed = 1;
nodes = (
"509 0 LINE",
"509 123 LINE",
"193 123 LINE",
"216 290 LINE",
"509 290 LINE",
"526 413 LINE",
"233 413 LINE",
"254 563 LINE",
"568 563 LINE",
"603 686 LINE",
"120 686 LINE",
"23 0 LINE"
);
},
{
closed = 1;
nodes = (
"417 750 LINE",
"558 891 LINE",
"558 895 LINE",
"429 895 LINE",
"316 750 LINE"
);
}
);
};
layerId = "ED6E45DB-321E-4DDD-9C43-F5B1EDD266A1";
paths = (
{
closed = 1;
nodes = (
"509 0 LINE",
"509 123 LINE",
"193 123 LINE",
"216 290 LINE",
"509 290 LINE",
"526 413 LINE",
"233 413 LINE",
"254 563 LINE",
"568 563 LINE",
"603 686 LINE",
"120 686 LINE",
"23 0 LINE"
);
},
{
closed = 1;
nodes = (
"417 750 LINE",
"558 891 LINE",
"558 895 LINE",
"429 895 LINE",
"316 750 LINE"
);
}
);
width = 598;
}
);
unicode = 00C9;
},
{
glyphname = Ecircumflex;
lastChange = "2014-09-05 18:36:05 +0000";
layers = (
{
background = {
paths = (
{
closed = 1;
nodes = (
"509 0 LINE",
"509 123 LINE",
"193 123 LINE",
"216 290 LINE",
"509 290 LINE",
"526 413 LINE",
"233 413 LINE",
"254 563 LINE",
"568 563 LINE",
"603 686 LINE",
"120 686 LINE",
"23 0 LINE"
);
},
{
closed = 1;
nodes = (
"174 750 LINE",
"278 750 LINE",
"375 833 LINE",
"447 750 LINE",
"552 750 LINE",
"513 798 OFFCURVE",
"474 847 OFFCURVE",
"436 895 CURVE",
"333 895 LINE"
);
}
);
};
layerId = "ED6E45DB-321E-4DDD-9C43-F5B1EDD266A1";
paths = (
{
closed = 1;
nodes = (
"509 0 LINE",
"509 123 LINE",
"193 123 LINE",
"216 290 LINE",
"509 290 LINE",
"526 413 LINE",
"233 413 LINE",
"254 563 LINE",
"568 563 LINE",
"603 686 LINE",
"120 686 LINE",
"23 0 LINE"
);
},
{
closed = 1;
nodes = (
"174 750 LINE",
"278 750 LINE",
"375 833 LINE",
"447 750 LINE",
"552 750 LINE",
"513 798 OFFCURVE",
"474 847 OFFCURVE",
"436 895 CURVE",
"333 895 LINE"
);
}
);
width = 598;
}
);
unicode = 00CA;
},
{
glyphname = Edieresis;
lastChange = "2014-09-05 18:36:05 +0000";
layers = (
{
background = {
paths = (
{
closed = 1;
nodes = (
"509 0 LINE",
"509 123 LINE",
"193 123 LINE",
"216 290 LINE",
"509 290 LINE",
"526 413 LINE",
"233 413 LINE",
"254 563 LINE",
"568 563 LINE",
"603 686 LINE",
"120 686 LINE",
"23 0 LINE"
);
},
{
closed = 1;
nodes = (
"200 750 LINE",
"321 750 LINE",
"338 872 LINE",
"217 872 LINE"
);
},
{
closed = 1;
nodes = (
"404 750 LINE",
"525 750 LINE",
"542 872 LINE",
"421 872 LINE"
);
}
);
};
layerId = "ED6E45DB-321E-4DDD-9C43-F5B1EDD266A1";
paths = (
{
closed = 1;
nodes = (
"509 0 LINE",
"509 123 LINE",
"193 123 LINE",
"216 290 LINE",
"509 290 LINE",
"526 413 LINE",
"233 413 LINE",
"254 563 LINE",
"568 563 LINE",
"603 686 LINE",
"120 686 LINE",
"23 0 LINE"
);
},
{
closed = 1;
nodes = (
"200 750 LINE",
"321 750 LINE",
"338 872 LINE",
"217 872 LINE"
);
},
{
closed = 1;
nodes = (
"404 750 LINE",
"525 750 LINE",
"542 872 LINE",
"421 872 LINE"
);
}
);
width = 598;
}
);
unicode = 00CB;
},
{
glyphname = Igrave;
lastChange = "2014-09-05 18:36:05 +0000";
layers = (
{
background = {
paths = (
{
closed = 1;
nodes = (
"102 563 LINE",
"183 563 LINE",
"122 123 LINE",
"41 123 LINE",
"23 0 LINE",
"339 0 LINE",
"357 123 LINE",
"277 123 LINE",
"338 563 LINE",
"418 563 LINE",
"436 686 LINE",
"120 686 LINE"
);
},
{
closed = 1;
nodes = (
"336 750 LINE",
"264 895 LINE",
"136 895 LINE",
"134 892 LINE",
"234 750 LINE"
);
}
);
};
layerId = "ED6E45DB-321E-4DDD-9C43-F5B1EDD266A1";
paths = (
{
closed = 1;
nodes = (
"102 563 LINE",
"183 563 LINE",
"122 123 LINE",
"41 123 LINE",
"23 0 LINE",
"339 0 LINE",
"357 123 LINE",
"277 123 LINE",
"338 563 LINE",
"418 563 LINE",
"436 686 LINE",
"120 686 LINE"
);
},
{
closed = 1;
nodes = (
"336 750 LINE",
"264 895 LINE",
"136 895 LINE",
"134 892 LINE",
"234 750 LINE"
);
}
);
width = 461;
}
);
unicode = 00CC;
},
{
glyphname = Iacute;
lastChange = "2014-09-05 18:36:05 +0000";
layers = (
{
background = {
paths = (
{
closed = 1;
nodes = (
"102 563 LINE",
"183 563 LINE",
"122 123 LINE",
"41 123 LINE",
"23 0 LINE",
"339 0 LINE",
"357 123 LINE",
"277 123 LINE",
"338 563 LINE",
"418 563 LINE",
"436 686 LINE",
"120 686 LINE"
);
},
{
closed = 1;
nodes = (
"325 750 LINE",
"466 891 LINE",
"466 895 LINE",
"337 895 LINE",
"224 750 LINE"
);
}
);
};
layerId = "ED6E45DB-321E-4DDD-9C43-F5B1EDD266A1";
paths = (
{
closed = 1;
nodes = (
"102 563 LINE",
"183 563 LINE",
"122 123 LINE",
"41 123 LINE",
"23 0 LINE",
"339 0 LINE",
"357 123 LINE",
"277 123 LINE",
"338 563 LINE",
"418 563 LINE",
"436 686 LINE",
"120 686 LINE"
);
},
{
closed = 1;
nodes = (
"325 750 LINE",
"466 891 LINE",
"466 895 LINE",
"337 895 LINE",
"224 750 LINE"
);
}
);
width = 461;
}
);
unicode = 00CD;
},
{
glyphname = Icircumflex;
lastChange = "2014-09-05 18:36:05 +0000";
layers = (
{
background = {
paths = (
{
closed = 1;
nodes = (
"102 563 LINE",
"183 563 LINE",
"122 123 LINE",
"41 123 LINE",
"23 0 LINE",
"339 0 LINE",
"357 123 LINE",
"277 123 LINE",
"338 563 LINE",
"418 563 LINE",
"436 686 LINE",
"120 686 LINE"
);
},
{
closed = 1;
nodes = (
"97 750 LINE",
"201 750 LINE",
"298 833 LINE",
"370 750 LINE",
"475 750 LINE",
"436 798 OFFCURVE",
"397 847 OFFCURVE",
"359 895 CURVE",
"256 895 LINE"
);
}
);
};
layerId = "ED6E45DB-321E-4DDD-9C43-F5B1EDD266A1";
paths = (
{
closed = 1;
nodes = (
"102 563 LINE",
"183 563 LINE",
"122 123 LINE",
"41 123 LINE",
"23 0 LINE",
"339 0 LINE",
"357 123 LINE",
"277 123 LINE",
"338 563 LINE",
"418 563 LINE",
"436 686 LINE",
"120 686 LINE"
);
},
{
closed = 1;
nodes = (
"97 750 LINE",
"201 750 LINE",
"298 833 LINE",
"370 750 LINE",
"475 750 LINE",
"436 798 OFFCURVE",
"397 847 OFFCURVE",
"359 895 CURVE",
"256 895 LINE"
);
}
);
width = 461;
}
);
unicode = 00CE;
},
{
glyphname = Idieresis;
lastChange = "2014-09-05 18:36:05 +0000";
layers = (
{
background = {
paths = (
{
closed = 1;
nodes = (
"102 563 LINE",
"183 563 LINE",
"122 123 LINE",
"41 123 LINE",
"23 0 LINE",
"339 0 LINE",
"357 123 LINE",
"277 123 LINE",
"338 563 LINE",
"418 563 LINE",
"436 686 LINE",
"120 686 LINE"
);
},
{
closed = 1;
nodes = (
"125 750 LINE",
"246 750 LINE",
"263 872 LINE",
"142 872 LINE"
);
},
{
closed = 1;
nodes = (
"329 750 LINE",
"450 750 LINE",
"467 872 LINE",
"346 872 LINE"
);
}
);
};
layerId = "ED6E45DB-321E-4DDD-9C43-F5B1EDD266A1";
paths = (
{
closed = 1;
nodes = (
"102 563 LINE",
"183 563 LINE",
"122 123 LINE",
"41 123 LINE",
"23 0 LINE",
"339 0 LINE",
"357 123 LINE",
"277 123 LINE",
"338 563 LINE",
"418 563 LINE",
"436 686 LINE",
"120 686 LINE"
);
},
{
closed = 1;
nodes = (
"125 750 LINE",
"246 750 LINE",
"263 872 LINE",
"142 872 LINE"
);
},
{
closed = 1;
nodes = (
"329 750 LINE",
"450 750 LINE",
"467 872 LINE",
"346 872 LINE"
);
}
);
width = 461;
}
);
unicode = 00CF;
},
{
glyphname = Eth;
lastChange = "2014-09-05 18:36:05 +0000";
layers = (
{
background = {
paths = (
{
closed = 1;
nodes = (
"23 0 LINE",
"268 0 LINE SMOOTH",
"478 0 OFFCURVE",
"602 98 OFFCURVE",
"630 294 CURVE SMOOTH",
"647 409 OFFCURVE",
"648 416 OFFCURVE",
"648 443 CURVE SMOOTH",
"648 593 OFFCURVE",
"541 686 OFFCURVE",
"395 686 CURVE SMOOTH",
"120 686 LINE",
"77 383 LINE",
"-5 383 LINE",
"-16 303 LINE",
"66 303 LINE"
);
},
{
closed = 1;
nodes = (
"221 303 LINE",
"333 303 LINE",
"344 383 LINE",
"232 383 LINE",
"257 563 LINE",
"363 563 LINE SMOOTH",
"437 563 OFFCURVE",
"488 520 OFFCURVE",
"488 449 CURVE SMOOTH",
"488 406 OFFCURVE",
"480 364 OFFCURVE",
"466 272 CURVE SMOOTH",
"451 174 OFFCURVE",
"388 123 OFFCURVE",
"301 123 CURVE SMOOTH",
"196 123 LINE"
);
}
);
};
layerId = "ED6E45DB-321E-4DDD-9C43-F5B1EDD266A1";
paths = (
{
closed = 1;
nodes = (
"23 0 LINE",
"268 0 LINE SMOOTH",
"478 0 OFFCURVE",
"602 98 OFFCURVE",
"630 294 CURVE SMOOTH",
"647 409 OFFCURVE",
"648 416 OFFCURVE",
"648 443 CURVE SMOOTH",
"648 593 OFFCURVE",
"541 686 OFFCURVE",
"395 686 CURVE SMOOTH",
"120 686 LINE",
"77 383 LINE",
"-5 383 LINE",
"-16 303 LINE",
"66 303 LINE"
);
},
{
closed = 1;
nodes = (
"221 303 LINE",
"333 303 LINE",
"344 383 LINE",
"232 383 LINE",
"257 563 LINE",
"363 563 LINE SMOOTH",
"437 563 OFFCURVE",
"488 520 OFFCURVE",
"488 449 CURVE SMOOTH",
"488 406 OFFCURVE",
"480 364 OFFCURVE",
"466 272 CURVE SMOOTH",
"451 174 OFFCURVE",
"388 123 OFFCURVE",
"301 123 CURVE SMOOTH",
"196 123 LINE"
);
}
);
width = 686;
}
);
unicode = 00D0;
},
{
glyphname = Ntilde;
lastChange = "2014-09-05 18:36:05 +0000";
layers = (
{
background = {
paths = (
{
closed = 1;
nodes = (
"569 0 LINE",
"666 686 LINE",
"525 686 LINE",
"468 283 LINE",
"465 280 LINE",
"450 309 OFFCURVE",
"437 340 OFFCURVE",
"422 368 CURVE SMOOTH",
"251 686 LINE",
"120 686 LINE",
"23 0 LINE",
"164 0 LINE",
"221 402 LINE",
"225 405 LINE",
"225 405 OFFCURVE",
"254 342 OFFCURVE",
"268 316 CURVE SMOOTH",
"438 0 LINE"
);
},
{
closed = 1;
nodes = (
"550 873 LINE",
"540 850 OFFCURVE",
"520 835 OFFCURVE",
"492 835 CURVE SMOOTH",
"438 835 OFFCURVE",
"391 873 OFFCURVE",
"327 873 CURVE SMOOTH",
"249 873 OFFCURVE",
"192 808 OFFCURVE",
"184 749 CURVE",
"249 749 LINE",
"259 772 OFFCURVE",
"278 786 OFFCURVE",
"306 786 CURVE SMOOTH",
"360 786 OFFCURVE",
"408 749 OFFCURVE",
"472 749 CURVE SMOOTH",
"550 749 OFFCURVE",
"607 813 OFFCURVE",
"615 873 CURVE"
);
}
);
};
layerId = "ED6E45DB-321E-4DDD-9C43-F5B1EDD266A1";
paths = (
{
closed = 1;
nodes = (
"569 0 LINE",
"666 686 LINE",
"525 686 LINE",
"468 283 LINE",
"465 280 LINE",
"450 309 OFFCURVE",
"437 340 OFFCURVE",
"422 368 CURVE SMOOTH",
"251 686 LINE",
"120 686 LINE",
"23 0 LINE",
"164 0 LINE",
"221 402 LINE",
"225 405 LINE",
"225 405 OFFCURVE",
"254 342 OFFCURVE",
"268 316 CURVE SMOOTH",
"438 0 LINE"
);
},
{
closed = 1;
nodes = (
"550 873 LINE",
"540 850 OFFCURVE",
"520 835 OFFCURVE",
"492 835 CURVE SMOOTH",
"438 835 OFFCURVE",
"391 873 OFFCURVE",
"327 873 CURVE SMOOTH",
"249 873 OFFCURVE",
"192 808 OFFCURVE",
"184 749 CURVE",
"249 749 LINE",
"259 772 OFFCURVE",
"278 786 OFFCURVE",
"306 786 CURVE SMOOTH",
"360 786 OFFCURVE",
"408 749 OFFCURVE",
"472 749 CURVE SMOOTH",
"550 749 OFFCURVE",
"607 813 OFFCURVE",
"615 873 CURVE"
);
}
);
width = 691;
}
);
unicode = 00D1;
},
{
glyphname = Ograve;
lastChange = "2014-09-05 18:36:05 +0000";
layers = (
{
background = {
paths = (
{
closed = 1;
nodes = (
"472 167 OFFCURVE",
"409 113 OFFCURVE",
"322 113 CURVE SMOOTH",
"247 113 OFFCURVE",
"197 159 OFFCURVE",
"197 236 CURVE SMOOTH",
"197 271 OFFCURVE",
"203 304 OFFCURVE",
"215 390 CURVE SMOOTH",
"230 506 OFFCURVE",
"284 573 OFFCURVE",
"384 573 CURVE SMOOTH",
"458 573 OFFCURVE",
"509 526 OFFCURVE",
"509 449 CURVE SMOOTH",
"509 406 OFFCURVE",
"501 364 OFFCURVE",
"487 272 CURVE SMOOTH"
);
},
{
closed = 1;
nodes = (
"668 409 OFFCURVE",
"669 416 OFFCURVE",
"669 443 CURVE SMOOTH",
"669 599 OFFCURVE",
"562 695 OFFCURVE",
"416 695 CURVE SMOOTH",
"221 695 OFFCURVE",
"82 592 OFFCURVE",
"54 391 CURVE SMOOTH",
"38 276 OFFCURVE",
"36 271 OFFCURVE",
"36 241 CURVE SMOOTH",
"36 86 OFFCURVE",
"143 -10 OFFCURVE",
"289 -10 CURVE SMOOTH",
"484 -10 OFFCURVE",
"623 91 OFFCURVE",
"652 294 CURVE SMOOTH"
);
},
{
closed = 1;
nodes = (
"467 750 LINE",
"395 895 LINE",
"267 895 LINE",
"265 892 LINE",
"365 750 LINE"
);
}
);
};
layerId = "ED6E45DB-321E-4DDD-9C43-F5B1EDD266A1";
paths = (
{
closed = 1;
nodes = (
"472 167 OFFCURVE",
"409 113 OFFCURVE",
"322 113 CURVE SMOOTH",
"247 113 OFFCURVE",
"197 159 OFFCURVE",
"197 236 CURVE SMOOTH",
"197 271 OFFCURVE",
"203 304 OFFCURVE",
"215 390 CURVE SMOOTH",
"230 506 OFFCURVE",
"284 573 OFFCURVE",
"384 573 CURVE SMOOTH",
"458 573 OFFCURVE",
"509 526 OFFCURVE",
"509 449 CURVE SMOOTH",
"509 406 OFFCURVE",
"501 364 OFFCURVE",
"487 272 CURVE SMOOTH"
);
},
{
closed = 1;
nodes = (
"668 409 OFFCURVE",
"669 416 OFFCURVE",
"669 443 CURVE SMOOTH",
"669 599 OFFCURVE",
"562 695 OFFCURVE",
"416 695 CURVE SMOOTH",
"221 695 OFFCURVE",
"82 592 OFFCURVE",
"54 391 CURVE SMOOTH",
"38 276 OFFCURVE",
"36 271 OFFCURVE",
"36 241 CURVE SMOOTH",
"36 86 OFFCURVE",
"143 -10 OFFCURVE",
"289 -10 CURVE SMOOTH",
"484 -10 OFFCURVE",
"623 91 OFFCURVE",
"652 294 CURVE SMOOTH"
);
},
{
closed = 1;
nodes = (
"467 750 LINE",
"395 895 LINE",
"267 895 LINE",
"265 892 LINE",
"365 750 LINE"
);
}
);
width = 708;
}
);
unicode = 00D2;
},
{
glyphname = Oacute;
lastChange = "2014-09-05 18:36:05 +0000";
layers = (
{
background = {
paths = (
{
closed = 1;
nodes = (
"472 167 OFFCURVE",
"409 113 OFFCURVE",
"322 113 CURVE SMOOTH",
"247 113 OFFCURVE",
"197 159 OFFCURVE",
"197 236 CURVE SMOOTH",
"197 271 OFFCURVE",
"203 304 OFFCURVE",
"215 390 CURVE SMOOTH",
"230 506 OFFCURVE",
"284 573 OFFCURVE",
"384 573 CURVE SMOOTH",
"458 573 OFFCURVE",
"509 526 OFFCURVE",
"509 449 CURVE SMOOTH",
"509 406 OFFCURVE",
"501 364 OFFCURVE",
"487 272 CURVE SMOOTH"
);
},
{
closed = 1;
nodes = (
"668 409 OFFCURVE",
"669 416 OFFCURVE",
"669 443 CURVE SMOOTH",
"669 599 OFFCURVE",
"562 695 OFFCURVE",
"416 695 CURVE SMOOTH",
"221 695 OFFCURVE",
"82 592 OFFCURVE",
"54 391 CURVE SMOOTH",
"38 276 OFFCURVE",
"36 271 OFFCURVE",
"36 241 CURVE SMOOTH",
"36 86 OFFCURVE",
"143 -10 OFFCURVE",
"289 -10 CURVE SMOOTH",
"484 -10 OFFCURVE",
"623 91 OFFCURVE",
"652 294 CURVE SMOOTH"
);
},
{
closed = 1;
nodes = (
"465 750 LINE",
"606 891 LINE",
"606 895 LINE",
"477 895 LINE",
"364 750 LINE"
);
}
);
};
layerId = "ED6E45DB-321E-4DDD-9C43-F5B1EDD266A1";
paths = (
{
closed = 1;
nodes = (
"472 167 OFFCURVE",
"409 113 OFFCURVE",
"322 113 CURVE SMOOTH",
"247 113 OFFCURVE",
"197 159 OFFCURVE",
"197 236 CURVE SMOOTH",
"197 271 OFFCURVE",
"203 304 OFFCURVE",
"215 390 CURVE SMOOTH",
"230 506 OFFCURVE",
"284 573 OFFCURVE",
"384 573 CURVE SMOOTH",
"458 573 OFFCURVE",
"509 526 OFFCURVE",
"509 449 CURVE SMOOTH",
"509 406 OFFCURVE",
"501 364 OFFCURVE",
"487 272 CURVE SMOOTH"
);
},
{
closed = 1;
nodes = (
"668 409 OFFCURVE",
"669 416 OFFCURVE",
"669 443 CURVE SMOOTH",
"669 599 OFFCURVE",
"562 695 OFFCURVE",
"416 695 CURVE SMOOTH",
"221 695 OFFCURVE",
"82 592 OFFCURVE",
"54 391 CURVE SMOOTH",
"38 276 OFFCURVE",
"36 271 OFFCURVE",
"36 241 CURVE SMOOTH",
"36 86 OFFCURVE",
"143 -10 OFFCURVE",
"289 -10 CURVE SMOOTH",
"484 -10 OFFCURVE",
"623 91 OFFCURVE",
"652 294 CURVE SMOOTH"
);
},
{
closed = 1;
nodes = (
"465 750 LINE",
"606 891 LINE",
"606 895 LINE",
"477 895 LINE",
"364 750 LINE"
);
}
);
width = 708;
}
);
unicode = 00D3;
},
{
glyphname = Ocircumflex;
lastChange = "2014-09-05 18:36:05 +0000";
layers = (
{
background = {
paths = (
{
closed = 1;
nodes = (
"472 167 OFFCURVE",
"409 113 OFFCURVE",
"322 113 CURVE SMOOTH",
"247 113 OFFCURVE",
"197 159 OFFCURVE",
"197 236 CURVE SMOOTH",
"197 271 OFFCURVE",
"203 304 OFFCURVE",
"215 390 CURVE SMOOTH",
"230 506 OFFCURVE",
"284 573 OFFCURVE",
"384 573 CURVE SMOOTH",
"458 573 OFFCURVE",
"509 526 OFFCURVE",
"509 449 CURVE SMOOTH",
"509 406 OFFCURVE",
"501 364 OFFCURVE",
"487 272 CURVE SMOOTH"
);
},
{
closed = 1;
nodes = (
"668 409 OFFCURVE",
"669 416 OFFCURVE",
"669 443 CURVE SMOOTH",
"669 599 OFFCURVE",
"562 695 OFFCURVE",
"416 695 CURVE SMOOTH",
"221 695 OFFCURVE",
"82 592 OFFCURVE",
"54 391 CURVE SMOOTH",
"38 276 OFFCURVE",
"36 271 OFFCURVE",
"36 241 CURVE SMOOTH",
"36 86 OFFCURVE",
"143 -10 OFFCURVE",
"289 -10 CURVE SMOOTH",
"484 -10 OFFCURVE",
"623 91 OFFCURVE",
"652 294 CURVE SMOOTH"
);
},
{
closed = 1;
nodes = (
"236 750 LINE",
"340 750 LINE",
"437 833 LINE",
"509 750 LINE",
"614 750 LINE",
"575 798 OFFCURVE",
"536 847 OFFCURVE",
"498 895 CURVE",
"395 895 LINE"
);
}
);
};
layerId = "ED6E45DB-321E-4DDD-9C43-F5B1EDD266A1";
paths = (
{
closed = 1;
nodes = (
"472 167 OFFCURVE",
"409 113 OFFCURVE",
"322 113 CURVE SMOOTH",
"247 113 OFFCURVE",
"197 159 OFFCURVE",
"197 236 CURVE SMOOTH",
"197 271 OFFCURVE",
"203 304 OFFCURVE",
"215 390 CURVE SMOOTH",
"230 506 OFFCURVE",
"284 573 OFFCURVE",
"384 573 CURVE SMOOTH",
"458 573 OFFCURVE",
"509 526 OFFCURVE",
"509 449 CURVE SMOOTH",
"509 406 OFFCURVE",
"501 364 OFFCURVE",
"487 272 CURVE SMOOTH"
);
},
{
closed = 1;
nodes = (
"668 409 OFFCURVE",
"669 416 OFFCURVE",
"669 443 CURVE SMOOTH",
"669 599 OFFCURVE",
"562 695 OFFCURVE",
"416 695 CURVE SMOOTH",
"221 695 OFFCURVE",
"82 592 OFFCURVE",
"54 391 CURVE SMOOTH",
"38 276 OFFCURVE",
"36 271 OFFCURVE",
"36 241 CURVE SMOOTH",
"36 86 OFFCURVE",
"143 -10 OFFCURVE",
"289 -10 CURVE SMOOTH",
"484 -10 OFFCURVE",
"623 91 OFFCURVE",
"652 294 CURVE SMOOTH"
);
},
{
closed = 1;
nodes = (
"236 750 LINE",
"340 750 LINE",
"437 833 LINE",
"509 750 LINE",
"614 750 LINE",
"575 798 OFFCURVE",
"536 847 OFFCURVE",
"498 895 CURVE",
"395 895 LINE"
);
}
);
width = 708;
}
);
unicode = 00D4;
},
